<?xml version="1.0" standalone="no"?><!DOCTYPE svg PUBLIC "-//W3C//DTD SVG 1.1//EN" "http://www.w3.org/Graphics/SVG/1.1/DTD/svg11.dtd" ><svg xmlns="http://www.w3.org/2000/svg"><metadata></metadata><defs><font id="Monotype Imaging - Noto Serif Bold" horiz-adv-x="2675"><font-face font-family="Noto Serif" font-weight="700" font-stretch="normal" units-per-em="2048" panose-1="2 2 8 0 6 5 0 2 2 0" ascent="2189" descent="-600" x-height="0" bbox="-1137 -512 2675 2167" underline-thickness="102" underline-position="-154" unicode-range="U+000d-2215" /><missing-glyph horiz-adv-x="1229" d="M193 1462 l841 0 l0 -1462 l-841 0 l0 1462 ZM297 104 l633 0 l0 1254 l-633 0 l0 -1254 Z" /><glyph glyph-name="glyph1" unicode="" d="" /><glyph glyph-name="uni000D" unicode="" d="" /><glyph glyph-name="space" unicode=" " d="" /><glyph glyph-name="exclam" unicode="!" d="M213 1462 l356 0 l-120 -995 l-115 0 l-121 995 ZM225 147 q0 47 13 78.5 q13 31.5 35.5 50.5 q22.5 19 53.5 27 q31 8 66 8 q34 0 64.5 -8 q30.5 -8 53.5 -27 q23 -19 36.5 -50.5 q13.5 -31.5 13.5 -78.5 q0 -46 -13.5 -77 q-13.5 -31 -36.5 -50 q-23 -19 -53.5 -27.5 q-30.5 -8.5 -64.5 -8.5 q-35 0 -66 8.5 q-31 8.5 -53.5 27.5 q-22.5 19 -35.5 50 q-13 31 -13 77 Z" /><glyph glyph-name="quotedbl" unicode="&quot;" d="M584 1462 l319 0 l-72 -563 l-135 0 l-112 563 ZM137 1462 l320 0 l-92 -563 l-136 0 l-92 563 Z" /><glyph glyph-name="numbersign" unicode="#" d="M1022 551 l0 -141 l-256 0 l-76 -410 l-145 0 l76 410 l-213 0 l-78 -410 l-146 0 l78 410 l-205 0 l0 141 l232 0 l71 371 l-237 0 l0 143 l264 0 l72 397 l147 0 l-74 -397 l213 0 l76 397 l146 0 l-76 -397 l196 0 l0 -143 l-223 0 l-69 -371 l227 0 ZM434 551 l215 0 l72 371 l-215 0 l-72 -371 Z" /><glyph glyph-name="dollar" unicode="$" d="M639 1556 l0 -155 q91 -3 157 -20 q66 -17 109 -44.5 q43 -27.5 63.5 -63.5 q20.5 -36 20.5 -77 q0 -65 -56 -107 q-56 -42 -169 -42 q0 30 -7 65 q-7 35 -22 67.5 q-15 32.5 -38.5 59 q-23.5 26.5 -57.5 41.5 l0 -399 q6 -3 23 -9.5 q17 -6.5 28 -11.5 q94 -37 161 -76 q67 -39 109.5 -85 q42.5 -46 62 -99.5 q19.5 -53.5 19.5 -118.5 q0 -78 -27.5 -144.5 q-27.5 -66.5 -79 -117.5 q-51.5 -51 -126.5 -83.5 q-75 -32.5 -170 -43.5 l0 -254 l-115 0 l0 250 q-117 3 -198 30 q-81 27 -131.5 68 q-50.5 41 -72.5 91 q-22 50 -22 98 q0 45 16.5 76 q16.5 31 43.5 50.5 q27 19.5 61.5 28.5 q34.5 9 71.5 9 q0 -77 16.5 -137 q16.5 -60 47 -102.5 q30.5 -42.5 73 -68.5 q42.5 -26 94.5 -34 l0 442 l-35 14 q-98 40 -163.5 81 q-65.5 41 -106 87.5 q-40.5 46.5 -57.5 100.5 q-17 54 -17 120 q0 74 28 135.5 q28 61.5 78 107.5 q50 46 119.5 75.5 q69.5 29.5 153.5 38.5 l0 157 l115 0 ZM799 389 q0 65 -40 111 q-40 46 -120 88 l0 -387 q77 17 118.5 68 q41.5 51 41.5 120 ZM385 1128 q0 -27 6 -52 q6 -25 22 -48.5 q16 -23.5 43 -46 q27 -22.5 68 -45.5 l0 354 q-60 -11 -99.5 -51.5 q-39.5 -40.5 -39.5 -110.5 Z" /><glyph glyph-name="percent" unicode="%" d="M807 1030 q0 -103 -23 -187 q-23 -84 -68.5 -144 q-45.5 -60 -115 -93 q-69.5 -33 -162.5 -33 q-97 0 -167 33 q-70 33 -114.5 93 q-44.5 60 -65.5 144 q-21 84 -21 187 q0 103 21 186.5 q21 83.5 66 143 q45 59.5 115 91.5 q70 32 168 32 q92 0 161 -32 q69 -32 115 -91.5 q46 -59.5 68.5 -143 q22.5 -83.5 22.5 -186.5 ZM301 1030 q0 -84 7.5 -149.5 q7.5 -65.5 23.5 -111 q16 -45.5 42.5 -69.5 q26.5 -24 63.5 -24 q39 0 64.5 24 q25.5 24 41.5 69.5 q16 45.5 22.5 111 q6.5 65.5 6.5 149.5 q0 82 -6.5 146.5 q-6.5 64.5 -22 109.5 q-15.5 45 -41 68.5 q-25.5 23.5 -63.5 23.5 q-38 0 -64.5 -23.5 q-26.5 -23.5 -43 -68.5 q-16.5 -45 -24 -109.5 q-7.5 -64.5 -7.5 -146.5 ZM651 0 l-159 0 l706 1462 l158 0 l-705 -1462 ZM1786 436 q0 -103 -23 -187 q-23 -84 -68.5 -144 q-45.5 -60 -115 -92.5 q-69.5 -32.5 -162.5 -32.5 q-97 0 -167 32.5 q-70 32.5 -114.5 92.5 q-44.5 60 -65.5 144 q-21 84 -21 187 q0 103 21 186.5 q21 83.5 66 143 q45 59.5 115 91.5 q70 32 168 32 q92 0 161 -32 q69 -32 115 -91.5 q46 -59.5 68.5 -143 q22.5 -83.5 22.5 -186.5 ZM1280 436 q0 -84 7.5 -149.5 q7.5 -65.5 23.5 -111 q16 -45.5 42.5 -69.5 q26.5 -24 63.5 -24 q39 0 64.5 24 q25.5 24 41.5 69.5 q16 45.5 22.5 111 q6.5 65.5 6.5 149.5 q0 82 -6.5 146.5 q-6.5 64.5 -22 109.5 q-15.5 45 -41 68.5 q-25.5 23.5 -63.5 23.5 q-38 0 -64.5 -23.5 q-26.5 -23.5 -43 -68.5 q-16.5 -45 -24 -109.5 q-7.5 -64.5 -7.5 -146.5 Z" /><glyph glyph-name="ampersand" unicode="&amp;" d="M1208 0 l-141 150 q-38 -38 -84.5 -69 q-46.5 -31 -102.5 -53.5 q-56 -22.5 -121.5 -35 q-65.5 -12.5 -142.5 -12.5 q-126 0 -223 29.5 q-97 29.5 -163 85.5 q-66 56 -100 137 q-34 81 -34 184 q0 90 28.5 153.5 q28.5 63.5 76.5 110 q48 46.5 111.5 79 q63.5 32.5 133.5 60.5 q-40 48 -69.5 91.5 q-29.5 43.5 -48.5 86.5 q-19 43 -28 88 q-9 45 -9 97 q0 68 26 123 q26 55 77.5 95 q51.5 40 128.5 61.5 q77 21.5 179 21.5 q99 0 172.5 -23 q73.5 -23 122 -63 q48.5 -40 73 -93 q24.5 -53 24.5 -112 q0 -62 -19 -112 q-19 -50 -57.5 -92.5 q-38.5 -42.5 -97 -79.5 q-58.5 -37 -138.5 -74 q5 -8 15 -15 l290 -305 q13 71 17 140.5 q4 69.5 4 127.5 l0 90 l448 0 l0 -108 l-32 0 q-34 0 -66.5 -4 q-32.5 -4 -60.5 -18.5 q-28 -14.5 -49.5 -42 q-21.5 -27.5 -34.5 -74.5 q-16 -57 -37.5 -121.5 q-21.5 -64.5 -52.5 -130.5 l204 -213 q29 -31 71 -41 q42 -10 97 -10 l19 0 l0 -109 l-406 0 ZM397 406 q0 -61 19.5 -113.5 q19.5 -52.5 54.5 -91.5 q35 -39 85.5 -61.5 q50.5 -22.5 111.5 -22.5 q109 0 184 35.5 q75 35.5 125 95.5 l-438 467 q-43 -31 -70.5 -65.5 q-27.5 -34.5 -43.5 -73 q-16 -38.5 -22 -81 q-6 -42.5 -6 -89.5 ZM846 1190 q0 36 -6.5 67 q-6.5 31 -22.5 54 q-16 23 -44 36 q-28 13 -71 13 q-34 0 -59.5 -13 q-25.5 -13 -41.5 -36 q-16 -23 -24 -54.5 q-8 -31.5 -8 -68.5 q0 -35 8 -67 q8 -32 23.5 -63.5 q15.5 -31.5 39.5 -63.5 q24 -32 56 -68 q43 24 72 51 q29 27 46 58.5 q17 31.5 24.5 69.5 q7.5 38 7.5 85 Z" /><glyph glyph-name="quotesingle" unicode="&#39;" d="M137 1462 l320 0 l-92 -563 l-136 0 l-92 563 Z" /><glyph glyph-name="parenleft" unicode="(" d="M446 651 q0 -122 12.5 -239.5 q12.5 -117.5 46.5 -222 q34 -104.5 94 -192.5 q60 -88 155 -151 l0 -131 q-171 69 -292 161.5 q-121 92.5 -197.5 209.5 q-76.5 117 -112 258 q-35.5 141 -35.5 307 q0 165 35.5 305.5 q35.5 140.5 112 256.5 q76.5 116 197.5 208 q121 92 292 160 l0 -129 q-95 -63 -155 -150.5 q-60 -87.5 -94 -191.5 q-34 -104 -46.5 -220.5 q-12.5 -116.5 -12.5 -238.5 Z" /><glyph glyph-name="parenright" unicode=")" d="M373 651 q0 122 -12.5 238.5 q-12.5 116.5 -46 220.5 q-33.5 104 -93.5 191.5 q-60 87.5 -155 150.5 l0 129 q171 -68 292 -160 q121 -92 197.5 -208 q76.5 -116 111.5 -256.5 q35 -140.5 35 -305.5 q0 -166 -35 -307 q-35 -141 -111.5 -258 q-76.5 -117 -197.5 -209.5 q-121 -92.5 -292 -161.5 l0 131 q95 63 155 151 q60 88 93.5 192.5 q33.5 104.5 46 222 q12.5 117.5 12.5 239.5 Z" /><glyph glyph-name="asterisk" unicode="*" d="M72 1237 l92 207 l305 -221 l-68 333 l230 0 l-74 -329 l307 213 l92 -205 l-319 -80 l319 -82 l-92 -203 l-307 213 l72 -331 l-228 0 l66 333 l-303 -217 l-92 203 l319 84 l-319 82 Z" /><glyph glyph-name="plus" unicode="+" d="M645 659 l0 -366 l-147 0 l0 366 l-365 0 l0 146 l365 0 l0 366 l147 0 l0 -366 l367 0 l0 -146 l-367 0 Z" /><glyph glyph-name="comma" unicode="," d="M459 86 q0 -65 -20 -126 q-20 -61 -64 -113 q-44 -52 -113.5 -93.5 q-69.5 -41.5 -169.5 -68.5 l0 106 q45 16 78.5 32 q33.5 16 56 34.5 q22.5 18.5 34 41 q11.5 22.5 11.5 52.5 q0 19 -11 31.5 q-11 12.5 -27.5 23.5 q-16.5 11 -36 22.5 q-19.5 11.5 -36 29.5 q-16.5 18 -27.5 44.5 q-11 26.5 -11 67.5 q0 69 42 105 q42 36 105 36 q87 0 138 -60 q51 -60 51 -165 Z" /><glyph glyph-name="hyphen" unicode="-" d="M51 451 l0 215 l533 0 l0 -215 l-533 0 Z" /><glyph glyph-name="period" unicode="." d="M133 147 q0 47 13 78.5 q13 31.5 35.5 50.5 q22.5 19 53.5 27 q31 8 66 8 q34 0 64.5 -8 q30.5 -8 53.5 -27 q23 -19 36.5 -50.5 q13.5 -31.5 13.5 -78.5 q0 -46 -13.5 -77 q-13.5 -31 -36.5 -50 q-23 -19 -53.5 -27.5 q-30.5 -8.5 -64.5 -8.5 q-35 0 -66 8.5 q-31 8.5 -53.5 27.5 q-22.5 19 -35.5 50 q-13 31 -13 77 Z" /><glyph glyph-name="slash" unicode="/" d="M147 -250 l-147 2 l446 1804 l144 0 l-443 -1806 Z" /><glyph glyph-name="zero" unicode="0" d="M1075 733 q0 -169 -28 -308 q-28 -139 -89 -238 q-61 -99 -156 -153 q-95 -54 -229 -54 q-140 0 -236 54 q-96 54 -155.5 153 q-59.5 99 -85.5 238.5 q-26 139.5 -26 309.5 q0 170 26 308 q26 138 85.5 236 q59.5 98 156 151 q96.5 53 237.5 53 q133 0 228 -53 q95 -53 155.5 -151 q60.5 -98 88.5 -236.5 q28 -138.5 28 -309.5 ZM387 733 q0 -147 8 -262 q8 -115 28.5 -194.5 q20.5 -79.5 56.5 -121.5 q36 -42 93 -42 q57 0 93 42 q36 42 56.5 121.5 q20.5 79.5 28 194.5 q7.5 115 7.5 262 q0 147 -7.5 261.5 q-7.5 114.5 -27.5 193.5 q-20 79 -56 120.5 q-36 41.5 -92 41.5 q-57 0 -93.5 -41.5 q-36.5 -41.5 -57.5 -120.5 q-21 -79 -29 -193.5 q-8 -114.5 -8 -261.5 Z" /><glyph glyph-name="one" unicode="1" d="M199 0 l0 109 l168 0 q26 0 45 6.5 q19 6.5 32 21.5 q13 15 19 40.5 q6 25.5 6 64.5 l0 1026 q-39 -48 -73.5 -87 q-34.5 -39 -66.5 -67 q-32 -28 -62.5 -43.5 q-30.5 -15.5 -61.5 -15.5 q-25 0 -46.5 10.5 q-21.5 10.5 -37.5 30.5 q-16 20 -25.5 48 q-9.5 28 -9.5 62 q31 8 65 19.5 q34 11.5 72.5 30 q38.5 18.5 82.5 45 q44 26.5 95 63.5 l144 106 l229 0 l0 -1228 q0 -32 4.5 -57 q4.5 -25 16 -42 q11.5 -17 32 -25.5 q20.5 -8.5 52.5 -8.5 l165 0 l0 -109 l-845 0 Z" /><glyph glyph-name="two" unicode="2" d="M999 1143 q0 -48 -10.5 -93 q-10.5 -45 -35 -93 q-24.5 -48 -64.5 -101.5 q-40 -53.5 -99 -118 q-59 -64.5 -137.5 -142.5 q-78.5 -78 -181.5 -175 l-205 -195 l477 0 q63 0 107.5 36.5 q44.5 36.5 62.5 105.5 l17 63 l121 0 l-11 -430 l-968 0 l0 211 l303 309 q95 97 156 175 q61 78 96 149 q35 71 49 140.5 q14 69.5 14 148.5 q0 117 -42.5 171 q-42.5 54 -117.5 54 q-104 0 -146 -89.5 q-42 -89.5 -42 -264.5 q-58 0 -106.5 11 q-48.5 11 -83 35 q-34.5 24 -53.5 62.5 q-19 38.5 -19 93.5 q0 56 28.5 106 q28.5 50 84.5 88 q56 38 140.5 60.5 q84.5 22.5 196.5 22.5 q115 0 202.5 -23.5 q87.5 -23.5 147 -67.5 q59.5 -44 89.5 -107 q30 -63 30 -142 Z" /><glyph glyph-name="three" unicode="3" d="M498 -20 q-116 0 -199.5 20 q-83.5 20 -137 54 q-53.5 34 -79 78.5 q-25.5 44.5 -25.5 92.5 q0 39 14 69 q14 30 38 50.5 q24 20.5 55.5 30.5 q31.5 10 66.5 10 q0 -65 18.5 -114 q18.5 -49 51.5 -82 q33 -33 79.5 -49.5 q46.5 -16.5 102.5 -16.5 q50 0 95.5 14 q45.5 14 80.5 48 q35 34 55.5 92.5 q20.5 58.5 20.5 146.5 q0 59 -20.5 108 q-20.5 49 -61 84.5 q-40.5 35.5 -99.5 55.5 q-59 20 -136 20 l-127 0 l0 127 l135 0 q66 0 115 21.5 q49 21.5 81 61.5 q32 40 48 95.5 q16 55.5 16 122.5 q0 112 -43 175 q-43 63 -127 63 q-55 0 -89.5 -27 q-34.5 -27 -53.5 -72 q-19 -45 -26 -102 q-7 -57 -7 -117 q-128 0 -197 44.5 q-69 44.5 -69 138.5 q0 54 28.5 101.5 q28.5 47.5 85.5 83 q57 35.5 141.5 55.5 q84.5 20 196.5 20 q109 0 196.5 -22 q87.5 -22 149 -65 q61.5 -43 94.5 -105 q33 -62 33 -142 q0 -69 -24 -127 q-24 -58 -66 -104 q-42 -46 -99 -80.5 q-57 -34.5 -124 -57.5 q62 -11 126.5 -35.5 q64.5 -24.5 117.5 -66.5 q53 -42 87 -105 q34 -63 34 -151 q0 -125 -46.5 -210 q-46.5 -85 -124 -136.5 q-77.5 -51.5 -177 -73.5 q-99.5 -22 -205.5 -22 Z" /><glyph glyph-name="four" unicode="4" d="M893 381 l0 -125 q0 -48 13.5 -77 q13.5 -29 36 -44.5 q22.5 -15.5 53.5 -20.5 q31 -5 65 -5 l26 0 l0 -109 l-718 0 l0 109 l57 0 q35 0 65.5 5 q30.5 5 53 20.5 q22.5 15.5 36 44.5 q13.5 29 13.5 77 l0 125 l-567 0 l0 125 l581 956 l285 0 l0 -946 l213 0 l0 -135 l-213 0 ZM594 874 q0 90 3 194 q3 104 11 200 q-10 -24 -32 -66 q-22 -42 -47 -86.5 q-25 -44.5 -48 -84 q-23 -39.5 -35 -58.5 l-276 -457 l424 0 l0 358 Z" /><glyph glyph-name="five" unicode="5" d="M471 123 q51 0 96.5 16 q45.5 16 80 53.5 q34.5 37.5 55 101 q20.5 63.5 20.5 157.5 q0 153 -73 228 q-73 75 -206 75 q-39 0 -70.5 -3 q-31.5 -3 -58.5 -8.5 q-27 -5.5 -51 -12 q-24 -6.5 -47 -13.5 l-94 37 l65 708 l775 0 l10 -372 l-117 0 l-16 69 q-5 18 -11 32.5 q-6 14.5 -16.5 24.5 q-10.5 10 -26.5 15.5 q-16 5.5 -41 5.5 l-426 0 q0 -1 -1.5 -17.5 q-1.5 -16.5 -3.5 -43.5 q-2 -27 -5 -61 q-3 -34 -6 -69 l-16 -188 q16 6 41.5 11.5 q25.5 5.5 55.5 10 q30 4.5 63.5 7 q33.5 2.5 64.5 2.5 q119 0 215.5 -27.5 q96.5 -27.5 165 -82 q68.5 -54.5 106 -136.5 q37.5 -82 37.5 -192 q0 -133 -48.5 -223.5 q-48.5 -90.5 -125.5 -145.5 q-77 -55 -172 -78.5 q-95 -23.5 -188 -23.5 q-115 0 -195 20.5 q-80 20.5 -130 55 q-50 34.5 -72.5 79 q-22.5 44.5 -22.5 92.5 q0 72 44.5 107 q44.5 35 119.5 35 q0 -44 11.5 -88 q11.5 -44 38 -79 q26.5 -35 69.5 -57 q43 -22 106 -22 Z" /><glyph glyph-name="six" unicode="6" d="M657 1362 q-60 0 -108.5 -36 q-48.5 -36 -84 -105 q-35.5 -69 -56.5 -169.5 q-21 -100.5 -27 -230.5 q21 14 48 27.5 q27 13.5 61.5 24.5 q34.5 11 78 17.5 q43.5 6.5 95.5 6.5 q93 0 168.5 -29 q75.5 -29 129 -83.5 q53.5 -54.5 82.5 -133 q29 -78.5 29 -178.5 q0 -110 -30 -200.5 q-30 -90.5 -89.5 -155.5 q-59.5 -65 -148 -101 q-88.5 -36 -205.5 -36 q-114 0 -207.5 41.5 q-93.5 41.5 -160 127.5 q-66.5 86 -103.5 217 q-37 131 -37 310 q0 169 35.5 316 q35.5 147 108 256 q72.5 109 182.5 172 q110 63 258 63 q99 0 168 -19 q69 -19 112 -50.5 q43 -31.5 62.5 -72 q19.5 -40.5 19.5 -84.5 q0 -31 -13 -60 q-13 -29 -42 -51 q-29 -22 -75.5 -35 q-46.5 -13 -114.5 -13 q0 46 -6 93 q-6 47 -21 85 q-15 38 -41.5 62 q-26.5 24 -67.5 24 ZM588 772 q-28 0 -59 -8.5 q-31 -8.5 -59.5 -22.5 q-28.5 -14 -52 -31.5 q-23.5 -17.5 -36.5 -35.5 q1 -147 18.5 -253 q17.5 -106 48 -174 q30.5 -68 71 -100 q40.5 -32 87.5 -32 q79 0 124.5 80.5 q45.5 80.5 45.5 257.5 q0 166 -50 242.5 q-50 76.5 -138 76.5 Z" /><glyph glyph-name="seven" unicode="7" d="M338 0 l545 1239 l-539 0 q-56 0 -84.5 -26.5 q-28.5 -26.5 -34.5 -77.5 l-12 -103 l-123 0 l10 430 l977 0 l0 -100 l-565 -1362 l-174 0 Z" /><glyph glyph-name="eight" unicode="8" d="M61 373 q0 66 21.5 119 q21.5 53 61.5 96.5 q40 43.5 95.5 80 q55.5 36.5 122.5 70.5 q-122 71 -187.5 161 q-65.5 90 -65.5 210 q0 71 24.5 138.5 q24.5 67.5 80.5 119.5 q56 52 147 83.5 q91 31.5 223 31.5 q108 0 189.5 -27 q81.5 -27 136.5 -75 q55 -48 82.5 -113.5 q27.5 -65.5 27.5 -143.5 q0 -61 -19.5 -108 q-19.5 -47 -55.5 -85.5 q-36 -38.5 -87 -71.5 q-51 -33 -115 -66 q92 -45 157 -90.5 q65 -45.5 105.5 -95 q40.5 -49.5 59 -104 q18.5 -54.5 18.5 -116.5 q0 -97 -35.5 -172.5 q-35.5 -75.5 -103 -127.5 q-67.5 -52 -164.5 -79.5 q-97 -27.5 -221 -27.5 q-128 0 -222 31 q-94 31 -155.5 84 q-61.5 53 -91 125 q-29.5 72 -29.5 153 ZM569 96 q53 0 95.5 19 q42.5 19 72.5 53 q30 34 46 81 q16 47 16 103 q0 50 -17 90.5 q-17 40.5 -53.5 76 q-36.5 35.5 -93 69 q-56.5 33.5 -135.5 69.5 q-34 -22 -64 -50.5 q-30 -28.5 -51.5 -64 q-21.5 -35.5 -34 -79.5 q-12.5 -44 -12.5 -98 q0 -60 16.5 -109.5 q16.5 -49.5 47 -85 q30.5 -35.5 73 -55 q42.5 -19.5 94.5 -19.5 ZM762 1128 q0 44 -12.5 86.5 q-12.5 42.5 -36.5 75.5 q-24 33 -59.5 53.5 q-35.5 20.5 -82.5 20.5 q-42 0 -74.5 -17.5 q-32.5 -17.5 -54.5 -48 q-22 -30.5 -33.5 -72.5 q-11.5 -42 -11.5 -91 q0 -53 14.5 -93 q14.5 -40 42.5 -72 q28 -32 69 -57.5 q41 -25.5 95 -50.5 q38 22 65 47 q27 25 44.5 57 q17.5 32 26 71.5 q8.5 39.5 8.5 90.5 Z" /><glyph glyph-name="nine" unicode="9" d="M465 -20 q-93 0 -157 19.5 q-64 19.5 -104 52 q-40 32.5 -57.5 74 q-17.5 41.5 -17.5 85.5 q0 45 24 75.5 q24 30.5 76 41.5 q15 -46 36 -86 q21 -40 50.5 -69.5 q29.5 -29.5 69 -46.5 q39.5 -17 90.5 -17 q138 0 212.5 149 q74.5 149 84.5 444 q-24 -30 -53.5 -55 q-29.5 -25 -66.5 -44 q-37 -19 -81.5 -29.5 q-44.5 -10.5 -97.5 -10.5 q-88 0 -161.5 27.5 q-73.5 27.5 -127 81 q-53.5 53.5 -83 133 q-29.5 79.5 -29.5 182.5 q0 111 32 202 q32 91 92.5 156.5 q60.5 65.5 147.5 101.5 q87 36 197 36 q111 0 205 -40 q94 -40 162.5 -124 q68.5 -84 106.5 -214 q38 -130 38 -310 q0 -169 -33 -317.5 q-33 -148.5 -103.5 -259 q-70.5 -110.5 -182 -174.5 q-111.5 -64 -269.5 -64 ZM561 711 q74 0 127 37.5 q53 37.5 84 99.5 q-1 131 -17.5 225 q-16.5 94 -45 154.5 q-28.5 60.5 -68.5 89.5 q-40 29 -88 29 q-88 0 -136 -86.5 q-48 -86.5 -48 -260.5 q0 -142 48 -215 q48 -73 144 -73 Z" /><glyph glyph-name="colon" unicode=":" d="M143 147 q0 47 13 78.5 q13 31.5 35.5 50.5 q22.5 19 53.5 27 q31 8 66 8 q34 0 64.5 -8 q30.5 -8 53.5 -27 q23 -19 36.5 -50.5 q13.5 -31.5 13.5 -78.5 q0 -46 -13.5 -77 q-13.5 -31 -36.5 -50 q-23 -19 -53.5 -27.5 q-30.5 -8.5 -64.5 -8.5 q-35 0 -66 8.5 q-31 8.5 -53.5 27.5 q-22.5 19 -35.5 50 q-13 31 -13 77 ZM143 952 q0 47 13 78.5 q13 31.5 35.5 50.5 q22.5 19 53.5 27 q31 8 66 8 q34 0 64.5 -8 q30.5 -8 53.5 -27 q23 -19 36.5 -50.5 q13.5 -31.5 13.5 -78.5 q0 -46 -13.5 -77.5 q-13.5 -31.5 -36.5 -50.5 q-23 -19 -53.5 -27.5 q-30.5 -8.5 -64.5 -8.5 q-35 0 -66 8.5 q-31 8.5 -53.5 27.5 q-22.5 19 -35.5 50.5 q-13 31.5 -13 77.5 Z" /><glyph glyph-name="semicolon" unicode=";" d="M459 86 q0 -65 -20 -126 q-20 -61 -64 -113 q-44 -52 -113.5 -93.5 q-69.5 -41.5 -169.5 -68.5 l0 106 q45 16 78.5 32 q33.5 16 56 34.5 q22.5 18.5 34 41 q11.5 22.5 11.5 52.5 q0 19 -11 31.5 q-11 12.5 -27.5 23.5 q-16.5 11 -36 22.5 q-19.5 11.5 -36 29.5 q-16.5 18 -27.5 44.5 q-11 26.5 -11 67.5 q0 69 42 105 q42 36 105 36 q87 0 138 -60 q51 -60 51 -165 ZM143 952 q0 47 13 78.5 q13 31.5 35.5 50.5 q22.5 19 53.5 27 q31 8 66 8 q34 0 64.5 -8 q30.5 -8 53.5 -27 q23 -19 36.5 -50.5 q13.5 -31.5 13.5 -78.5 q0 -46 -13.5 -77.5 q-13.5 -31.5 -36.5 -50.5 q-23 -19 -53.5 -27.5 q-30.5 -8.5 -64.5 -8.5 q-35 0 -66 8.5 q-31 8.5 -53.5 27.5 q-22.5 19 -35.5 50.5 q-13 31.5 -13 77.5 Z" /><glyph glyph-name="less" unicode="&lt;" d="M133 690 l0 84 l879 479 l0 -161 l-660 -361 l660 -356 l0 -162 l-879 477 Z" /><glyph glyph-name="equal" unicode="=" d="M1016 604 l0 -143 l-887 0 l0 143 l887 0 ZM1016 1001 l0 -143 l-887 0 l0 143 l887 0 Z" /><glyph glyph-name="greater" unicode="&gt;" d="M133 213 l0 162 l660 356 l-660 361 l0 161 l879 -479 l0 -84 l-879 -477 Z" /><glyph glyph-name="question" unicode="?" d="M1014 1106 q0 -82 -25.5 -147 q-25.5 -65 -76.5 -119 q-51 -54 -127.5 -99.5 q-76.5 -45.5 -178.5 -87.5 l-41 -186 l-125 0 l-41 252 q88 35 144 82.5 q56 47.5 88.5 102 q32.5 54.5 44.5 114.5 q12 60 12 121 q0 49 -9 89.5 q-9 40.5 -28.5 70 q-19.5 29.5 -50 45.5 q-30.5 16 -72.5 16 q-46 0 -77 -21 q-31 -21 -50 -56 q-19 -35 -27.5 -82 q-8.5 -47 -8.5 -99 q-63 0 -116 9 q-53 9 -91.5 26.5 q-38.5 17.5 -60 44.5 q-21.5 27 -21.5 63 q0 50 26 93.5 q26 43.5 79.5 75.5 q53.5 32 135.5 50.5 q82 18.5 195 18.5 q108 0 200 -25.5 q92 -25.5 159 -74 q67 -48.5 105 -118.5 q38 -70 38 -159 ZM332 147 q0 47 13 78.5 q13 31.5 35.5 50.5 q22.5 19 53.5 27 q31 8 66 8 q34 0 64.5 -8 q30.5 -8 53.5 -27 q23 -19 36.5 -50.5 q13.5 -31.5 13.5 -78.5 q0 -46 -13.5 -77 q-13.5 -31 -36.5 -50 q-23 -19 -53.5 -27.5 q-30.5 -8.5 -64.5 -8.5 q-35 0 -66 8.5 q-31 8.5 -53.5 27.5 q-22.5 19 -35.5 50 q-13 31 -13 77 Z" /><glyph glyph-name="at" unicode="@" d="M1806 803 q0 -153 -37 -273 q-37 -120 -97 -202.5 q-60 -82.5 -135.5 -126 q-75.5 -43.5 -152.5 -43.5 q-91 0 -154 44.5 q-63 44.5 -97 147.5 l-13 0 q-21 -40 -48 -75 q-27 -35 -61 -61 q-34 -26 -76.5 -41 q-42.5 -15 -96.5 -15 q-64 0 -122.5 21 q-58.5 21 -103 64 q-44.5 43 -70.5 109 q-26 66 -26 156 q0 55 13 119 q13 64 41.5 127.5 q28.5 63.5 72 123 q43.5 59.5 105 105 q61.5 45.5 141 73 q79.5 27.5 178.5 27.5 q71 0 122 -18 q51 -18 83 -43 l86 43 l49 0 l-86 -512 q-2 -12 -4.5 -31 q-2.5 -19 -4.5 -39 q-2 -20 -3.5 -38.5 q-1.5 -18.5 -1.5 -30.5 q0 -42 9 -69 q9 -27 23 -42.5 q14 -15.5 31.5 -21 q17.5 -5.5 34.5 -5.5 q41 0 82.5 34 q41.5 34 75.5 99.5 q34 65.5 55.5 162.5 q21.5 97 21.5 223 q0 140 -42.5 245.5 q-42.5 105.5 -118 176 q-75.5 70.5 -180 106 q-104.5 35.5 -228.5 35.5 q-97 0 -191.5 -27 q-94.5 -27 -180 -79 q-85.5 -52 -157.5 -127.5 q-72 -75.5 -125 -172 q-53 -96.5 -82.5 -213.5 q-29.5 -117 -29.5 -252 q0 -181 54 -309 q54 -128 146.5 -209 q92.5 -81 216 -118 q123.5 -37 261.5 -37 q83 0 162 15 q79 15 150 39 q71 24 132 55 q61 31 109 63 l49 -78 q-54 -41 -122.5 -77 q-68.5 -36 -149 -63 q-80.5 -27 -171 -43 q-90.5 -16 -188.5 -16 q-117 0 -225 21.5 q-108 21.5 -202.5 65.5 q-94.5 44 -172.5 109.5 q-78 65.5 -133.5 153.5 q-55.5 88 -86 198 q-30.5 110 -30.5 243 q0 137 33.5 262 q33.5 125 95 231.5 q61.5 106.5 149.5 193 q88 86.5 197 148 q109 61.5 236.5 94.5 q127.5 33 269.5 33 q178 0 313 -51 q135 -51 225.5 -139.5 q90.5 -88.5 136.5 -209 q46 -120.5 46 -259.5 ZM768 487 q0 -102 36 -156.5 q36 -54.5 95 -54.5 q44 0 75.5 21 q31.5 21 53 55.5 q21.5 34.5 35.5 77.5 q14 43 22 88 l82 418 q-6 14 -17.5 24.5 q-11.5 10.5 -26.5 18 q-15 7.5 -31.5 11 q-16.5 3.5 -32.5 3.5 q-52 0 -93.5 -26 q-41.5 -26 -74 -68.5 q-32.5 -42.5 -55.5 -97 q-23 -54.5 -38.5 -110.5 q-15.5 -56 -22.5 -109.5 q-7 -53.5 -7 -94.5 Z" /><glyph glyph-name="A" unicode="a" d="M446 481 l-59 -176 q-8 -25 -16.5 -58.5 q-8.5 -33.5 -8.5 -58.5 q0 -20 8 -35 q8 -15 21 -24.5 q13 -9.5 29.5 -14.5 q16.5 -5 34.5 -5 l86 0 l0 -109 l-533 0 l0 109 l25 0 q27 0 49.5 6 q22.5 6 42 22.5 q19.5 16.5 37 45.5 q17.5 29 35.5 75 l444 1204 l281 0 l428 -1206 q15 -43 31.5 -71.5 q16.5 -28.5 36 -45 q19.5 -16.5 41.5 -23.5 q22 -7 46 -7 l37 0 l0 -109 l-676 0 l0 109 l80 0 q15 0 31 4.5 q16 4.5 28.5 14 q12.5 9.5 20.5 24.5 q8 15 8 36 q0 25 -6 48 q-6 23 -12 40 l-72 205 l-498 0 ZM795 942 q-11 35 -22.5 73.5 q-11.5 38.5 -23 78.5 q-11.5 40 -22 79.5 q-10.5 39.5 -18.5 75.5 q-9 -31 -21 -68 q-12 -37 -25.5 -76 q-13.5 -39 -27 -78 q-13.5 -39 -25.5 -75 l-121 -346 l414 0 l-108 336 Z" /><glyph glyph-name="B" unicode="b" d="M1241 1090 q0 -68 -18.5 -118.5 q-18.5 -50.5 -52.5 -87 q-34 -36.5 -81.5 -62.5 q-47.5 -26 -105.5 -44 l0 -10 q71 -18 129.5 -49.5 q58.5 -31.5 101 -77 q42.5 -45.5 66 -105.5 q23.5 -60 23.5 -135 q0 -202 -147 -301.5 q-147 -99.5 -439 -99.5 l-660 0 l0 109 l84 0 q23 0 42.5 4.5 q19.5 4.5 33.5 18.5 q14 14 22.5 40 q8.5 26 8.5 70 l0 981 q0 41 -8.5 66.5 q-8.5 25.5 -23 39.5 q-14.5 14 -34 19.5 q-19.5 5.5 -41.5 5.5 l-84 0 l0 108 l598 0 q292 0 439 -90 q147 -90 147 -282 ZM571 125 l136 0 q68 0 116 15 q48 15 78 48.5 q30 33.5 43.5 87.5 q13.5 54 13.5 132 q0 75 -12 130.5 q-12 55.5 -41 91.5 q-29 36 -76 54 q-47 18 -118 18 l-140 0 l0 -577 ZM571 827 l78 0 q72 0 119.5 15 q47.5 15 76 46.5 q28.5 31.5 40.5 81.5 q12 50 12 120 q0 70 -13.5 117 q-13.5 47 -43.5 76 q-30 29 -78 41.5 q-48 12.5 -117 12.5 l-74 0 l0 -510 Z" /><glyph glyph-name="C" unicode="c" d="M870 143 q75 0 133.5 17.5 q58.5 17.5 104.5 45.5 q46 28 80.5 63 q34.5 35 60.5 69 q16 -12 25.5 -37 q9.5 -25 9.5 -51 q0 -43 -23 -90.5 q-23 -47.5 -77 -87.5 q-54 -40 -143 -66 q-89 -26 -220 -26 q-178 0 -311 54 q-133 54 -221 153 q-88 99 -132 238 q-44 139 -44 308 q0 166 45 304 q45 138 133.5 237 q88.5 99 221 154 q132.5 55 306.5 55 q118 0 205.5 -18.5 q87.5 -18.5 145.5 -50.5 q58 -32 87 -75.5 q29 -43.5 29 -93.5 q0 -38 -16.5 -70.5 q-16.5 -32.5 -49 -56.5 q-32.5 -24 -80.5 -37.5 q-48 -13.5 -110 -13.5 q0 51 -11 101.5 q-11 50.5 -37.5 91.5 q-26.5 41 -69.5 66.5 q-43 25.5 -107 25.5 q-97 0 -164 -41 q-67 -41 -107.5 -120 q-40.5 -79 -58.5 -194.5 q-18 -115.5 -18 -263.5 q0 -148 22 -259 q22 -111 71 -184.5 q49 -73.5 127.5 -110 q78.5 -36.5 192.5 -36.5 Z" /><glyph glyph-name="D" unicode="d" d="M1458 758 q0 -168 -46 -307.5 q-46 -139.5 -137.5 -239.5 q-91.5 -100 -227 -155.5 q-135.5 -55.5 -314.5 -55.5 l-676 0 l0 109 l86 0 q23 0 42 4.5 q19 4.5 33 18.5 q14 14 22 40 q8 26 8 70 l0 987 q0 41 -8 65.5 q-8 24.5 -22.5 37.5 q-14.5 13 -33.5 17.5 q-19 4.5 -41 4.5 l-86 0 l0 108 l676 0 q170 0 304.5 -44.5 q134.5 -44.5 228 -133 q93.5 -88.5 143 -220.5 q49.5 -132 49.5 -306 ZM1112 758 q0 293 -107.5 436 q-107.5 143 -316.5 143 l-117 0 l0 -1210 l115 0 q105 0 185 43.5 q80 43.5 133.5 125.5 q53.5 82 80.5 198.5 q27 116.5 27 263.5 Z" /><glyph glyph-name="E" unicode="e" d="M573 125 l410 0 q31 0 53 11.5 q22 11.5 38 32.5 q16 21 25.5 49.5 q9.5 28.5 14.5 62.5 l16 96 l142 0 l-15 -377 l-1200 0 l0 109 l86 0 q22 0 41 4 q19 4 33.5 16.5 q14.5 12.5 22.5 37 q8 24.5 8 64.5 l0 990 q0 44 -8 70 q-8 26 -22 40 q-14 14 -33 18.5 q-19 4.5 -42 4.5 l-86 0 l0 108 l1137 0 l8 -377 l-143 0 l-10 97 q-8 75 -38 115 q-30 40 -93 40 l-345 0 l0 -512 l486 0 l0 -123 l-486 0 l0 -577 Z" /><glyph glyph-name="F" unicode="f" d="M1059 1085 l-10 99 q-10 81 -49.5 117 q-39.5 36 -102.5 36 l-326 0 l0 -559 l486 0 l0 -121 l-486 0 l0 -415 q0 -44 8.5 -70 q8.5 -26 22.5 -40 q14 -14 34 -18.5 q20 -4.5 42 -4.5 l127 0 l0 -109 l-748 0 l0 109 l86 0 q22 0 41 4 q19 4 33.5 16.5 q14.5 12.5 22.5 37 q8 24.5 8 64.5 l0 998 q0 41 -8 65.5 q-8 24.5 -22.5 37.5 q-14.5 13 -33.5 17.5 q-19 4.5 -41 4.5 l-86 0 l0 108 l1135 0 l10 -377 l-143 0 Z" /><glyph glyph-name="G" unicode="g" d="M866 -20 q-190 0 -331.5 54 q-141.5 54 -235.5 153 q-94 99 -140 238 q-46 139 -46 308 q0 166 49 304 q49 138 145 237 q96 99 239 154 q143 55 331 55 q128 0 223.5 -18.5 q95.5 -18.5 160 -50.5 q64.5 -32 96.5 -75.5 q32 -43.5 32 -93.5 q0 -36 -17 -67.5 q-17 -31.5 -51 -55.5 q-34 -24 -83 -37.5 q-49 -13.5 -114 -13.5 q0 62 -15 114 q-15 52 -46.5 89 q-31.5 37 -79.5 57.5 q-48 20.5 -113 20.5 q-112 0 -190.5 -41 q-78.5 -41 -128 -120 q-49.5 -79 -72 -194.5 q-22.5 -115.5 -22.5 -263.5 q0 -148 23.5 -262.5 q23.5 -114.5 76 -192.5 q52.5 -78 136 -118.5 q83.5 -40.5 204.5 -40.5 q38 0 76 3 q38 3 74 11 l0 301 q0 82 -37 114 q-37 32 -109 32 l-27 0 l0 108 l644 0 l0 -108 l-27 0 q-31 0 -54 -7.5 q-23 -7.5 -38 -25.5 q-15 -18 -22 -47.5 q-7 -29.5 -7 -73.5 l0 -336 q-120 -55 -242 -82.5 q-122 -27.5 -262 -27.5 Z" /><glyph glyph-name="H" unicode="h" d="M913 0 l0 109 l88 0 q22 0 41 4.5 q19 4.5 33.5 18.5 q14.5 14 22.5 40 q8 26 8 70 l0 458 l-535 0 l0 -458 q0 -44 8.5 -70 q8.5 -26 22.5 -40 q14 -14 33 -18.5 q19 -4.5 41 -4.5 l88 0 l0 -109 l-707 0 l0 109 l86 0 q22 0 41 4.5 q19 4.5 33.5 18.5 q14.5 14 22.5 40 q8 26 8 70 l0 986 q0 41 -8.5 65.5 q-8.5 24.5 -23 37.5 q-14.5 13 -33.5 17.5 q-19 4.5 -40 4.5 l-86 0 l0 109 l707 0 l0 -109 l-88 0 q-22 0 -41 -4.5 q-19 -4.5 -33 -18.5 q-14 -14 -22.5 -40 q-8.5 -26 -8.5 -70 l0 -395 l535 0 l0 395 q0 44 -8 70 q-8 26 -22.5 40 q-14.5 14 -33.5 18.5 q-19 4.5 -41 4.5 l-88 0 l0 109 l707 0 l0 -109 l-86 0 q-21 0 -40 -4.5 q-19 -4.5 -33.5 -18.5 q-14.5 -14 -22.5 -40 q-8 -26 -8 -70 l0 -989 q0 -40 8.5 -64.5 q8.5 -24.5 23 -37 q14.5 -12.5 33 -16.5 q18.5 -4 39.5 -4 l86 0 l0 -109 l-707 0 Z" /><glyph glyph-name="I" unicode="i" d="M57 0 l0 109 l86 0 q23 0 42 4.5 q19 4.5 33 18.5 q14 14 22 40 q8 26 8 70 l0 978 q0 44 -8 70 q-8 26 -22 40 q-14 14 -33 18.5 q-19 4.5 -42 4.5 l-86 0 l0 109 l707 0 l0 -109 l-86 0 q-22 0 -41.5 -4.5 q-19.5 -4.5 -33.5 -18.5 q-14 -14 -22 -40 q-8 -26 -8 -70 l0 -978 q0 -44 8 -70 q8 -26 22 -40 q14 -14 33.5 -18.5 q19.5 -4.5 41.5 -4.5 l86 0 l0 -109 l-707 0 Z" /><glyph glyph-name="J" unicode="j" d="M731 1354 l-86 0 q-22 0 -41.5 -4.5 q-19.5 -4.5 -33.5 -18.5 q-14 -14 -22.5 -40 q-8.5 -26 -8.5 -70 l0 -1225 q0 -93 -21 -165 q-21 -72 -58 -126.5 q-37 -54.5 -88.5 -92 q-51.5 -37.5 -112 -60.5 q-60.5 -23 -128 -33.5 q-67.5 -10.5 -137.5 -10.5 l-74 0 l0 119 l37 0 q49 0 95.5 18.5 q46.5 18.5 82.5 61.5 q36 43 58 113.5 q22 70.5 22 173.5 l0 1235 q0 41 -8 65.5 q-8 24.5 -22.5 37.5 q-14.5 13 -33.5 17.5 q-19 4.5 -40 4.5 l-86 0 l0 108 l706 0 l0 -108 Z" /><glyph glyph-name="K" unicode="k" d="M889 1090 q33 35 55.5 63.5 q22.5 28.5 36 53 q13.5 24.5 19.5 46.5 q6 22 6 43 q0 34 -26 47 q-26 13 -89 13 l0 106 l555 0 l0 -106 q-42 0 -79.5 -13 q-37.5 -13 -73.5 -37 q-36 -24 -71 -57 q-35 -33 -71 -73 l-270 -297 l381 -605 q30 -48 57.5 -79.5 q27.5 -31.5 55.5 -50.5 q28 -19 57 -27 q29 -8 63 -8 l8 0 l0 -109 l-110 0 q-78 0 -137 5 q-59 5 -103.5 15 q-44.5 10 -76.5 25.5 q-32 15.5 -56 36.5 q-24 21 -43.5 47.5 q-19.5 26.5 -38.5 58.5 l-276 471 l-91 -71 l0 -346 q0 -44 8.5 -70 q8.5 -26 22.5 -40 q14 -14 34 -18.5 q20 -4.5 42 -4.5 l86 0 l0 -109 l-707 0 l0 109 l86 0 q22 0 41 4 q19 4 33.5 16.5 q14.5 12.5 22.5 37 q8 24.5 8 64.5 l0 998 q0 41 -8 65.5 q-8 24.5 -22.5 37.5 q-14.5 13 -33.5 17.5 q-19 4.5 -41 4.5 l-86 0 l0 108 l707 0 l0 -108 l-86 0 q-22 0 -42 -4.5 q-20 -4.5 -34 -18.5 q-14 -14 -22.5 -40 q-8.5 -26 -8.5 -70 l0 -478 l318 347 Z" /><glyph glyph-name="L" unicode="l" d="M57 0 l0 109 l86 0 q23 0 42 4.5 q19 4.5 33 18.5 q14 14 22 40 q8 26 8 70 l0 979 q0 44 -8 70 q-8 26 -22 40 q-14 14 -33 18.5 q-19 4.5 -42 4.5 l-86 0 l0 108 l707 0 l0 -108 l-86 0 q-21 0 -40.5 -4.5 q-19.5 -4.5 -33.5 -17.5 q-14 -13 -22.5 -37.5 q-8.5 -24.5 -8.5 -65.5 l0 -1104 l381 0 q72 0 112 45.5 q40 45.5 58 132.5 l33 154 l115 0 l-15 -457 l-1200 0 Z" /><glyph glyph-name="M" unicode="m" d="M1237 0 l0 109 l20 0 q32 0 56.5 4 q24.5 4 40.5 16 q16 12 24 34.5 q8 22.5 8 59.5 l0 1037 l-413 -1260 l-139 0 l-433 1260 l0 -1018 q0 -44 10.5 -70 q10.5 -26 30 -40 q19.5 -14 47.5 -18.5 q28 -4.5 64 -4.5 l12 0 l0 -109 l-508 0 l0 109 l86 0 q22 0 41 4 q19 4 33.5 16.5 q14.5 12.5 22.5 37 q8 24.5 8 64.5 l0 998 q0 41 -8 65.5 q-8 24.5 -22.5 37.5 q-14.5 13 -33.5 17.5 q-19 4.5 -41 4.5 l-86 0 l0 108 l590 0 l340 -989 l326 989 l579 0 l0 -108 l-86 0 q-22 0 -41 -4.5 q-19 -4.5 -33 -18.5 q-14 -14 -22 -40 q-8 -26 -8 -70 l0 -979 q0 -44 8 -70 q8 -26 22 -40 q14 -14 33 -18.5 q19 -4.5 41 -4.5 l86 0 l0 -109 l-655 0 Z" /><glyph glyph-name="N" unicode="n" d="M1200 0 l-799 1128 l0 -886 q0 -44 8.5 -70 q8.5 -26 22.5 -40 q14 -14 33.5 -18.5 q19.5 -4.5 40.5 -4.5 l86 0 l0 -109 l-535 0 l0 109 l86 0 q22 0 41 4.5 q19 4.5 33.5 18.5 q14.5 14 22.5 40 q8 26 8 70 l0 987 q0 41 -8.5 65.5 q-8.5 24.5 -23 37.5 q-14.5 13 -33.5 17.5 q-19 4.5 -40 4.5 l-86 0 l0 108 l455 0 l723 -1022 l0 789 q0 41 -8.5 65.5 q-8.5 24.5 -23 37.5 q-14.5 13 -33.5 17.5 q-19 4.5 -40 4.5 l-86 0 l0 108 l535 0 l0 -108 l-86 0 q-21 0 -40 -4.5 q-19 -4.5 -33.5 -18.5 q-14.5 -14 -22.5 -40 q-8 -26 -8 -70 l0 -1221 l-189 0 Z" /><glyph glyph-name="O" unicode="o" d="M1499 733 q0 -169 -45.5 -308 q-45.5 -139 -134 -238 q-88.5 -99 -217 -153 q-128.5 -54 -295.5 -54 q-175 0 -305.5 54 q-130.5 54 -216.5 153 q-86 99 -129 238.5 q-43 139.5 -43 309.5 q0 170 43 308.5 q43 138.5 129.5 236.5 q86.5 98 217 151.5 q130.5 53.5 306.5 53.5 q166 0 294.5 -53.5 q128.5 -53.5 216.5 -152 q88 -98.5 133.5 -237 q45.5 -138.5 45.5 -309.5 ZM457 733 q0 -147 19 -262 q19 -115 61 -194.5 q42 -79.5 108.5 -121.5 q66.5 -42 161.5 -42 q96 0 162.5 42 q66.5 42 107.5 121.5 q41 79.5 59.5 194.5 q18.5 115 18.5 262 q0 147 -18.5 262 q-18.5 115 -59.5 194.5 q-41 79.5 -107 121 q-66 41.5 -161 41.5 q-96 0 -163 -41.5 q-67 -41.5 -109 -121 q-42 -79.5 -61 -194.5 q-19 -115 -19 -262 Z" /><glyph glyph-name="P" unicode="p" d="M1245 1028 q0 -92 -32 -177 q-32 -85 -104 -150 q-72 -65 -187 -103.5 q-115 -38.5 -281 -38.5 l-70 0 l0 -328 q0 -40 9 -64.5 q9 -24.5 24 -37 q15 -12.5 35 -16.5 q20 -4 41 -4 l125 0 l0 -109 l-748 0 l0 109 l86 0 q23 0 42 4.5 q19 4.5 33 18.5 q14 14 22 40 q8 26 8 70 l0 987 q0 41 -8 65.5 q-8 24.5 -22.5 37.5 q-14.5 13 -33.5 17.5 q-19 4.5 -41 4.5 l-86 0 l0 108 l629 0 q142 0 247 -30 q105 -30 174.5 -86.5 q69.5 -56.5 103.5 -136.5 q34 -80 34 -181 ZM571 678 l50 0 q76 0 129 19 q53 19 86.5 60 q33.5 41 49 106 q15.5 65 15.5 157 q0 82 -13.5 142.5 q-13.5 60.5 -43 100 q-29.5 39.5 -77 59 q-47.5 19.5 -116.5 19.5 l-80 0 l0 -663 Z" /><glyph glyph-name="Q" unicode="q" d="M1499 733 q0 -144 -32.5 -265.5 q-32.5 -121.5 -95.5 -215.5 q-63 -94 -156 -158.5 q-93 -64.5 -214 -93.5 q9 -113 37 -185.5 q28 -72.5 68.5 -114 q40.5 -41.5 89.5 -57.5 q49 -16 100 -16 l33 0 l0 -119 l-147 0 q-92 0 -181.5 27 q-89.5 27 -162 85.5 q-72.5 58.5 -121 150 q-48.5 91.5 -58.5 221.5 q-138 21 -240.5 83.5 q-102.5 62.5 -170.5 158.5 q-68 96 -101.5 223 q-33.5 127 -33.5 278 q0 170 43 308.5 q43 138.5 129.5 236.5 q86.5 98 217 151.5 q130.5 53.5 306.5 53.5 q166 0 294.5 -53.5 q128.5 -53.5 216.5 -152 q88 -98.5 133.5 -237 q45.5 -138.5 45.5 -309.5 ZM457 733 q0 -147 19 -262 q19 -115 61 -194.5 q42 -79.5 108.5 -121.5 q66.5 -42 161.5 -42 q96 0 162.5 42 q66.5 42 107.5 121.5 q41 79.5 59.5 194.5 q18.5 115 18.5 262 q0 147 -18.5 262 q-18.5 115 -59.5 194.5 q-41 79.5 -107 121 q-66 41.5 -161 41.5 q-96 0 -163 -41.5 q-67 -41.5 -109 -121 q-42 -79.5 -61 -194.5 q-19 -115 -19 -262 Z" /><glyph glyph-name="R" unicode="r" d="M57 109 l86 0 q21 0 40 4 q19 4 33.5 16.5 q14.5 12.5 23 37 q8.5 24.5 8.5 64.5 l0 998 q0 41 -8.5 65.5 q-8.5 24.5 -23 37.5 q-14.5 13 -33.5 17.5 q-19 4.5 -40 4.5 l-86 0 l0 108 l660 0 q290 0 425.5 -97 q135.5 -97 135.5 -282 q0 -81 -24 -144 q-24 -63 -63.5 -110 q-39.5 -47 -89.5 -79.5 q-50 -32.5 -102 -53.5 l244 -420 q26 -44 50.5 -75.5 q24.5 -31.5 49 -52 q24.5 -20.5 50.5 -30 q26 -9.5 55 -9.5 l8 0 l0 -109 l-67 0 q-92 0 -160.5 7 q-68.5 7 -120 27.5 q-51.5 20.5 -89 56.5 q-37.5 36 -69.5 93 l-243 451 l-136 0 l0 -404 q0 -40 8.5 -64.5 q8.5 -24.5 23 -37 q14.5 -12.5 33.5 -16.5 q19 -4 40 -4 l88 0 l0 -109 l-707 0 l0 109 ZM571 754 l115 0 q71 0 118.5 19 q47.5 19 76 56.5 q28.5 37.5 41 94 q12.5 56.5 12.5 131.5 q0 78 -14 132 q-14 54 -44 88.5 q-30 34.5 -78 50 q-48 15.5 -116 15.5 l-111 0 l0 -587 Z" /><glyph glyph-name="S" unicode="s" d="M541 -20 q-138 0 -230 26 q-92 26 -147.5 67 q-55.5 41 -79 92 q-23.5 51 -23.5 101 q0 53 19.5 89 q19.5 36 52 59 q32.5 23 74 33 q41.5 10 86.5 10 q0 -88 21 -154.5 q21 -66.5 58 -111 q37 -44.5 88.5 -67 q51.5 -22.5 112.5 -22.5 q60 0 107 17 q47 17 80 47 q33 30 50 70.5 q17 40.5 17 87.5 q0 52 -21 92.5 q-21 40.5 -63.5 75 q-42.5 34.5 -107 66 q-64.5 31.5 -150.5 67.5 q-107 44 -180.5 90.5 q-73.5 46.5 -118.5 100.5 q-45 54 -64.5 117 q-19.5 63 -19.5 138 q0 94 38 170 q38 76 105 130 q67 54 159 83 q92 29 200 29 q113 0 195 -18.5 q82 -18.5 135.5 -50.5 q53.5 -32 79.5 -75.5 q26 -43.5 26 -93.5 q0 -36 -15.5 -67 q-15.5 -31 -47 -54 q-31.5 -23 -79 -36 q-47.5 -13 -110.5 -13 q0 43 -11.5 92.5 q-11.5 49.5 -37.5 92 q-26 42.5 -67.5 70.5 q-41.5 28 -100.5 28 q-41 0 -78 -12 q-37 -12 -64.5 -36 q-27.5 -24 -43.5 -59.5 q-16 -35.5 -16 -81.5 q0 -43 14 -81 q14 -38 51.5 -74.5 q37.5 -36.5 103 -73 q65.5 -36.5 169.5 -78.5 q105 -43 179 -88 q74 -45 121.5 -96.5 q47.5 -51.5 69 -113 q21.5 -61.5 21.5 -136.5 q0 -99 -39 -181.5 q-39 -82.5 -112 -141.5 q-73 -59 -175.5 -92 q-102.5 -33 -230.5 -33 Z" /><glyph glyph-name="T" unicode="t" d="M831 242 q0 -44 8 -70 q8 -26 22.5 -40 q14.5 -14 33.5 -18.5 q19 -4.5 41 -4.5 l86 0 l0 -109 l-707 0 l0 109 l86 0 q23 0 42 4.5 q19 4.5 33 18.5 q14 14 22 40 q8 26 8 70 l0 1095 l-164 0 q-46 0 -77 -10 q-31 -10 -50.5 -28.5 q-19.5 -18.5 -29 -45.5 q-9.5 -27 -13.5 -61 l-14 -127 l-138 0 l11 397 l1276 0 l10 -397 l-137 0 l-15 127 q-4 34 -13.5 61 q-9.5 27 -29 45.5 q-19.5 18.5 -50.5 28.5 q-31 10 -77 10 l-164 0 l0 -1095 Z" /><glyph glyph-name="U" unicode="u" d="M1497 1354 l-88 0 q-21 0 -40 -4.5 q-19 -4.5 -33.5 -18.5 q-14.5 -14 -22.5 -40 q-8 -26 -8 -70 l0 -799 q0 -103 -29.5 -185 q-29.5 -82 -92 -139 q-62.5 -57 -159.5 -87.5 q-97 -30.5 -231 -30.5 q-134 0 -239.5 25.5 q-105.5 25.5 -178.5 81.5 q-73 56 -111.5 144.5 q-38.5 88.5 -38.5 214.5 l0 783 q0 41 -8.5 65.5 q-8.5 24.5 -23 37.5 q-14.5 13 -33 17.5 q-18.5 4.5 -39.5 4.5 l-88 0 l0 108 l706 0 l0 -108 l-86 0 q-21 0 -40 -4.5 q-19 -4.5 -33.5 -18.5 q-14.5 -14 -22.5 -40 q-8 -26 -8 -70 l0 -791 q0 -86 21.5 -144.5 q21.5 -58.5 61.5 -94 q40 -35.5 96 -51 q56 -15.5 126 -15.5 q68 0 123 17.5 q55 17.5 93.5 54.5 q38.5 37 59.5 94 q21 57 21 135 l0 803 q0 41 -8 65.5 q-8 24.5 -22.5 37.5 q-14.5 13 -33.5 17.5 q-19 4.5 -40 4.5 l-86 0 l0 108 l536 0 l0 -108 Z" /><glyph glyph-name="V" unicode="v" d="M1430 1354 l-99 0 q-14 0 -25 -6 q-11 -6 -22 -22.5 q-11 -16.5 -23 -45.5 q-12 -29 -28 -76 l-418 -1204 l-205 0 l-436 1255 q-10 29 -25.5 48.5 q-15.5 19.5 -33 30.5 q-17.5 11 -35.5 15.5 q-18 4.5 -33 4.5 l-47 0 l0 108 l676 0 l0 -108 l-94 0 q-15 0 -29 -3.5 q-14 -3.5 -25.5 -11.5 q-11.5 -8 -18.5 -21 q-7 -13 -7 -32 q0 -20 6 -45.5 q6 -25.5 12 -42.5 l209 -631 q8 -23 16.5 -54 q8.5 -31 16.5 -65 q8 -34 14.5 -67.5 q6.5 -33.5 9.5 -61.5 q3 17 10.5 46.5 q7.5 29.5 17.5 64 q10 34.5 20.5 69 q10.5 34.5 19.5 62.5 l211 623 q4 11 8.5 24.5 q4.5 13.5 8 27.5 q3.5 14 6 27 q2.5 13 2.5 21 q0 34 -22.5 52 q-22.5 18 -59.5 18 l-107 0 l0 108 l529 0 l0 -108 Z" /><glyph glyph-name="W" unicode="w" d="M1237 1448 l283 -782 q18 -48 33.5 -97.5 q15.5 -49.5 28.5 -94.5 q13 -45 23 -83 q10 -38 15 -65 q8 37 17 82 q9 45 19.5 94.5 q10.5 49.5 22 101.5 q11.5 52 23.5 101 l108 442 q3 12 6.5 28 q3.5 16 6.5 31.5 q3 15.5 4.5 29 q1.5 13.5 1.5 21.5 q0 53 -31.5 75 q-31.5 22 -99.5 22 l-47 0 l0 108 l534 0 l0 -108 l-39 0 q-30 0 -53 -6 q-23 -6 -41 -23.5 q-18 -17.5 -32.5 -48.5 q-14.5 -31 -28.5 -82 l-318 -1194 l-233 0 l-344 961 l-295 -961 l-254 0 l-375 1245 q-9 32 -22 53 q-13 21 -30.5 33.5 q-17.5 12.5 -40 17.5 q-22.5 5 -52.5 5 l-27 0 l0 108 l684 0 l0 -108 l-47 0 q-62 0 -92.5 -24 q-30.5 -24 -30.5 -75 q0 -17 6.5 -49.5 q6.5 -32.5 14.5 -60.5 l137 -473 q11 -39 23.5 -84.5 q12.5 -45.5 23.5 -92 q11 -46.5 20 -89.5 q9 -43 13 -76 q14 66 30.5 123.5 q16.5 57.5 34.5 117.5 l270 877 l150 0 Z" /><glyph glyph-name="X" unicode="x" d="M1071 1294 q0 18 -9 30 q-9 12 -24.5 18.5 q-15.5 6.5 -36.5 9 q-21 2.5 -45 2.5 l-6 0 l0 108 l480 0 l0 -108 l-19 0 q-30 0 -54 -7.5 q-24 -7.5 -47.5 -25 q-23.5 -17.5 -47.5 -45.5 q-24 -28 -54 -70 l-297 -405 l377 -584 q40 -63 83 -85.5 q43 -22.5 81 -22.5 l27 0 l0 -109 l-676 0 l0 109 l10 0 q123 0 123 67 q0 12 -2 23 q-2 11 -9.5 26 q-7.5 15 -20.5 37 q-13 22 -36 55 l-188 285 l-221 -299 q-19 -26 -36 -59.5 q-17 -33.5 -17 -65.5 q0 -34 28 -51.5 q28 -17.5 96 -17.5 l7 0 l0 -109 l-517 0 l0 109 l13 0 q37 0 65 10 q28 10 52.5 28.5 q24.5 18.5 47.5 45 q23 26.5 48 59.5 l358 467 l-338 526 q-17 27 -33.5 47.5 q-16.5 20.5 -37 34 q-20.5 13.5 -45.5 20.5 q-25 7 -60 7 l-27 0 l0 108 l678 0 l0 -108 l-6 0 q-35 0 -58.5 -4.5 q-23.5 -4.5 -37.5 -13 q-14 -8.5 -19.5 -19.5 q-5.5 -11 -5.5 -23 q0 -21 15.5 -53 q15.5 -32 38.5 -67 l170 -254 l178 249 q18 28 36.5 62.5 q18.5 34.5 18.5 62.5 Z" /><glyph glyph-name="Y" unicode="y" d="M336 0 l0 109 l96 0 q25 0 46.5 3 q21.5 3 37.5 15.5 q16 12.5 25.5 37.5 q9.5 25 9.5 68 l0 285 l-379 727 q-15 30 -28.5 51 q-13.5 21 -29.5 33.5 q-16 12.5 -36.5 18.5 q-20.5 6 -50.5 6 l-27 0 l0 108 l686 0 l0 -108 l-35 0 q-62 0 -92.5 -25 q-30.5 -25 -30.5 -67 q0 -26 9.5 -56.5 q9.5 -30.5 21.5 -56.5 l152 -301 q32 -65 52.5 -115 q20.5 -50 37.5 -98 q21 54 48.5 117.5 q27.5 63.5 61.5 132.5 l119 245 q22 45 28.5 75.5 q6.5 30.5 6.5 47.5 q0 53 -33.5 77 q-33.5 24 -101.5 24 l-47 0 l0 108 l536 0 l0 -108 l-39 0 q-26 0 -44.5 -7 q-18.5 -7 -35 -25 q-16.5 -18 -34 -49 q-17.5 -31 -41.5 -79 l-348 -678 l0 -280 q0 -45 9 -70 q9 -25 24.5 -38 q15.5 -13 36 -16 q20.5 -3 44.5 -3 l101 0 l0 -109 l-756 0 Z" /><glyph glyph-name="Z" unicode="z" d="M1229 1358 l-770 -1233 l442 0 q63 0 103 17.5 q40 17.5 63.5 46.5 q23.5 29 34 65.5 q10.5 36.5 14.5 75.5 l10 92 l148 0 l-10 -422 l-1178 0 l0 102 l768 1235 l-403 0 q-48 0 -79 -13 q-31 -13 -49.5 -37.5 q-18.5 -24.5 -27 -59 q-8.5 -34.5 -12.5 -76.5 l-11 -111 l-147 0 l10 422 l1094 0 l0 -104 Z" /><glyph glyph-name="bracketleft" unicode="[" d="M205 -262 l0 1818 l567 0 l0 -108 l-88 0 q-34 0 -65 -5 q-31 -5 -53.5 -20.5 q-22.5 -15.5 -36 -44.5 q-13.5 -29 -13.5 -78 l0 -1306 q0 -48 13.5 -77.5 q13.5 -29.5 36 -45 q22.5 -15.5 53.5 -20.5 q31 -5 65 -5 l88 0 l0 -108 l-567 0 Z" /><glyph glyph-name="backslash" unicode="\" d="M0 1556 l145 0 l445 -1804 l-148 0 l-442 1804 Z" /><glyph glyph-name="bracketright" unicode="]" d="M643 1556 l0 -1818 l-567 0 l0 108 l88 0 q35 0 65.5 5 q30.5 5 53 20.5 q22.5 15.5 36 45 q13.5 29.5 13.5 77.5 l0 1306 q0 49 -13.5 78 q-13.5 29 -36 44.5 q-22.5 15.5 -53 20.5 q-30.5 5 -65.5 5 l-88 0 l0 108 l567 0 Z" /><glyph glyph-name="asciicircum" unicode="^" d="M526 1462 l88 0 l435 -925 l-160 0 l-320 702 l-315 -702 l-160 0 l432 925 Z" /><glyph glyph-name="underscore" unicode="_" d="M950 -291 l-960 0 l0 121 l960 0 l0 -121 Z" /><glyph glyph-name="grave" unicode="`" d="M713 1241 q-48 28 -106.5 69.5 q-58.5 41.5 -113 85.5 q-54.5 44 -98.5 84.5 q-44 40.5 -63 67.5 l0 21 l321 0 q16 -34 41 -74.5 q25 -40.5 52.5 -81 q27.5 -40.5 55.5 -78.5 q28 -38 50 -67 l0 -27 l-139 0 Z" /><glyph glyph-name="a" unicode="a" d="M410 305 q0 -88 28 -132 q28 -44 88 -44 q44 0 79.5 18.5 q35.5 18.5 61 52.5 q25.5 34 39 82.5 q13.5 48.5 13.5 108.5 l0 154 l-92 -6 q-61 -3 -103 -19.5 q-42 -16.5 -67 -45.5 q-25 -29 -36 -71 q-11 -42 -11 -98 ZM592 999 q-39 0 -65.5 -16.5 q-26.5 -16.5 -42.5 -46 q-16 -29.5 -22.5 -70 q-6.5 -40.5 -6.5 -88.5 q-138 0 -207.5 31 q-69.5 31 -69.5 106 q0 56 33.5 96 q33.5 40 91 65 q57.5 25 134 36.5 q76.5 11.5 163.5 11.5 q108 0 188.5 -18.5 q80.5 -18.5 134 -59.5 q53.5 -41 80.5 -107.5 q27 -66.5 27 -162.5 l0 -522 q0 -42 6.5 -70 q6.5 -28 20.5 -44.5 q14 -16.5 38 -23.5 q24 -7 58 -7 l8 0 l0 -109 l-381 0 l-43 141 l-18 0 q-34 -41 -64 -71.5 q-30 -30.5 -64 -50.5 q-34 -20 -76.5 -29.5 q-42.5 -9.5 -100.5 -9.5 q-68 0 -126.5 20 q-58.5 20 -102 61.5 q-43.5 41.5 -68.5 104 q-25 62.5 -25 147.5 q0 167 114.5 247 q114.5 80 344.5 87 l168 6 l0 113 q0 51 -4 94 q-4 43 -17 74 q-13 31 -38.5 48 q-25.5 17 -67.5 17 Z" /><glyph glyph-name="b" unicode="b" d="M1233 553 q0 -149 -27.5 -257 q-27.5 -108 -80.5 -178.5 q-53 -70.5 -131.5 -104 q-78.5 -33.5 -180.5 -33.5 q-59 0 -107 13 q-48 13 -86.5 37 q-38.5 24 -68 57 q-29.5 33 -51.5 73 l-19 0 l-57 -160 l-389 0 l0 109 l14 0 q29 0 57 5 q28 5 50 20 q22 15 35.5 43 q13.5 28 13.5 75 l0 1059 q0 44 -13 70.5 q-13 26.5 -35 41.5 q-22 15 -51.5 20 q-29.5 5 -62.5 5 l-8 0 l0 108 l481 0 l0 -350 q0 -32 -2.5 -75 q-2.5 -43 -5.5 -81 q-4 -45 -8 -92 l14 0 q44 76 117.5 120 q73.5 44 189.5 44 q100 0 176.5 -33.5 q76.5 -33.5 129 -103 q52.5 -69.5 79.5 -177 q27 -107.5 27 -255.5 ZM725 971 q-61 0 -101 -25.5 q-40 -25.5 -64 -77.5 q-24 -52 -34 -130.5 q-10 -78.5 -10 -184.5 q0 -101 10 -179.5 q10 -78.5 34 -132 q24 -53.5 65 -81 q41 -27.5 102 -27.5 q101 0 146 109 q45 109 45 313 q0 209 -45 312.5 q-45 103.5 -148 103.5 Z" /><glyph glyph-name="c" unicode="c" d="M604 -20 q-113 0 -206.5 29 q-93.5 29 -160.5 96 q-67 67 -104 175 q-37 108 -37 265 q0 166 38.5 277 q38.5 111 106 178 q67.5 67 159.5 95.5 q92 28.5 198 28.5 q99 0 175 -16.5 q76 -16.5 127 -45.5 q51 -29 77.5 -68.5 q26.5 -39.5 26.5 -84.5 q0 -33 -11.5 -64.5 q-11.5 -31.5 -41 -55.5 q-29.5 -24 -81 -39 q-51.5 -15 -131.5 -15 q0 53 -6.5 101 q-6.5 48 -21.5 84 q-15 36 -40.5 57.5 q-25.5 21.5 -64.5 21.5 q-45 0 -80.5 -21.5 q-35.5 -21.5 -61 -73.5 q-25.5 -52 -39 -139 q-13.5 -87 -13.5 -218 q0 -208 57 -311 q57 -103 186 -103 q53 0 99.5 12.5 q46.5 12.5 84.5 35 q38 22.5 66.5 53 q28.5 30.5 46.5 65.5 q25 -15 37 -40.5 q12 -25.5 12 -53.5 q0 -39 -23 -79 q-23 -40 -71.5 -72.5 q-48.5 -32.5 -123.5 -53 q-75 -20.5 -179 -20.5 Z" /><glyph glyph-name="d" unicode="d" d="M1122 252 q0 -47 14 -75 q14 -28 37.5 -43 q23.5 -15 54 -20 q30.5 -5 64.5 -5 l8 0 l0 -109 l-397 0 l-57 160 l-19 0 q-23 -42 -52.5 -75 q-29.5 -33 -68 -56.5 q-38.5 -23.5 -86.5 -36 q-48 -12.5 -108 -12.5 q-100 0 -178 33.5 q-78 33.5 -131.5 103 q-53.5 69.5 -81 176.5 q-27.5 107 -27.5 254 q0 148 27.5 256.5 q27.5 108.5 80.5 179 q53 70.5 130 105 q77 34.5 176 34.5 q58 0 104.5 -12.5 q46.5 -12.5 84 -34 q37.5 -21.5 66.5 -51.5 q29 -30 50 -66 l14 0 q-4 57 -8 107 q-1 21 -2.5 43 q-1.5 22 -3 41.5 q-1.5 19.5 -2 34.5 q-0.5 15 -0.5 24 l0 113 q0 42 -13.5 67.5 q-13.5 25.5 -36 38.5 q-22.5 13 -52.5 17 q-30 4 -64 4 l-16 0 l0 108 l493 0 l0 -1304 ZM600 133 q61 0 101.5 25.5 q40.5 25.5 65 77.5 q24.5 52 34.5 130.5 q10 78.5 10 184.5 q0 101 -10 179.5 q-10 78.5 -34.5 132 q-24.5 53.5 -65 81 q-40.5 27.5 -101.5 27.5 q-51 0 -87.5 -27.5 q-36.5 -27.5 -59 -81.5 q-22.5 -54 -33 -132.5 q-10.5 -78.5 -10.5 -180.5 q0 -209 43.5 -312.5 q43.5 -103.5 146.5 -103.5 Z" /><glyph glyph-name="e" unicode="e" d="M608 991 q-86 0 -136.5 -85 q-50.5 -85 -55.5 -249 l354 0 q0 78 -9 140 q-9 62 -28.5 105 q-19.5 43 -50 66 q-30.5 23 -74.5 23 ZM627 -20 q-130 0 -229.5 38 q-99.5 38 -166.5 110 q-67 72 -101 176.5 q-34 104.5 -34 238.5 q0 144 34 253 q34 109 99 182 q65 73 159.5 109.5 q94.5 36.5 215.5 36.5 q111 0 200 -31.5 q89 -31.5 151 -93.5 q62 -62 95 -154 q33 -92 33 -214 l0 -105 l-671 0 q3 -103 22.5 -177 q19.5 -74 54 -122 q34.5 -48 84 -71 q49.5 -23 113.5 -23 q53 0 98 12.5 q45 12.5 81.5 35 q36.5 22.5 64 53 q27.5 30.5 45.5 65.5 q55 -30 55 -100 q0 -44 -24 -83.5 q-24 -39.5 -74 -69.5 q-50 -30 -125.5 -48 q-75.5 -18 -179.5 -18 Z" /><glyph glyph-name="f" unicode="f" d="M39 0 l0 109 l45 0 q22 0 47.5 4.5 q25.5 4.5 47 18.5 q21.5 14 36 40 q14.5 26 14.5 70 l0 716 l-182 0 l0 140 l182 0 l0 76 q0 95 24.5 169.5 q24.5 74.5 76 126 q51.5 51.5 130.5 78.5 q79 27 187 27 q99 0 165 -11.5 q66 -11.5 105 -32 q39 -20.5 55.5 -47.5 q16.5 -27 16.5 -59 q0 -69 -62.5 -101 q-62.5 -32 -189.5 -32 q0 25 -5 54 q-5 29 -17 54 q-12 25 -31.5 41.5 q-19.5 16.5 -48.5 16.5 q-25 0 -43 -13.5 q-18 -13.5 -29.5 -43 q-11.5 -29.5 -16.5 -76.5 q-5 -47 -5 -115 l0 -112 l282 0 l0 -140 l-282 0 l0 -716 q0 -44 14.5 -70 q14.5 -26 36 -40 q21.5 -14 47 -18.5 q25.5 -4.5 47.5 -4.5 l96 0 l0 -109 l-743 0 Z" /><glyph glyph-name="g" unicode="g" d="M1137 1059 q0 -23 -7 -44.5 q-7 -21.5 -23.5 -37.5 q-16.5 -16 -45 -25.5 q-28.5 -9.5 -70.5 -9.5 q0 21 -6.5 37 q-6.5 16 -17.5 27 q-11 11 -25 16.5 q-14 5.5 -29 5.5 q-17 0 -36.5 -7 q-19.5 -7 -30.5 -15 q21 -23 39 -52.5 q18 -29.5 31.5 -63.5 q13.5 -34 21.5 -70.5 q8 -36.5 8 -74.5 q0 -77 -24.5 -142.5 q-24.5 -65.5 -75.5 -113.5 q-51 -48 -129 -75 q-78 -27 -185 -27 q-11 0 -28 0.5 q-17 0.5 -34 1 q-17 0.5 -32.5 2 q-15.5 1.5 -23.5 2.5 q-13 -7 -26.5 -17.5 q-13.5 -10.5 -24 -23.5 q-10.5 -13 -17 -29 q-6.5 -16 -6.5 -34 q0 -34 26.5 -50 q26.5 -16 69.5 -16 l248 0 q102 0 176 -21.5 q74 -21.5 122.5 -61.5 q48.5 -40 71.5 -98.5 q23 -58.5 23 -131.5 q0 -95 -36 -169.5 q-36 -74.5 -109.5 -126 q-73.5 -51.5 -185 -79 q-111.5 -27.5 -263.5 -27.5 q-242 0 -360.5 72.5 q-118.5 72.5 -118.5 212.5 q0 110 71 168.5 q71 58.5 206 69.5 q-28 11 -55 27 q-27 16 -48 38.5 q-21 22.5 -34 51.5 q-13 29 -13 65 q0 34 13.5 63 q13.5 29 37.5 55.5 q24 26.5 57.5 50 q33.5 23.5 73.5 46.5 q-45 16 -83.5 44.5 q-38.5 28.5 -66 68.5 q-27.5 40 -43.5 91 q-16 51 -16 113 q0 180 104.5 279.5 q104.5 99.5 323.5 99.5 q73 0 135.5 -18.5 q62.5 -18.5 108.5 -44.5 q17 18 37.5 38.5 q20.5 20.5 46.5 37.5 q26 17 58 28 q32 11 71 11 q37 0 64.5 -9.5 q27.5 -9.5 46 -25.5 q18.5 -16 28 -37 q9.5 -21 9.5 -45 ZM246 -203 q0 -85 61.5 -125.5 q61.5 -40.5 179.5 -40.5 q180 0 262 52 q82 52 82 153 q0 65 -41 91 q-41 26 -124 26 l-238 0 q-31 0 -63 -5.5 q-32 -5.5 -58.5 -22.5 q-26.5 -17 -43.5 -47.5 q-17 -30.5 -17 -80.5 ZM383 745 q0 -54 7.5 -97.5 q7.5 -43.5 24.5 -74.5 q17 -31 44 -48 q27 -17 67 -17 q41 0 68 16.5 q27 16.5 43 48 q16 31.5 22.5 76 q6.5 44.5 6.5 99.5 q0 57 -7 103.5 q-7 46.5 -23.5 79.5 q-16.5 33 -43.5 51.5 q-27 18.5 -68 18.5 q-40 0 -67 -19 q-27 -19 -43.5 -53 q-16.5 -34 -23.5 -81 q-7 -47 -7 -103 Z" /><glyph glyph-name="h" unicode="h" d="M858 0 l0 674 q0 66 -8.5 117.5 q-8.5 51.5 -28 86.5 q-19.5 35 -51 53.5 q-31.5 18.5 -76.5 18.5 q-51 0 -85 -26 q-34 -26 -54.5 -69.5 q-20.5 -43.5 -29.5 -101 q-9 -57.5 -9 -120.5 l0 -391 q0 -43 10.5 -69 q10.5 -26 29.5 -40.5 q19 -14.5 46.5 -19 q27.5 -4.5 61.5 -4.5 l6 0 l0 -109 l-629 0 l0 109 l4 0 q35 0 64 4.5 q29 4.5 50.5 19.5 q21.5 15 33.5 43 q12 28 12 74 l0 1073 q0 41 -14.5 65.5 q-14.5 24.5 -36.5 38 q-22 13.5 -47.5 17.5 q-25.5 4 -47.5 4 l-24 0 l0 108 l481 0 l0 -337 q0 -40 -2.5 -86 q-2.5 -46 -5.5 -85 q-4 -46 -8 -90 l18 0 q31 58 65.5 91 q34.5 33 73.5 49.5 q39 16.5 82.5 21 q43.5 4.5 91.5 4.5 q79 0 142 -23 q63 -23 106.5 -71 q43.5 -48 66.5 -122.5 q23 -74.5 23 -178.5 l0 -475 q0 -48 8.5 -76.5 q8.5 -28.5 25.5 -43.5 q17 -15 43 -20 q26 -5 61 -5 l6 0 l0 -109 l-455 0 Z" /><glyph glyph-name="i" unicode="i" d="M176 1430 q0 39 13.5 67 q13.5 28 37 45.5 q23.5 17.5 55 26 q31.5 8.5 68.5 8.5 q35 0 67 -8.5 q32 -8.5 56 -26 q24 -17.5 38.5 -45.5 q14.5 -28 14.5 -67 q0 -38 -14.5 -66 q-14.5 -28 -38.5 -46 q-24 -18 -56 -27 q-32 -9 -67 -9 q-37 0 -68.5 9 q-31.5 9 -55 27 q-23.5 18 -37 46 q-13.5 28 -13.5 66 ZM59 109 q23 0 48.5 4.5 q25.5 4.5 47 18.5 q21.5 14 36 40 q14.5 26 14.5 70 l0 622 q0 41 -14.5 65.5 q-14.5 24.5 -36.5 38 q-22 13.5 -47.5 17.5 q-25.5 4 -47.5 4 l-24 0 l0 109 l481 0 l0 -856 q0 -44 14.5 -70 q14.5 -26 36 -40 q21.5 -14 47.5 -18.5 q26 -4.5 48 -4.5 l24 0 l0 -109 l-651 0 l0 109 l24 0 Z" /><glyph glyph-name="j" unicode="j" d="M516 1098 l0 -1114 q0 -138 -38.5 -229.5 q-38.5 -91.5 -107 -146 q-68.5 -54.5 -163 -77.5 q-94.5 -23 -207.5 -23 l-41 0 l0 127 l14 0 q56 0 99.5 18 q43.5 18 73 60 q29.5 42 44.5 112 q15 70 15 175 l0 854 q0 44 -13 70.5 q-13 26.5 -35.5 41 q-22.5 14.5 -52.5 19 q-30 4.5 -63 4.5 l-6 0 l0 109 l481 0 ZM178 1430 q0 39 13.5 67 q13.5 28 37 45.5 q23.5 17.5 55 26 q31.5 8.5 68.5 8.5 q35 0 67 -8.5 q32 -8.5 56 -26 q24 -17.5 38.5 -45.5 q14.5 -28 14.5 -67 q0 -38 -14.5 -66 q-14.5 -28 -38.5 -46 q-24 -18 -56 -27 q-32 -9 -67 -9 q-37 0 -68.5 9 q-31.5 9 -55 27 q-23.5 18 -37 46 q-13.5 28 -13.5 66 Z" /><glyph glyph-name="k" unicode="k" d="M1303 0 l-29 0 q-112 0 -188 5 q-76 5 -131 23 q-55 18 -95 54.5 q-40 36.5 -80 99.5 l-182 287 l-82 -61 l0 -166 q0 -44 14.5 -70 q14.5 -26 36 -40 q21.5 -14 47.5 -18.5 q26 -4.5 48 -4.5 l24 0 l0 -109 l-651 0 l0 109 l24 0 q23 0 48.5 4.5 q25.5 4.5 47 18.5 q21.5 14 36 40 q14.5 26 14.5 70 l0 1081 q0 41 -14.5 65.5 q-14.5 24.5 -36.5 38 q-22 13.5 -47.5 17.5 q-25.5 4 -47.5 4 l-24 0 l0 108 l481 0 l0 -790 q0 -28 -1.5 -64.5 q-1.5 -36.5 -3.5 -69.5 q-3 -39 -5 -79 l258 289 q34 38 44.5 60.5 q10.5 22.5 10.5 37.5 q0 26 -27.5 40.5 q-27.5 14.5 -78.5 14.5 l0 103 l516 0 l0 -103 q-71 0 -139.5 -41.5 q-68.5 -41.5 -149.5 -132.5 l-129 -147 l272 -406 q54 -81 109 -120 q55 -39 104 -39 l7 0 l0 -109 Z" /><glyph glyph-name="l" unicode="l" d="M59 109 q23 0 48.5 4.5 q25.5 4.5 47 18.5 q21.5 14 36 40 q14.5 26 14.5 70 l0 1081 q0 41 -14.5 65.5 q-14.5 24.5 -36.5 38 q-22 13.5 -47.5 17.5 q-25.5 4 -47.5 4 l-24 0 l0 108 l481 0 l0 -1314 q0 -44 14.5 -70 q14.5 -26 36 -40 q21.5 -14 47.5 -18.5 q26 -4.5 48 -4.5 l24 0 l0 -109 l-651 0 l0 109 l24 0 Z" /><glyph glyph-name="m" unicode="m" d="M858 0 l0 674 q0 66 -8.5 117.5 q-8.5 51.5 -28 86.5 q-19.5 35 -51 53.5 q-31.5 18.5 -76.5 18.5 q-51 0 -85 -26 q-34 -26 -54.5 -69.5 q-20.5 -43.5 -29.5 -101 q-9 -57.5 -9 -120.5 l0 -391 q0 -43 10.5 -69 q10.5 -26 29.5 -40.5 q19 -14.5 46.5 -19 q27.5 -4.5 61.5 -4.5 l6 0 l0 -109 l-629 0 l0 109 l4 0 q35 0 64 4.5 q29 4.5 50.5 19.5 q21.5 15 33.5 43 q12 28 12 74 l0 612 q0 43 -10.5 69 q-10.5 26 -30 40.5 q-19.5 14.5 -46.5 19 q-27 4.5 -61 4.5 l-6 0 l0 103 l430 0 l27 -146 l10 0 q31 58 65.5 92 q34.5 34 73.5 52 q39 18 82.5 23 q43.5 5 91.5 5 q113 0 193 -40.5 q80 -40.5 117 -131.5 l18 0 q31 58 67.5 92 q36.5 34 78 52 q41.5 18 87 23 q45.5 5 93.5 5 q79 0 142 -23 q63 -23 106.5 -71 q43.5 -48 66.5 -122.5 q23 -74.5 23 -178.5 l0 -475 q0 -48 8.5 -76.5 q8.5 -28.5 25.5 -43.5 q17 -15 43 -20 q26 -5 60 -5 l6 0 l0 -109 l-455 0 l0 674 q0 132 -36.5 204 q-36.5 72 -126.5 72 q-48 0 -82 -23.5 q-34 -23.5 -55.5 -63.5 q-21.5 -40 -31.5 -93.5 q-10 -53.5 -10 -112.5 l0 -403 q0 -48 8.5 -76.5 q8.5 -28.5 25.5 -43.5 q17 -15 43 -20 q26 -5 61 -5 l6 0 l0 -109 l-455 0 Z" /><glyph glyph-name="n" unicode="n" d="M858 0 l0 674 q0 66 -8.5 117.5 q-8.5 51.5 -28 86.5 q-19.5 35 -51 53.5 q-31.5 18.5 -76.5 18.5 q-51 0 -85 -26 q-34 -26 -54.5 -69.5 q-20.5 -43.5 -29.5 -101 q-9 -57.5 -9 -120.5 l0 -391 q0 -43 10.5 -69 q10.5 -26 29.5 -40.5 q19 -14.5 46.5 -19 q27.5 -4.5 61.5 -4.5 l6 0 l0 -109 l-629 0 l0 109 l4 0 q35 0 64 4.5 q29 4.5 50.5 19.5 q21.5 15 33.5 43 q12 28 12 74 l0 606 q0 43 -10.5 69 q-10.5 26 -30 40.5 q-19.5 14.5 -46.5 19 q-27 4.5 -61 4.5 l-6 0 l0 109 l430 0 l27 -146 l10 0 q31 58 65.5 92 q34.5 34 73.5 52 q39 18 82.5 23 q43.5 5 91.5 5 q79 0 142 -23 q63 -23 106.5 -71 q43.5 -48 66.5 -122.5 q23 -74.5 23 -178.5 l0 -475 q0 -48 8.5 -76.5 q8.5 -28.5 25.5 -43.5 q17 -15 43 -20 q26 -5 61 -5 l6 0 l0 -109 l-455 0 Z" /><glyph glyph-name="o" unicode="o" d="M1159 553 q0 -289 -135.5 -431 q-135.5 -142 -398.5 -142 q-123 0 -221 35.5 q-98 35.5 -166.5 106.5 q-68.5 71 -105 179 q-36.5 108 -36.5 252 q0 289 135.5 430 q135.5 141 399.5 141 q123 0 220.5 -35 q97.5 -35 166 -106 q68.5 -71 105 -178.5 q36.5 -107.5 36.5 -251.5 ZM414 553 q0 -109 11.5 -192 q11.5 -83 37 -139 q25.5 -56 66.5 -84.5 q41 -28.5 100 -28.5 q59 0 99.5 28.5 q40.5 28.5 66 84.5 q25.5 56 36.5 139 q11 83 11 192 q0 110 -11.5 192.5 q-11.5 82.5 -37 137.5 q-25.5 55 -66.5 82.5 q-41 27.5 -100 27.5 q-59 0 -100 -27.5 q-41 -27.5 -66 -82.5 q-25 -55 -36 -137.5 q-11 -82.5 -11 -192.5 Z" /><glyph glyph-name="p" unicode="p" d="M51 -383 q23 0 48.5 4.5 q25.5 4.5 47 18.5 q21.5 14 36 40 q14.5 26 14.5 70 l0 1096 q0 47 -10.5 75 q-10.5 28 -29 43 q-18.5 15 -44 20 q-25.5 5 -54.5 5 l-14 0 l0 109 l401 0 l37 -160 l9 0 q22 40 51.5 73 q29.5 33 68 57 q38.5 24 86.5 37 q48 13 107 13 q102 0 180.5 -33.5 q78.5 -33.5 131.5 -104 q53 -70.5 80.5 -178.5 q27.5 -108 27.5 -257 q0 -148 -27 -255.5 q-27 -107.5 -79.5 -177.5 q-52.5 -70 -129 -103.5 q-76.5 -33.5 -176.5 -33.5 q-117 0 -190 44.5 q-73 44.5 -117 119.5 l-14 0 q4 -47 8 -92 q3 -38 5.5 -81 q2.5 -43 2.5 -75 l0 -141 q0 -44 14.5 -70 q14.5 -26 36 -40 q21.5 -14 47 -18.5 q25.5 -4.5 47.5 -4.5 l45 0 l0 -109 l-671 0 l0 109 l24 0 ZM717 127 q103 0 147.5 103.5 q44.5 103.5 44.5 312.5 q0 204 -44.5 313 q-44.5 109 -145.5 109 q-61 0 -102 -27.5 q-41 -27.5 -65 -81 q-24 -53.5 -34 -132 q-10 -78.5 -10 -179.5 q0 -106 10 -184.5 q10 -78.5 34 -130.5 q24 -52 64 -77.5 q40 -25.5 101 -25.5 Z" /><glyph glyph-name="q" unicode="q" d="M608 -492 l0 109 l37 0 q34 0 64 4 q30 4 52.5 17 q22.5 13 36 38.5 q13.5 25.5 13.5 67.5 l0 150 q0 9 0.5 24 q0.5 15 2 34.5 q1.5 19.5 3 41 q1.5 21.5 2.5 42.5 q4 49 8 107 l-14 0 q-21 -35 -50 -65 q-29 -30 -66.5 -51.5 q-37.5 -21.5 -84 -34 q-46.5 -12.5 -104.5 -12.5 q-99 0 -176 33.5 q-77 33.5 -130 103.5 q-53 70 -80.5 178 q-27.5 108 -27.5 256 q0 147 27.5 254 q27.5 107 81 176.5 q53.5 69.5 131.5 103 q78 33.5 178 33.5 q60 0 108 -12.5 q48 -12.5 86.5 -36 q38.5 -23.5 68 -56.5 q29.5 -33 52.5 -75 l19 0 l41 160 l413 0 l0 -109 l-8 0 q-34 0 -64.5 -5 q-30.5 -5 -54 -20 q-23.5 -15 -37.5 -43 q-14 -28 -14 -75 l0 -1102 q0 -42 13.5 -67.5 q13.5 -25.5 36 -38.5 q22.5 -13 52.5 -17 q30 -4 64 -4 l37 0 l0 -109 l-717 0 ZM600 965 q-103 0 -146.5 -103.5 q-43.5 -103.5 -43.5 -312.5 q0 -205 43.5 -311.5 q43.5 -106.5 146.5 -106.5 q61 0 101.5 27 q40.5 27 65 79.5 q24.5 52.5 34.5 130 q10 77.5 10 179.5 q0 106 -10 184.5 q-10 78.5 -34.5 130.5 q-24.5 52 -65 77.5 q-40.5 25.5 -101.5 25.5 Z" /><glyph glyph-name="r" unicode="r" d="M725 0 l-684 0 l0 109 l6 0 q35 0 64 5 q29 5 50 20.5 q21 15.5 32.5 44.5 q11.5 29 11.5 77 l0 594 q0 45 -10.5 72.5 q-10.5 27.5 -30 42.5 q-19.5 15 -46.5 19.5 q-27 4.5 -61 4.5 l-6 0 l0 109 l414 0 l41 -160 l10 0 q20 46 44 80.5 q24 34.5 57.5 57.5 q33.5 23 79 34.5 q45.5 11.5 108.5 11.5 q121 0 178 -42.5 q57 -42.5 57 -123.5 q0 -94 -68 -146 q-68 -52 -192 -52 q0 42 -4.5 74 q-4.5 32 -16 53 q-11.5 21 -31 32 q-19.5 11 -48.5 11 q-36 0 -62 -18 q-26 -18 -44 -46.5 q-18 -28.5 -29.5 -64.5 q-11.5 -36 -18 -72.5 q-6.5 -36.5 -8.5 -69.5 q-2 -33 -2 -57 l0 -354 q0 -45 11 -72.5 q11 -27.5 30 -41.5 q19 -14 45.5 -18.5 q26.5 -4.5 56.5 -4.5 l66 0 l0 -109 Z" /><glyph glyph-name="s" unicode="s" d="M473 -20 q-111 0 -189.5 18 q-78.5 18 -128 50 q-49.5 32 -72 76 q-22.5 44 -22.5 95 q0 50 19.5 80.5 q19.5 30.5 49 47.5 q29.5 17 62.5 22.5 q33 5.5 60 5.5 q0 -64 16 -115 q16 -51 45 -86.5 q29 -35.5 69.5 -54.5 q40.5 -19 90.5 -19 q53 0 91.5 11 q38.5 11 63 30.5 q24.5 19.5 36.5 45 q12 25.5 12 53.5 q0 34 -12.5 60.5 q-12.5 26.5 -41.5 50 q-29 23.5 -77.5 46 q-48.5 22.5 -120.5 47.5 q-83 29 -146.5 61.5 q-63.5 32.5 -107 74 q-43.5 41.5 -66 95 q-22.5 53.5 -22.5 122.5 q0 82 31.5 143 q31.5 61 89.5 101.5 q58 40.5 139 60.5 q81 20 180 20 q97 0 165 -16.5 q68 -16.5 111 -43.5 q43 -27 63 -61 q20 -34 20 -69 q0 -69 -48.5 -105 q-48.5 -36 -160.5 -36 q0 102 -45.5 158.5 q-45.5 56.5 -134.5 56.5 q-33 0 -63.5 -8 q-30.5 -8 -53 -24 q-22.5 -16 -36 -39.5 q-13.5 -23.5 -13.5 -55.5 q0 -33 12.5 -59 q12.5 -26 44 -49.5 q31.5 -23.5 85.5 -47.5 q54 -24 138 -53 q68 -24 125.5 -54.5 q57.5 -30.5 99 -70 q41.5 -39.5 64.5 -90 q23 -50.5 23 -115.5 q0 -85 -29.5 -152 q-29.5 -67 -86.5 -113 q-57 -46 -140 -70.5 q-83 -24.5 -189 -24.5 Z" /><glyph glyph-name="t" unicode="t" d="M643 145 q40 0 76.5 5.5 q36.5 5.5 68.5 13.5 l0 -133 q-16 -8 -43.5 -17 q-27.5 -9 -64 -16.5 q-36.5 -7.5 -82.5 -12.5 q-46 -5 -100 -5 q-69 0 -125 16.5 q-56 16.5 -95 55 q-39 38.5 -60 100 q-21 61.5 -21 151.5 l0 655 l-154 0 l0 105 q66 0 118 26 q52 26 83 60 q63 66 94 203 l170 0 l0 -254 l262 0 l0 -140 l-262 0 l0 -634 q0 -93 31.5 -136 q31.5 -43 103.5 -43 Z" /><glyph glyph-name="u" unicode="u" d="M907 0 l-45 145 l-10 0 q-31 -53 -67 -85.5 q-36 -32.5 -77 -50 q-41 -17.5 -86.5 -23.5 q-45.5 -6 -93.5 -6 q-160 0 -245.5 99 q-85.5 99 -85.5 306 l0 459 q0 45 -8 73 q-8 28 -25 44 q-17 16 -43.5 22 q-26.5 6 -63.5 6 l-4 0 l0 109 l455 0 l0 -656 q0 -66 7.5 -119 q7.5 -53 25.5 -90.5 q18 -37.5 48 -58 q30 -20.5 75 -20.5 q49 0 84.5 21.5 q35.5 21.5 58 62 q22.5 40.5 33 98 q10.5 57.5 10.5 129.5 l0 393 q0 45 -12 71 q-12 26 -32 39.5 q-20 13.5 -47 17 q-27 3.5 -57 3.5 l-6 0 l0 109 l465 0 l0 -860 q0 -45 10.5 -70.5 q10.5 -25.5 28.5 -38.5 q18 -13 43 -16.5 q25 -3.5 55 -3.5 l17 0 l0 -109 l-408 0 Z" /><glyph glyph-name="v" unicode="v" d="M1241 989 l-41 0 q-21 0 -37.5 -5 q-16.5 -5 -32 -20.5 q-15.5 -15.5 -30.5 -45 q-15 -29.5 -33 -78.5 l-297 -840 l-270 0 l-336 891 q-11 29 -25.5 48 q-14.5 19 -34 30 q-19.5 11 -45 15.5 q-25.5 4.5 -59.5 4.5 l0 109 l635 0 l0 -109 l-86 0 q-31 0 -49.5 -16.5 q-18.5 -16.5 -18.5 -48.5 q0 -25 6.5 -49 q6.5 -24 12.5 -41 l137 -388 q25 -65 43.5 -131 q18.5 -66 28.5 -118 q5 24 14 56 q9 32 18 62.5 q9 30.5 16.5 55.5 q7.5 25 10.5 35 l139 411 q10 28 16.5 56.5 q6.5 28.5 6.5 56.5 q0 34 -22.5 46.5 q-22.5 12.5 -57.5 12.5 l-59 0 l0 109 l450 0 l0 -109 Z" /><glyph glyph-name="w" unicode="w" d="M1012 1087 l200 -604 q25 -74 36 -125.5 q11 -51.5 18 -89.5 l6 0 q5 26 9.5 49 q4.5 23 11 48 q6.5 25 14.5 54.5 q8 29.5 20 67.5 l90 299 q8 26 13.5 56 q5.5 30 5.5 47 q0 52 -33.5 76 q-33.5 24 -102.5 24 l-14 0 l0 109 l469 0 l0 -109 l-26 0 q-30 0 -52 -6 q-22 -6 -39 -23.5 q-17 -17.5 -32 -49 q-15 -31.5 -31 -81.5 l-264 -829 l-221 0 l-224 680 l-235 -680 l-223 0 l-263 881 q-11 32 -24 53 q-13 21 -30 33 q-17 12 -39 17 q-22 5 -52 5 l-6 0 l0 109 l600 0 l0 -109 l-27 0 q-62 0 -92.5 -17.5 q-30.5 -17.5 -30.5 -68.5 q0 -17 5.5 -41 q5.5 -24 11.5 -47 l76 -266 q10 -37 19 -76 q9 -39 17 -76 q8 -37 14.5 -70 q6.5 -33 10.5 -59 l6 0 q9 51 24.5 105.5 q15.5 54.5 41.5 130.5 l209 583 l133 0 Z" /><glyph glyph-name="x" unicode="x" d="M891 928 q0 37 -28.5 49 q-28.5 12 -76.5 12 l-6 0 l0 109 l473 0 l0 -109 l-18 0 q-30 0 -53.5 -5.5 q-23.5 -5.5 -47 -20 q-23.5 -14.5 -48.5 -40 q-25 -25.5 -58 -65.5 l-211 -258 l301 -383 q47 -59 86.5 -83.5 q39.5 -24.5 77.5 -24.5 l27 0 l0 -109 l-652 0 l0 109 l11 0 q123 0 123 67 q0 12 -3 24 q-3 12 -11 28 q-8 16 -23.5 37.5 q-15.5 21.5 -40.5 51.5 l-117 142 l-143 -178 q-19 -25 -31 -51 q-12 -26 -12 -52 q0 -34 29 -51.5 q29 -17.5 98 -17.5 l6 0 l0 -109 l-520 0 l0 109 l18 0 q37 0 65 6.5 q28 6.5 52.5 21.5 q24.5 15 49.5 40 q25 25 56 63 l258 311 l-258 330 q-43 54 -86 81 q-43 27 -90 27 l-27 0 l0 109 l644 0 l0 -109 l-7 0 q-35 0 -57.5 -4.5 q-22.5 -4.5 -35.5 -12.5 q-13 -8 -18 -19 q-5 -11 -5 -23 q0 -22 11 -42.5 q11 -20.5 36 -51.5 l114 -140 l97 117 q24 31 37.5 59 q13.5 28 13.5 56 Z" /><glyph glyph-name="y" unicode="y" d="M1186 1098 l0 -109 q-31 0 -54.5 -7 q-23.5 -7 -42.5 -24.5 q-19 -17.5 -35 -46 q-16 -28.5 -32 -71.5 q-36 -102 -75 -208 q-39 -106 -78.5 -212.5 q-39.5 -106.5 -79 -212 q-39.5 -105.5 -76.5 -207.5 q-36 -99 -68 -174 q-32 -75 -67.5 -130 q-35.5 -55 -78.5 -91 q-43 -36 -100 -57.5 q-57 -21.5 -132.5 -30.5 q-75.5 -9 -176.5 -9 l-35 0 l0 119 q107 0 182 26 q75 26 127 74 q52 48 85.5 115 q33.5 67 58.5 148 l-369 901 q-12 29 -27 46 q-15 17 -32 26 q-17 9 -37 11.5 q-20 2.5 -43 2.5 l0 121 l584 0 l0 -109 q-60 0 -94.5 -15.5 q-34.5 -15.5 -34.5 -60.5 q0 -17 7 -40.5 q7 -23.5 13 -38.5 q18 -43 37.5 -93.5 q19.5 -50.5 38 -101 q18.5 -50.5 35.5 -97.5 q17 -47 30 -83 q15 -39 25 -70.5 q10 -31.5 16.5 -57 q6.5 -25.5 10.5 -47 q4 -21.5 6 -42.5 q2 21 8 46.5 q6 25.5 13 49 q7 23.5 14 42 q7 18.5 10 26.5 l135 401 q4 10 7.5 23.5 q3.5 13.5 6.5 27.5 q3 14 4.5 27 q1.5 13 1.5 22 q0 47 -39 64.5 q-39 17.5 -110 17.5 l0 109 l461 0 Z" /><glyph glyph-name="z" unicode="z" d="M754 139 q31 0 52.5 9 q21.5 9 37 29 q15.5 20 26 51.5 q10.5 31.5 19.5 76.5 l12 66 l121 0 l-10 -371 l-975 0 l0 84 l604 874 l-299 0 q-23 0 -40 -6.5 q-17 -6.5 -30.5 -23 q-13.5 -16.5 -24.5 -44 q-11 -27.5 -22 -69.5 l-12 -49 l-123 0 l25 332 l884 0 l0 -88 l-606 -871 l361 0 Z" /><glyph glyph-name="braceleft" unicode="{" d="M649 -256 q-86 0 -151.5 21 q-65.5 21 -109.5 60.5 q-44 39.5 -66.5 95.5 q-22.5 56 -22.5 126 l0 350 q0 59 -18.5 95.5 q-18.5 36.5 -50.5 57.5 q-32 21 -75.5 29.5 q-43.5 8.5 -93.5 10.5 l0 125 q50 2 93.5 10 q43.5 8 75.5 29 q32 21 50.5 57.5 q18.5 36.5 18.5 93.5 l0 352 q0 144 88.5 221.5 q88.5 77.5 261.5 77.5 l195 0 l0 -108 l-80 0 q-44 0 -72 -13 q-28 -13 -44.5 -38 q-16.5 -25 -23 -62.5 q-6.5 -37.5 -6.5 -85.5 l0 -348 q0 -93 -53 -152.5 q-53 -59.5 -172 -86.5 l0 -17 q118 -29 171.5 -89 q53.5 -60 53.5 -153 l0 -350 q0 -48 6.5 -85.5 q6.5 -37.5 23 -63 q16.5 -25.5 44.5 -38.5 q28 -13 72 -13 l80 0 l0 -109 l-195 0 Z" /><glyph glyph-name="bar" unicode="|" d="M645 -492 l-147 0 l0 2048 l147 0 l0 -2048 Z" /><glyph glyph-name="braceright" unicode="}" d="M61 -256 l0 109 l80 0 q44 0 72 13 q28 13 44.5 38.5 q16.5 25.5 23 63 q6.5 37.5 6.5 85.5 l0 350 q0 93 53.5 153 q53.5 60 171.5 89 l0 17 q-119 27 -172 86.5 q-53 59.5 -53 152.5 l0 348 q0 48 -6.5 85.5 q-6.5 37.5 -23 62.5 q-16.5 25 -44.5 38 q-28 13 -72 13 l-80 0 l0 108 l195 0 q173 0 261.5 -77.5 q88.5 -77.5 88.5 -221.5 l0 -352 q0 -57 18.5 -93.5 q18.5 -36.5 50.5 -57.5 q32 -21 75.5 -29 q43.5 -8 93.5 -10 l0 -125 q-50 -2 -93.5 -10.5 q-43.5 -8.5 -75.5 -29.5 q-32 -21 -50.5 -57.5 q-18.5 -36.5 -18.5 -95.5 l0 -350 q0 -70 -22.5 -126 q-22.5 -56 -66.5 -95.5 q-44 -39.5 -109.5 -60.5 q-65.5 -21 -151.5 -21 l-195 0 Z" /><glyph glyph-name="asciitilde" unicode="~" d="M774 537 q-60 0 -113 29.5 q-53 29.5 -104 74.5 q-51 45 -99 89 q-48 44 -98 44 q-53 0 -84 -56.5 q-31 -56.5 -31 -180.5 l-151 0 q0 190 70.5 288.5 q70.5 98.5 204.5 98.5 q79 0 151 -51.5 q72 -51.5 142.5 -119 q70.5 -67.5 121.5 -67.5 q50 0 79 58 q29 58 34 180 l152 0 q-10 -210 -77.5 -298.5 q-67.5 -88.5 -197.5 -88.5 Z" /><glyph glyph-name="uni00A0" unicode="" d="" /><glyph glyph-name="exclamdown" unicode="" d="M569 -369 l-356 0 l121 996 l115 0 l120 -996 ZM557 946 q0 -47 -13 -78.5 q-13 -31.5 -35.5 -50.5 q-22.5 -19 -53.5 -27 q-31 -8 -66 -8 q-34 0 -64.5 8 q-30.5 8 -53.5 27 q-23 19 -36.5 50.5 q-13.5 31.5 -13.5 78.5 q0 46 13.5 77.5 q13.5 31.5 36.5 50.5 q23 19 53.5 27.5 q30.5 8.5 64.5 8.5 q35 0 66 -8.5 q31 -8.5 53.5 -27.5 q22.5 -19 35.5 -50.5 q13 -31.5 13 -77.5 Z" /><glyph glyph-name="cent" unicode="" d="M571 170 q-103 7 -186.5 41.5 q-83.5 34.5 -143 101.5 q-59.5 67 -92 170.5 q-32.5 103.5 -32.5 249.5 q0 153 34 259.5 q34 106.5 94.5 174.5 q60.5 68 144 102 q83.5 34 181.5 42 l0 151 l127 0 l0 -151 q88 -5 156 -23.5 q68 -18.5 114 -47 q46 -28.5 69.5 -65 q23.5 -36.5 23.5 -77.5 q0 -33 -11.5 -64.5 q-11.5 -31.5 -41 -55.5 q-29.5 -24 -80.5 -39 q-51 -15 -131 -15 q0 43 -5 84 q-5 41 -16.5 75 q-11.5 34 -30.5 58.5 q-19 24.5 -47 36.5 l0 -856 q52 1 97.5 14.5 q45.5 13.5 83 35 q37.5 21.5 66 51 q28.5 29.5 46.5 64.5 q26 -15 38.5 -40.5 q12.5 -25.5 12.5 -53.5 q0 -35 -20.5 -72 q-20.5 -37 -62.5 -68.5 q-42 -31.5 -107 -54 q-65 -22.5 -154 -28.5 l0 -170 l-127 0 l0 170 ZM430 735 q0 -158 33.5 -255 q33.5 -97 107.5 -134 l0 828 q-33 -15 -59 -46.5 q-26 -31.5 -44.5 -84 q-18.5 -52.5 -28 -128.5 q-9.5 -76 -9.5 -180 Z" /><glyph glyph-name="sterling" unicode="" d="M553 711 q7 -23 12.5 -42.5 q5.5 -19.5 9.5 -39 q4 -19.5 6.5 -40 q2.5 -20.5 2.5 -46.5 q0 -161 -185 -281 l7 -10 q6 2 18.5 5 q12.5 3 29 6 q16.5 3 35.5 5 q19 2 37 2 q21 0 40 -2.5 q19 -2.5 39.5 -8 q20.5 -5.5 45 -13 q24.5 -7.5 56.5 -17.5 q45 -14 81.5 -22 q36.5 -8 81.5 -8 q70 0 122.5 41.5 q52.5 41.5 92.5 109.5 l0 -229 q-40 -71 -98 -106 q-58 -35 -139 -35 q-31 0 -64.5 4 q-33.5 4 -65.5 10 q-32 6 -61.5 14 q-29.5 8 -52.5 17 q-50 17 -105.5 31 q-55.5 14 -97.5 14 q-35 0 -65.5 -4.5 q-30.5 -4.5 -58.5 -12.5 q-28 -8 -54.5 -19.5 q-26.5 -11.5 -54.5 -25.5 l-90 -47 l0 184 l65 41 q32 20 65 48 q33 28 60 66.5 q27 38.5 44.5 88 q17.5 49.5 17.5 111.5 q0 59 -12.5 107.5 q-12.5 48.5 -32.5 101.5 l-236 0 l0 125 l191 0 q-11 25 -22.5 57 q-11.5 32 -21.5 68 q-10 36 -16 75 q-6 39 -6 78 q0 180 117 275.5 q117 95.5 338 95.5 q110 0 187 -18.5 q77 -18.5 125.5 -50.5 q48.5 -32 70.5 -75.5 q22 -43.5 22 -93.5 q0 -72 -65 -119 q-65 -47 -191 -47 q0 47 -7 96.5 q-7 49.5 -25 90 q-18 40.5 -50 66.5 q-32 26 -82 26 q-77 0 -122.5 -58.5 q-45.5 -58.5 -45.5 -179.5 q0 -42 6.5 -82.5 q6.5 -40.5 16 -77.5 q9.5 -37 21.5 -69 q12 -32 24 -57 l363 0 l0 -125 l-324 2 Z" /><glyph glyph-name="currency" unicode="" d="M195 729 q0 59 16.5 113.5 q16.5 54.5 48.5 99.5 l-123 123 l103 102 l122 -123 q45 29 97 45.5 q52 16.5 110 16.5 q57 0 109.5 -16.5 q52.5 -16.5 97.5 -47.5 l127 127 l103 -104 l-125 -127 q31 -45 48 -97.5 q17 -52.5 17 -111.5 q0 -59 -16 -110.5 q-16 -51.5 -45 -96.5 l121 -121 l-103 -102 l-121 121 q-46 -31 -100 -48.5 q-54 -17.5 -113 -17.5 q-58 0 -112 16.5 q-54 16.5 -99 47.5 l-118 -119 l-105 104 l119 119 q-59 91 -59 207 ZM334 729 q0 -49 18.5 -92 q18.5 -43 50 -75.5 q31.5 -32.5 74.5 -51 q43 -18.5 92 -18.5 q51 0 94.5 18.5 q43.5 18.5 75 51 q31.5 32.5 49 75.5 q17.5 43 17.5 92 q0 51 -17.5 94.5 q-17.5 43.5 -49 76 q-31.5 32.5 -75 51 q-43.5 18.5 -94.5 18.5 q-49 0 -92 -18.5 q-43 -18.5 -74.5 -51 q-31.5 -32.5 -50 -76 q-18.5 -43.5 -18.5 -94.5 Z" /><glyph glyph-name="yen" unicode="" d="M215 0 l0 109 l47 0 q34 0 64 1 q30 1 52.5 11.5 q22.5 10.5 36.5 34.5 q14 24 15 69 l0 113 l-287 0 l0 121 l287 0 l0 119 l-287 0 l0 120 l252 0 l-242 547 q-14 31 -26.5 52 q-12.5 21 -27.5 33.5 q-15 12.5 -34 18 q-19 5.5 -45 5.5 l-6 0 l0 108 l586 0 l0 -108 l-15 0 q-62 0 -89 -19 q-27 -19 -27 -61 q0 -25 8.5 -54.5 q8.5 -29.5 23.5 -66.5 l78 -195 q26 -65 45 -125 q19 -60 27 -102 q6 28 21 67 q15 39 32 83 l86 225 q13 35 21 60 q8 25 12.5 44.5 q4.5 19.5 6 34 q1.5 14.5 1.5 27.5 q0 42 -28.5 62 q-28.5 20 -96.5 20 l-6 0 l0 108 l426 0 l0 -108 l-6 0 q-26 0 -46 -7 q-20 -7 -37.5 -25 q-17.5 -18 -34.5 -49 q-17 -31 -38 -79 l-211 -496 l268 0 l0 -120 l-286 0 l0 -119 l286 0 l0 -121 l-286 0 l0 -102 q0 -49 13.5 -75 q13.5 -26 36 -37.5 q22.5 -11.5 53.5 -13 q31 -1.5 65 -1.5 l47 0 l0 -109 l-735 0 Z" /><glyph glyph-name="brokenbar" unicode="" d="M645 737 l-147 0 l0 819 l147 0 l0 -819 ZM645 -492 l-147 0 l0 820 l147 0 l0 -820 Z" /><glyph glyph-name="section" unicode="" d="M565 -231 q-115 0 -191.5 23.5 q-76.5 23.5 -122 61 q-45.5 37.5 -64.5 84 q-19 46.5 -19 93.5 q0 40 13.5 70 q13.5 30 37.5 50.5 q24 20.5 57.5 31 q33.5 10.5 73.5 10.5 q0 -68 15.5 -125.5 q15.5 -57.5 45.5 -99.5 q30 -42 75.5 -65.5 q45.5 -23.5 105.5 -23.5 q99 0 154 54 q55 54 55 145 q0 42 -12.5 74.5 q-12.5 32.5 -50 66 q-37.5 33.5 -106.5 73 q-69 39.5 -183 95.5 q-85 42 -145.5 85 q-60.5 43 -98 89.5 q-37.5 46.5 -55 98 q-17.5 51.5 -17.5 112.5 q0 69 37 124.5 q37 55.5 96 86.5 q-35 37 -61.5 98.5 q-26.5 61.5 -26.5 145.5 q0 78 30 139.5 q30 61.5 84 103.5 q54 42 128 64 q74 22 162 22 q90 0 158.5 -17.5 q68.5 -17.5 114.5 -48.5 q46 -31 69.5 -73.5 q23.5 -42.5 23.5 -93.5 q0 -63 -50 -105 q-50 -42 -144 -42 q0 45 -8 92.5 q-8 47.5 -28.5 86.5 q-20.5 39 -55.5 64 q-35 25 -89 25 q-86 0 -138 -50 q-52 -50 -52 -143 q0 -49 16.5 -82.5 q16.5 -33.5 48 -59.5 q31.5 -26 76.5 -49 q45 -23 103 -50 q108 -52 185.5 -98 q77.5 -46 127 -94 q49.5 -48 73 -101 q23.5 -53 23.5 -119 q0 -37 -10.5 -73 q-10.5 -36 -28 -68 q-17.5 -32 -41.5 -58 q-24 -26 -51 -43 q34 -43 53 -101 q19 -58 19 -118 q0 -81 -26 -149 q-26 -68 -77.5 -116.5 q-51.5 -48.5 -129 -75.5 q-77.5 -27 -179.5 -27 ZM836 526 q0 35 -11 66 q-11 31 -39 62.5 q-28 31.5 -76.5 64 q-48.5 32.5 -123.5 69.5 q-68 32 -128 62.5 q-60 30.5 -110 64.5 q-15 -17 -24 -40.5 q-9 -23.5 -9 -49.5 q0 -42 14.5 -75 q14.5 -33 48 -63.5 q33.5 -30.5 89 -62 q55.5 -31.5 137.5 -71.5 q66 -34 115.5 -60.5 q49.5 -26.5 89.5 -54.5 q11 16 19 38 q8 22 8 50 Z" /><glyph glyph-name="dieresis" unicode="" d="M258 1409 q0 35 10 59.5 q10 24.5 26.5 39.5 q16.5 15 38.5 21.5 q22 6.5 46 6.5 q24 0 46 -6.5 q22 -6.5 39 -21.5 q17 -15 27.5 -39.5 q10.5 -24.5 10.5 -59.5 q0 -34 -10.5 -58.5 q-10.5 -24.5 -27.5 -39.5 q-17 -15 -39 -22 q-22 -7 -46 -7 q-24 0 -46 7 q-22 7 -38.5 22 q-16.5 15 -26.5 39.5 q-10 24.5 -10 58.5 ZM678 1409 q0 35 10 59.5 q10 24.5 27 39.5 q17 15 39 21.5 q22 6.5 47 6.5 q23 0 44.5 -6.5 q21.5 -6.5 38.5 -21.5 q17 -15 27.5 -39.5 q10.5 -24.5 10.5 -59.5 q0 -34 -10.5 -58.5 q-10.5 -24.5 -27.5 -39.5 q-17 -15 -38.5 -22 q-21.5 -7 -44.5 -7 q-25 0 -47 7 q-22 7 -39 22 q-17 15 -27 39.5 q-10 24.5 -10 58.5 Z" /><glyph glyph-name="copyright" unicode="" d="M113 731 q0 104 27 200.5 q27 96.5 75.5 180 q48.5 83.5 117 152.5 q68.5 69 152 118 q83.5 49 179.5 76 q96 27 200 27 q104 0 200.5 -27 q96.5 -27 180 -76 q83.5 -49 152.5 -118 q69 -69 118 -152.5 q49 -83.5 76 -180 q27 -96.5 27 -200.5 q0 -104 -27 -200 q-27 -96 -76 -179.5 q-49 -83.5 -118 -152 q-69 -68.5 -152.5 -117.5 q-83.5 -49 -180 -75.5 q-96.5 -26.5 -200.5 -26.5 q-104 0 -200 26.5 q-96 26.5 -179.5 75.5 q-83.5 49 -152 117.5 q-68.5 68.5 -117 152 q-48.5 83.5 -75.5 179.5 q-27 96 -27 200 ZM225 731 q0 -88 23 -169.5 q23 -81.5 64.5 -152.5 q41.5 -71 100 -129.5 q58.5 -58.5 129.5 -100 q71 -41.5 152.5 -64.5 q81.5 -23 169.5 -23 q89 0 171 23 q82 23 153 64.5 q71 41.5 129.5 100 q58.5 58.5 100 129.5 q41.5 71 64.5 152.5 q23 81.5 23 169.5 q0 88 -23 170 q-23 82 -64.5 153.5 q-41.5 71.5 -100 130 q-58.5 58.5 -129.5 100 q-71 41.5 -153 64.5 q-82 23 -171 23 q-88 0 -169.5 -23 q-81.5 -23 -152.5 -64.5 q-71 -41.5 -129.5 -100 q-58.5 -58.5 -100 -130 q-41.5 -71.5 -64.5 -153 q-23 -81.5 -23 -170.5 ZM901 365 q47 0 87 12 q40 12 72 32 q32 20 55.5 45 q23.5 25 37.5 50 q12 -9 20.5 -25.5 q8.5 -16.5 8.5 -38.5 q0 -28 -19.5 -57 q-19.5 -29 -58 -53 q-38.5 -24 -96 -39 q-57.5 -15 -134.5 -15 q-102 0 -178.5 33 q-76.5 33 -128 93 q-51.5 60 -77 144 q-25.5 84 -25.5 187 q0 100 28 183 q28 83 83.5 143 q55.5 60 137 93.5 q81.5 33.5 189.5 33.5 q71 0 123.5 -11.5 q52.5 -11.5 87.5 -31 q35 -19.5 52.5 -46 q17.5 -26.5 17.5 -57.5 q0 -22 -11 -40 q-11 -18 -30 -30.5 q-19 -12.5 -44.5 -19 q-25.5 -6.5 -54.5 -6.5 q0 29 -7.5 56.5 q-7.5 27.5 -24.5 50 q-17 22.5 -44.5 36 q-27.5 13.5 -68.5 13.5 q-72 0 -122.5 -24 q-50.5 -24 -82.5 -71 q-32 -47 -46.5 -115 q-14.5 -68 -14.5 -157 q0 -177 69 -272.5 q69 -95.5 199 -95.5 Z" /><glyph glyph-name="ordfeminine" unicode="" d="M295 991 q0 -54 23 -76 q23 -22 55 -22 q63 0 94 39.5 q31 39.5 31 101.5 l0 84 l-47 -2 q-85 -3 -120.5 -34.5 q-35.5 -31.5 -35.5 -90.5 ZM416 1384 q-25 0 -40 -9.5 q-15 -9.5 -23.5 -27 q-8.5 -17.5 -11.5 -40.5 q-3 -23 -3 -50 q-106 0 -164.5 20.5 q-58.5 20.5 -58.5 68.5 q0 35 24 59 q24 24 65.5 39 q41.5 15 97 22 q55.5 7 118.5 7 q155 0 232 -48.5 q77 -48.5 77 -164.5 l0 -302 q0 -45 19.5 -61 q19.5 -16 68.5 -16 l0 -90 l-239 0 l-50 100 l-14 0 q-18 -22 -41 -42.5 q-23 -20.5 -51.5 -36.5 q-28.5 -16 -63 -25 q-34.5 -9 -75.5 -9 q-104 0 -164 53 q-60 53 -60 156 q0 102 86 150.5 q86 48.5 261 56.5 l92 4 l0 55 q0 29 -3 53.5 q-3 24.5 -11.5 41.5 q-8.5 17 -24.5 26.5 q-16 9.5 -43 9.5 Z" /><glyph glyph-name="guillemotleft" unicode="" d="M133 606 l313 357 l144 0 l-207 -410 l207 -410 l-144 0 l-313 357 l0 106 ZM545 606 l313 357 l143 0 l-206 -410 l206 -410 l-143 0 l-313 357 l0 106 Z" /><glyph glyph-name="logicalnot" unicode="" d="M1012 805 l0 -512 l-148 0 l0 366 l-731 0 l0 146 l879 0 Z" /><glyph glyph-name="registered" unicode="" d="M477 358 l27 0 q20 0 38 2.5 q18 2.5 32 10 q14 7.5 22 21.5 q8 14 8 38 l0 600 q0 24 -8 38.5 q-8 14.5 -22 22 q-14 7.5 -32 9.5 q-18 2 -38 2 l-27 0 l0 72 l369 0 q352 0 352 -244 q0 -49 -16 -86 q-16 -37 -42 -64 q-26 -27 -59.5 -45.5 q-33.5 -18.5 -68.5 -29.5 l182 -293 q10 -17 19.5 -27.5 q9.5 -10.5 22.5 -16.5 q13 -6 30.5 -8 q17.5 -2 42.5 -2 l0 -69 l-217 0 l-226 381 l-108 0 l0 -240 q2 -24 10 -38 q8 -14 21.5 -21.5 q13.5 -7.5 31 -10 q17.5 -2.5 37.5 -2.5 l29 0 l0 -69 l-410 0 l0 69 ZM758 748 l86 0 q55 0 92 11 q37 11 59 33 q22 22 31.5 56 q9.5 34 9.5 80 q0 45 -11 77 q-11 32 -34.5 51.5 q-23.5 19.5 -61 28.5 q-37.5 9 -91.5 9 l-80 0 l0 -346 ZM113 731 q0 104 27 200.5 q27 96.5 75.5 180 q48.5 83.5 117 152.5 q68.5 69 152 118 q83.5 49 179.5 76 q96 27 200 27 q104 0 200.5 -27 q96.5 -27 180 -76 q83.5 -49 152.5 -118 q69 -69 118 -152.5 q49 -83.5 76 -180 q27 -96.5 27 -200.5 q0 -104 -27 -200 q-27 -96 -76 -179.5 q-49 -83.5 -118 -152 q-69 -68.5 -152.5 -117.5 q-83.5 -49 -180 -75.5 q-96.5 -26.5 -200.5 -26.5 q-104 0 -200 26.5 q-96 26.5 -179.5 75.5 q-83.5 49 -152 117.5 q-68.5 68.5 -117 152 q-48.5 83.5 -75.5 179.5 q-27 96 -27 200 ZM225 731 q0 -88 23 -169.5 q23 -81.5 64.5 -152.5 q41.5 -71 100 -129.5 q58.5 -58.5 129.5 -100 q71 -41.5 152.5 -64.5 q81.5 -23 169.5 -23 q89 0 171 23 q82 23 153 64.5 q71 41.5 129.5 100 q58.5 58.5 100 129.5 q41.5 71 64.5 152.5 q23 81.5 23 169.5 q0 88 -23 170 q-23 82 -64.5 153.5 q-41.5 71.5 -100 130 q-58.5 58.5 -129.5 100 q-71 41.5 -153 64.5 q-82 23 -171 23 q-88 0 -169.5 -23 q-81.5 -23 -152.5 -64.5 q-71 -41.5 -129.5 -100 q-58.5 -58.5 -100 -130 q-41.5 -71.5 -64.5 -153 q-23 -81.5 -23 -170.5 Z" /><glyph glyph-name="macron" unicode="" d="M950 1556 l-960 0 l0 121 l960 0 l0 -121 Z" /><glyph glyph-name="degree" unicode="" d="M98 1151 q0 65 24.5 121.5 q24.5 56.5 66.5 98.5 q42 42 98.5 66.5 q56.5 24.5 120.5 24.5 q65 0 121.5 -24.5 q56.5 -24.5 98.5 -66.5 q42 -42 66.5 -98.5 q24.5 -56.5 24.5 -121.5 q0 -64 -24.5 -120.5 q-24.5 -56.5 -66.5 -98.5 q-42 -42 -98.5 -66 q-56.5 -24 -121.5 -24 q-64 0 -120.5 24 q-56.5 24 -98.5 66 q-42 42 -66.5 98.5 q-24.5 56.5 -24.5 120.5 ZM240 1151 q0 -34 13 -65 q13 -31 36 -54.5 q23 -23.5 53.5 -37 q30.5 -13.5 65.5 -13.5 q36 0 67 13.5 q31 13.5 54 37 q23 23.5 36 54.5 q13 31 13 65 q0 36 -13 67.5 q-13 31.5 -36 54.5 q-23 23 -54 36.5 q-31 13.5 -67 13.5 q-35 0 -65.5 -13.5 q-30.5 -13.5 -53.5 -36.5 q-23 -23 -36 -54.5 q-13 -31.5 -13 -67.5 Z" /><glyph glyph-name="plusminus" unicode="" d="M1012 0 l-879 0 l0 145 l879 0 l0 -145 ZM645 659 l0 -366 l-147 0 l0 366 l-365 0 l0 146 l365 0 l0 366 l147 0 l0 -366 l367 0 l0 -146 l-367 0 Z" /><glyph glyph-name="uni00B2" unicode="" d="M698 1264 q0 -45 -12.5 -85 q-12.5 -40 -45.5 -84 q-33 -44 -90.5 -96 q-57.5 -52 -146.5 -122 l-167 -132 l327 0 q44 0 62 19.5 q18 19.5 24 48.5 l10 55 l76 0 l-8 -282 l-651 0 l0 147 l225 189 q53 44 87.5 85.5 q34.5 41.5 54.5 81.5 q20 40 28 80 q8 40 8 82 q0 66 -21.5 103 q-21.5 37 -74.5 37 q-35 0 -56 -18.5 q-21 -18.5 -32.5 -47.5 q-11.5 -29 -15 -65.5 q-3.5 -36.5 -3.5 -71.5 q-34 0 -67 7 q-33 7 -59 21.5 q-26 14.5 -42 38 q-16 23.5 -16 56.5 q0 37 19 68.5 q19 31.5 56 54.5 q37 23 91.5 36 q54.5 13 124.5 13 q83 0 142.5 -15.5 q59.5 -15.5 98 -44 q38.5 -28.5 56.5 -69 q18 -40.5 18 -90.5 Z" /><glyph glyph-name="uni00B3" unicode="" d="M338 573 q-134 0 -204.5 46.5 q-70.5 46.5 -70.5 121.5 q0 45 29.5 73 q29.5 28 85.5 28 q0 -71 44.5 -117.5 q44.5 -46.5 117.5 -46.5 q86 0 133 43.5 q47 43.5 47 124.5 q0 78 -51 113.5 q-51 35.5 -152 35.5 l-67 0 l0 97 l67 0 q77 0 119.5 44 q42.5 44 42.5 124 q0 63 -21.5 97 q-21.5 34 -74.5 34 q-54 0 -82.5 -44 q-28.5 -44 -28.5 -135 q-84 0 -131 17.5 q-47 17.5 -47 70.5 q0 82 80 132.5 q80 50.5 213 50.5 q140 0 225.5 -54 q85.5 -54 85.5 -149 q0 -90 -45.5 -143 q-45.5 -53 -142.5 -78 l0 -10 q106 -16 164.5 -67.5 q58.5 -51.5 58.5 -139.5 q0 -127 -115.5 -198 q-115.5 -71 -279.5 -71 Z" /><glyph glyph-name="acute" unicode="" d="M330 1268 q22 29 49.5 67 q27.5 38 55.5 78.5 q28 40.5 52.5 81 q24.5 40.5 40.5 74.5 l322 0 l0 -21 q-19 -27 -63 -67.5 q-44 -40.5 -98.5 -84.5 q-54.5 -44 -113 -85.5 q-58.5 -41.5 -106.5 -69.5 l-139 0 l0 27 Z" /><glyph glyph-name="uni00B5" unicode="" d="M573 -20 q-85 0 -145 31.5 q-60 31.5 -100 88.5 q0 -85 7 -157 q7 -72 30 -126 q23 -54 66.5 -87.5 q43.5 -33.5 115.5 -42.5 q0 -39 -13 -71.5 q-13 -32.5 -37.5 -56.5 q-24.5 -24 -59.5 -37.5 q-35 -13.5 -79 -13.5 q-38 0 -73 14 q-35 14 -61.5 45.5 q-26.5 31.5 -42 83 q-15.5 51.5 -15.5 126.5 q0 61 3 127.5 q3 66.5 7.5 147.5 q4.5 81 8.5 181 q4 100 5 228 l0 637 l312 0 l0 -676 q0 -55 7.5 -104 q7.5 -49 25 -85.5 q17.5 -36.5 47.5 -57.5 q30 -21 75 -21 q43 0 77.5 23 q34.5 23 59 64.5 q24.5 41.5 37.5 100 q13 58.5 13 129.5 l0 627 l311 0 l0 -815 q0 -94 34 -134 q34 -40 105 -40 l15 0 l0 -109 l-179 0 q-105 0 -172.5 49 q-67.5 49 -93.5 129 l-10 0 q-24 -45 -50.5 -82 q-26.5 -37 -59.5 -62.5 q-33 -25.5 -75 -39.5 q-42 -14 -96 -14 Z" /><glyph glyph-name="paragraph" unicode="" d="M860 1430 l-172 0 l0 -1657 l-342 0 l0 108 l27 0 q35 0 65.5 4.5 q30.5 4.5 53 20 q22.5 15.5 36 44.5 q13.5 29 13.5 77 l0 764 l-146 0 q-90 0 -150 32.5 q-60 32.5 -96 88 q-36 55.5 -51.5 128 q-15.5 72.5 -15.5 152.5 q0 82 17 149 q17 67 55 115 q38 48 98 74 q60 26 147 26 l803 0 l0 -108 l-26 0 q-35 0 -65.5 -5 q-30.5 -5 -53.5 -20.5 q-23 -15.5 -36 -44.5 q-13 -29 -13 -78 l0 -1273 q0 -48 13 -77 q13 -29 36 -44.5 q23 -15.5 53.5 -20 q30.5 -4.5 65.5 -4.5 l26 0 l0 -108 l-342 0 l0 1657 Z" /><glyph glyph-name="periodcentered" unicode="" d="M133 727 q0 47 13 78.5 q13 31.5 35.5 50.5 q22.5 19 53.5 27 q31 8 66 8 q34 0 64.5 -8 q30.5 -8 53.5 -27 q23 -19 36.5 -50.5 q13.5 -31.5 13.5 -78.5 q0 -46 -13.5 -77.5 q-13.5 -31.5 -36.5 -50.5 q-23 -19 -53.5 -27.5 q-30.5 -8.5 -64.5 -8.5 q-35 0 -66 8.5 q-31 8.5 -53.5 27.5 q-22.5 19 -35.5 50.5 q-13 31.5 -13 77.5 Z" /><glyph glyph-name="cedilla" unicode="" d="M571 -258 q0 -54 -21 -97.5 q-21 -43.5 -59 -74 q-38 -30.5 -91.5 -46.5 q-53.5 -16 -118.5 -16 q-16 0 -39 1.5 q-23 1.5 -48 4.5 q-25 3 -49 7.5 q-24 4.5 -43 9.5 l0 125 q38 -8 75 -12 q37 -4 65 -4 q58 0 91.5 20.5 q33.5 20.5 33.5 73.5 q0 30 -11.5 49 q-11.5 19 -32.5 30.5 q-21 11.5 -49 17 q-28 5.5 -61 7.5 l43 180 l117 0 l-21 -88 q50 -4 90.5 -18.5 q40.5 -14.5 69 -38.5 q28.5 -24 44 -57.5 q15.5 -33.5 15.5 -73.5 Z" /><glyph glyph-name="uni00B9" unicode="" d="M528 1473 l0 -717 q0 -26 7.5 -41.5 q7.5 -15.5 20.5 -23.5 q13 -8 30.5 -10.5 q17.5 -2.5 36.5 -2.5 l84 0 l0 -90 l-578 0 l0 90 l104 0 q20 0 36.5 2.5 q16.5 2.5 29.5 10.5 q13 8 20 23.5 q7 15.5 7 41.5 l0 581 q-48 -57 -85.5 -92 q-37.5 -35 -74.5 -35 q-29 0 -49.5 29.5 q-20.5 29.5 -20.5 71.5 q37 9 82.5 29.5 q45.5 20.5 106.5 64.5 l92 68 l151 0 Z" /><glyph glyph-name="ordmasculine" unicode="" d="M311 1126 q0 -121 30.5 -183 q30.5 -62 107.5 -62 q75 0 106 62 q31 62 31 183 q0 121 -32 180.5 q-32 59.5 -108 59.5 q-75 0 -105 -59.5 q-30 -59.5 -30 -180.5 ZM823 1126 q0 -176 -95.5 -262 q-95.5 -86 -281.5 -86 q-178 0 -276 86.5 q-98 86.5 -98 261.5 q0 176 96 261.5 q96 85.5 283 85.5 q86 0 155 -21.5 q69 -21.5 117 -64.5 q48 -43 74 -108 q26 -65 26 -153 Z" /><glyph glyph-name="guillemotright" unicode="" d="M1001 500 l-313 -357 l-143 0 l207 410 l-207 410 l143 0 l313 -357 l0 -106 ZM590 500 l-314 -357 l-143 0 l207 410 l-207 410 l143 0 l314 -357 l0 -106 Z" /><glyph glyph-name="questiondown" unicode="" d="M113 -14 q0 82 25.5 147 q25.5 65 76 119 q50.5 54 127 99 q76.5 45 178.5 87 l41 187 l125 0 l41 -252 q-87 -35 -143.5 -82.5 q-56.5 -47.5 -88.5 -102 q-32 -54.5 -44.5 -114.5 q-12.5 -60 -12.5 -121 q0 -49 9 -89.5 q9 -40.5 28.5 -70 q19.5 -29.5 50 -45.5 q30.5 -16 72.5 -16 q46 0 77.5 20.5 q31.5 20.5 50.5 56 q19 35.5 27.5 82 q8.5 46.5 8.5 99.5 q63 0 116 -9 q53 -9 91.5 -27 q38.5 -18 60 -45 q21.5 -27 21.5 -63 q0 -50 -26 -93 q-26 -43 -79.5 -75 q-53.5 -32 -136 -50.5 q-82.5 -18.5 -195.5 -18.5 q-108 0 -200 25.5 q-92 25.5 -158.5 74 q-66.5 48.5 -104.5 118.5 q-38 70 -38 159 ZM795 944 q0 -47 -13 -78.5 q-13 -31.5 -35.5 -50.5 q-22.5 -19 -53.5 -27 q-31 -8 -66 -8 q-34 0 -64.5 8 q-30.5 8 -53.5 27 q-23 19 -36.5 50.5 q-13.5 31.5 -13.5 78.5 q0 46 13.5 77.5 q13.5 31.5 36.5 50.5 q23 19 53.5 27.5 q30.5 8.5 64.5 8.5 q35 0 66 -8.5 q31 -8.5 53.5 -27.5 q22.5 -19 35.5 -50.5 q13 -31.5 13 -77.5 Z" /><glyph glyph-name="AE" unicode="" d="M1270 125 l409 0 q31 0 53 11.5 q22 11.5 38 32.5 q16 21 25.5 49.5 q9.5 28.5 14.5 62.5 l17 96 l141 0 l-14 -377 l-1200 0 l0 109 l86 0 q56 0 80 34.5 q24 34.5 24 87.5 l0 238 l-471 0 l-86 -172 q-17 -32 -25 -61 q-8 -29 -8 -48 q0 -42 31.5 -60.5 q31.5 -18.5 91.5 -18.5 l35 0 l0 -109 l-512 0 l0 109 l25 0 q53 0 95 38.5 q42 38.5 87 120.5 l575 1075 l-135 11 l0 108 l1243 0 l8 -377 l-143 0 l-10 97 q-8 75 -38 115 q-30 40 -93 40 l-344 0 l0 -512 l485 0 l0 -123 l-485 0 l0 -577 ZM924 1337 l-385 -745 l405 0 l0 745 l-20 0 Z" /><glyph glyph-name="Eth" unicode="" d="M1458 758 q0 -168 -46 -307.5 q-46 -139.5 -137.5 -239.5 q-91.5 -100 -227 -155.5 q-135.5 -55.5 -314.5 -55.5 l-676 0 l0 109 l86 0 q23 0 42 4.5 q19 4.5 33 18.5 q14 14 22 40 q8 26 8 70 l0 460 l-170 0 l0 125 l170 0 l0 402 q0 41 -8 65.5 q-8 24.5 -22.5 37.5 q-14.5 13 -33.5 17.5 q-19 4.5 -41 4.5 l-86 0 l0 108 l676 0 q170 0 304.5 -44.5 q134.5 -44.5 228 -133 q93.5 -88.5 143 -220.5 q49.5 -132 49.5 -306 ZM1112 758 q0 293 -107.5 436 q-107.5 143 -316.5 143 l-117 0 l0 -510 l256 0 l0 -125 l-256 0 l0 -575 l115 0 q105 0 185 43.5 q80 43.5 133.5 125.5 q53.5 82 80.5 198.5 q27 116.5 27 263.5 Z" /><glyph glyph-name="multiply" unicode="" d="M571 631 l-301 -303 l-104 104 l301 303 l-301 301 l104 103 l301 -301 l301 303 l105 -105 l-303 -303 l303 -303 l-103 -102 l-303 303 Z" /><glyph glyph-name="Oslash" unicode="" d="M1499 733 q0 -169 -45.5 -308 q-45.5 -139 -134 -238 q-88.5 -99 -217 -153 q-128.5 -54 -295.5 -54 q-173 0 -303 53 l-62 -115 l-145 0 l94 174 q-140 96 -209 260.5 q-69 164.5 -69 382.5 q0 170 43 308.5 q43 138.5 129.5 236.5 q86.5 98 217 151.5 q130.5 53.5 306.5 53.5 q85 0 160 -15 q75 -15 141 -43 l64 119 l143 0 l-96 -178 q136 -96 207 -258 q71 -162 71 -377 ZM457 733 q0 -128 14 -230 q14 -102 45 -179 l506 942 q-38 42 -91.5 64 q-53.5 22 -121.5 22 q-96 0 -163 -41.5 q-67 -41.5 -109 -121 q-42 -79.5 -61 -194.5 q-19 -115 -19 -262 ZM1155 733 q0 127 -14 228.5 q-14 101.5 -43 179.5 l-506 -944 q40 -42 93 -63 q53 -21 122 -21 q96 0 162.5 42 q66.5 42 107.5 121.5 q41 79.5 59.5 194.5 q18.5 115 18.5 262 Z" /><glyph glyph-name="Thorn" unicode="" d="M571 410 l50 0 q76 0 129 19 q53 19 86.5 60 q33.5 41 49 106 q15.5 65 15.5 157 q0 82 -13.5 142.5 q-13.5 60.5 -43 100 q-29.5 39.5 -77 59 q-47.5 19.5 -116.5 19.5 l-80 0 l0 -663 ZM1245 760 q0 -92 -32 -177 q-32 -85 -104 -150 q-72 -65 -187 -103.5 q-115 -38.5 -281 -38.5 l-70 0 l0 -60 q2 -40 11 -64.5 q9 -24.5 23.5 -37 q14.5 -12.5 34 -16.5 q19.5 -4 40.5 -4 l84 0 l0 -109 l-707 0 l0 109 l86 0 q23 0 42 4.5 q19 4.5 33 18.5 q14 14 22 40 q8 26 8 70 l0 979 q0 44 -8 70 q-8 26 -22 40 q-14 14 -33 18.5 q-19 4.5 -42 4.5 l-86 0 l0 108 l707 0 l0 -108 l-84 0 q-21 0 -41 -4 q-20 -4 -35 -17 q-15 -13 -24 -37 q-9 -24 -9 -65 l0 -37 l115 0 q142 -2 247 -32.5 q105 -30.5 174.5 -86 q69.5 -55.5 103.5 -135 q34 -79.5 34 -180.5 Z" /><glyph glyph-name="germandbls" unicode="" d="M205 1118 q0 128 41 216 q41 88 112.5 142 q71.5 54 168.5 77.5 q97 23.5 210 23.5 q142 0 241 -37 q99 -37 161.5 -109.5 q62.5 -72.5 91 -179 q28.5 -106.5 29.5 -245.5 l-115 0 q-50 0 -93.5 -6 q-43.5 -6 -76 -22 q-32.5 -16 -51.5 -42.5 q-19 -26.5 -19 -67.5 q0 -36 12.5 -63 q12.5 -27 39.5 -50.5 q27 -23.5 70.5 -47 q43.5 -23.5 105.5 -52.5 q64 -30 108 -67.5 q44 -37.5 71.5 -80.5 q27.5 -43 39.5 -89 q12 -46 12 -94 q0 -87 -27.5 -151.5 q-27.5 -64.5 -79 -107.5 q-51.5 -43 -126.5 -64 q-75 -21 -170 -21 q-93 0 -176.5 18.5 q-83.5 18.5 -149.5 56.5 l0 248 l110 0 q7 -41 24.5 -78 q17.5 -37 44 -64.5 q26.5 -27.5 61.5 -44 q35 -16.5 77 -16.5 q69 0 109.5 36 q40.5 36 40.5 102 q0 36 -9.5 66.5 q-9.5 30.5 -33 58.5 q-23.5 28 -63.5 55 q-40 27 -101 55 q-75 35 -124.5 75.5 q-49.5 40.5 -79 86.5 q-29.5 46 -42 96 q-12.5 50 -12.5 103 q0 71 24.5 122.5 q24.5 51.5 69 86 q44.5 34.5 105.5 53 q61 18.5 133 22.5 q-1 94 -16.5 159.5 q-15.5 65.5 -44.5 106.5 q-29 41 -70.5 59.5 q-41.5 18.5 -94.5 18.5 q-52 0 -94.5 -17 q-42.5 -17 -72.5 -52.5 q-30 -35.5 -46 -90 q-16 -54.5 -16 -128.5 l0 -1174 l-502 0 l0 109 l88 0 q22 0 41 4.5 q19 4.5 33.5 18.5 q14.5 14 22.5 40 q8 26 8 70 l0 714 l-164 0 l0 142 l164 0 l0 20 Z" /><glyph glyph-name="ae" unicode="" d="M410 305 q0 -88 28 -132 q28 -44 88 -44 q44 0 79.5 18.5 q35.5 18.5 61 52.5 q25.5 34 39 82.5 q13.5 48.5 13.5 108.5 l0 154 l-92 -6 q-61 -3 -103 -19.5 q-42 -16.5 -67 -45.5 q-25 -29 -36 -71 q-11 -42 -11 -98 ZM1231 991 q-85 0 -136.5 -85 q-51.5 -85 -56.5 -249 l355 0 q0 160 -39 247 q-39 87 -123 87 ZM1253 -20 q-151 0 -260.5 50 q-109.5 50 -175.5 146 q-69 -103 -171 -149.5 q-102 -46.5 -232 -46.5 q-68 0 -126.5 20 q-58.5 20 -102 61.5 q-43.5 41.5 -68.5 104 q-25 62.5 -25 147.5 q0 167 114.5 247 q114.5 80 344.5 87 l168 6 l0 113 q0 51 -4 94 q-4 43 -17 74 q-13 31 -38.5 48 q-25.5 17 -67.5 17 q-39 0 -65.5 -16.5 q-26.5 -16.5 -42.5 -46 q-16 -29.5 -22.5 -70 q-6.5 -40.5 -6.5 -88.5 q-138 0 -207.5 31 q-69.5 31 -69.5 106 q0 56 33.5 96 q33.5 40 91 65 q57.5 25 134 36.5 q76.5 11.5 163.5 11.5 q109 0 190.5 -27 q81.5 -27 135.5 -89 q60 57 135 86.5 q75 29.5 166 29.5 q111 0 200 -31.5 q89 -31.5 151 -93.5 q62 -62 95 -154 q33 -92 33 -214 l0 -105 l-672 0 q3 -103 22.5 -177 q19.5 -74 54.5 -122 q35 -48 84.5 -71 q49.5 -23 113.5 -23 q53 0 98 12.5 q45 12.5 81.5 35 q36.5 22.5 63.5 53 q27 30.5 45 65.5 q56 -30 56 -100 q0 -44 -23.5 -83.5 q-23.5 -39.5 -72.5 -69.5 q-49 -30 -124.5 -48 q-75.5 -18 -179.5 -18 Z" /><glyph glyph-name="eth" unicode="" d="M1157 596 q0 -312 -135.5 -464 q-135.5 -152 -398.5 -152 q-122 0 -219.5 33 q-97.5 33 -166 100.5 q-68.5 67.5 -105 169.5 q-36.5 102 -36.5 239 q0 136 32.5 237.5 q32.5 101.5 95.5 169 q63 67.5 155 101 q92 33.5 211 33.5 q68 0 126.5 -16 q58.5 -16 96.5 -39 q-11 33 -25 65.5 q-14 32.5 -34 65 q-20 32.5 -48 65 q-28 32.5 -67 64.5 l-289 -148 l0 133 l182 95 q-51 32 -108.5 50.5 q-57.5 18.5 -132.5 31.5 l0 129 q38 -3 90.5 -14.5 q52.5 -11.5 108.5 -29 q56 -17.5 109.5 -39.5 q53.5 -22 92.5 -46 l258 131 l0 -136 l-143 -73 q78 -61 142.5 -140.5 q64.5 -79.5 110.5 -175.5 q46 -96 71.5 -206.5 q25.5 -110.5 25.5 -233.5 ZM414 520 q0 -101 11.5 -178 q11.5 -77 37 -128.5 q25.5 -51.5 66.5 -78 q41 -26.5 100 -26.5 q58 0 98.5 26.5 q40.5 26.5 66 78 q25.5 51.5 37 128.5 q11.5 77 11.5 178 q0 105 -11.5 182.5 q-11.5 77.5 -37 128.5 q-25.5 51 -66.5 76 q-41 25 -100 25 q-58 0 -99 -24.5 q-41 -24.5 -66 -75 q-25 -50.5 -36.5 -128 q-11.5 -77.5 -11.5 -184.5 Z" /><glyph glyph-name="divide" unicode="" d="M459 1120 q0 35 8.5 59 q8.5 24 24 38.5 q15.5 14.5 36.5 21 q21 6.5 45 6.5 q24 0 45 -6.5 q21 -6.5 36.5 -21 q15.5 -14.5 24.5 -38.5 q9 -24 9 -59 q0 -34 -9 -58 q-9 -24 -24.5 -39 q-15.5 -15 -36.5 -21.5 q-21 -6.5 -45 -6.5 q-49 0 -81.5 28 q-32.5 28 -32.5 97 ZM459 344 q0 35 8.5 59 q8.5 24 24 38.5 q15.5 14.5 36.5 21 q21 6.5 45 6.5 q24 0 45 -6.5 q21 -6.5 36.5 -21 q15.5 -14.5 24.5 -38.5 q9 -24 9 -59 q0 -34 -9 -58 q-9 -24 -24.5 -39 q-15.5 -15 -36.5 -21.5 q-21 -6.5 -45 -6.5 q-49 0 -81.5 28 q-32.5 28 -32.5 97 ZM1012 659 l-879 0 l0 146 l879 0 l0 -146 Z" /><glyph glyph-name="oslash" unicode="" d="M1159 553 q0 -289 -135.5 -431 q-135.5 -142 -398.5 -142 q-138 0 -242 43 l-66 -105 l-145 0 l102 168 q-86 71 -132 187 q-46 116 -46 280 q0 289 135.5 430 q135.5 141 399.5 141 q72 0 136 -12 q64 -12 118 -37 l65 105 l144 0 l-105 -172 q82 -72 126 -184 q44 -112 44 -271 ZM414 553 q0 -63 3 -117.5 q3 -54.5 11 -99.5 l352 571 q-52 86 -153 86 q-59 0 -100 -27.5 q-41 -27.5 -66 -82.5 q-25 -55 -36 -137.5 q-11 -82.5 -11 -192.5 ZM842 553 q0 56 -3 104.5 q-3 48.5 -10 92.5 l-348 -566 q51 -75 148 -75 q59 0 99.5 28.5 q40.5 28.5 66 84.5 q25.5 56 36.5 139 q11 83 11 192 Z" /><glyph glyph-name="thorn" unicode="" d="M51 -383 q22 0 48 4.5 q26 4.5 47.5 18.5 q21.5 14 36 40 q14.5 26 14.5 70 l0 1555 q0 47 -10.5 75 q-10.5 28 -29 43 q-18.5 15 -44 20 q-25.5 5 -54.5 5 l-14 0 l0 108 l463 0 l0 -376 q0 -29 -4 -70.5 q-4 -41.5 -9 -79.5 q-5 -45 -12 -92 l9 0 q22 40 51.5 73 q29.5 33 68 57 q38.5 24 86.5 37 q48 13 107 13 q102 0 180.5 -33.5 q78.5 -33.5 131.5 -104 q53 -70.5 80.5 -178.5 q27.5 -108 27.5 -257 q0 -148 -27 -255.5 q-27 -107.5 -79.5 -177.5 q-52.5 -70 -129 -103.5 q-76.5 -33.5 -176.5 -33.5 q-117 0 -190 44.5 q-73 44.5 -117 119.5 l-14 0 q4 -47 8 -92 q3 -38 5.5 -81 q2.5 -43 2.5 -75 l0 -141 q0 -44 14.5 -70 q14.5 -26 36 -40 q21.5 -14 47 -18.5 q25.5 -4.5 47.5 -4.5 l45 0 l0 -109 l-671 0 l0 109 l24 0 ZM717 127 q103 0 147.5 103.5 q44.5 103.5 44.5 312.5 q0 204 -44.5 313 q-44.5 109 -145.5 109 q-62 0 -102.5 -27.5 q-40.5 -27.5 -64.5 -81 q-24 -53.5 -34 -132 q-10 -78.5 -10 -179.5 q0 -106 10 -184.5 q10 -78.5 34 -130.5 q24 -52 64 -77.5 q40 -25.5 101 -25.5 Z" /><glyph glyph-name="dotlessi" unicode="&#x131;" d="M59 109 q23 0 48.5 4.5 q25.5 4.5 47 18.5 q21.5 14 36 40 q14.5 26 14.5 70 l0 622 q0 41 -14.5 65.5 q-14.5 24.5 -36.5 38 q-22 13.5 -47.5 17.5 q-25.5 4 -47.5 4 l-24 0 l0 109 l481 0 l0 -856 q0 -44 14.5 -70 q14.5 -26 36 -40 q21.5 -14 47.5 -18.5 q26 -4.5 48 -4.5 l24 0 l0 -109 l-651 0 l0 109 l24 0 Z" /><glyph glyph-name="OE" unicode="&#x152;" d="M1323 125 l410 0 q31 0 53 11.5 q22 11.5 37.5 32.5 q15.5 21 25 49.5 q9.5 28.5 15.5 62.5 l16 96 l141 0 l-14 -377 l-987 0 q-45 -9 -103.5 -14.5 q-58.5 -5.5 -109.5 -5.5 q-175 0 -305.5 54 q-130.5 54 -216.5 153 q-86 99 -129 238.5 q-43 139.5 -43 309.5 q0 170 43 308.5 q43 138.5 129.5 236.5 q86.5 98 217 151.5 q130.5 53.5 306.5 53.5 q53 0 112.5 -6 q59.5 -6 104.5 -17 l918 0 l8 -377 l-144 0 l-10 97 q-8 75 -38 115 q-30 40 -93 40 l-344 0 l0 -512 l485 0 l0 -123 l-485 0 l0 -577 ZM807 113 q59 0 105.5 15 q46.5 15 84.5 44 l0 1118 q-34 26 -82.5 44 q-48.5 18 -105.5 18 q-96 0 -163 -41.5 q-67 -41.5 -109 -121 q-42 -79.5 -61 -194.5 q-19 -115 -19 -262 q0 -147 19 -262 q19 -115 61 -194.5 q42 -79.5 108.5 -121.5 q66.5 -42 161.5 -42 Z" /><glyph glyph-name="oe" unicode="&#x153;" d="M414 553 q0 -109 11.5 -192 q11.5 -83 37 -139 q25.5 -56 66.5 -84.5 q41 -28.5 100 -28.5 q56 0 95.5 26 q39.5 26 65 77 q25.5 51 38 127.5 q12.5 76.5 14.5 176.5 l0 55 q-1 211 -50.5 316.5 q-49.5 105.5 -164.5 105.5 q-59 0 -100 -27.5 q-41 -27.5 -66 -82.5 q-25 -55 -36 -137.5 q-11 -82.5 -11 -192.5 ZM1354 991 q-85 0 -136.5 -85 q-51.5 -85 -56.5 -249 l355 0 q0 160 -39 247 q-39 87 -123 87 ZM1376 -20 q-118 0 -211 40 q-93 40 -161 117 q-67 -81 -162.5 -119 q-95.5 -38 -216.5 -38 q-123 0 -221 35.5 q-98 35.5 -166.5 106.5 q-68.5 71 -105 179 q-36.5 108 -36.5 252 q0 289 135.5 430 q135.5 141 399.5 141 q114 0 206 -39.5 q92 -39.5 160 -117.5 q63 78 152 117.5 q89 39.5 201 39.5 q111 0 200 -31.5 q89 -31.5 151 -93.5 q62 -62 95 -154 q33 -92 33 -214 l0 -105 l-670 0 q0 -6 -1 -12 q-1 -6 -1 -12 q5 -97 25.5 -166.5 q20.5 -69.5 55 -114.5 q34.5 -45 83.5 -66.5 q49 -21.5 111 -21.5 q53 0 98 12.5 q45 12.5 81.5 35 q36.5 22.5 63.5 53 q27 30.5 45 65.5 q56 -30 56 -100 q0 -44 -23.5 -83.5 q-23.5 -39.5 -72.5 -69.5 q-49 -30 -124.5 -48 q-75.5 -18 -179.5 -18 Z" /><glyph glyph-name="circumflex" unicode="&#x2c6;" d="M227 1268 q24 29 56.5 67 q32.5 38 64.5 78.5 q32 40.5 60.5 81 q28.5 40.5 44.5 74.5 l276 0 q16 -34 44.5 -74.5 q28.5 -40.5 60.5 -81 q32 -40.5 64 -78.5 q32 -38 56 -67 l0 -27 l-141 0 q-21 17 -50 40 q-29 23 -60 48 q-31 25 -60.5 50 q-29.5 25 -52.5 46 q-23 -21 -52.5 -46 q-29.5 -25 -60 -50 q-30.5 -25 -59 -48 q-28.5 -23 -49.5 -40 l-142 0 l0 27 Z" /><glyph glyph-name="ring" unicode="&#x2da;" d="M586 1444 q0 -55 -19 -96.5 q-19 -41.5 -52.5 -69.5 q-33.5 -28 -78.5 -42.5 q-45 -14.5 -96 -14.5 q-51 0 -96 14.5 q-45 14.5 -78.5 42.5 q-33.5 28 -52.5 69.5 q-19 41.5 -19 96.5 q0 54 19 96 q19 42 52.5 70 q33.5 28 78.5 42.5 q45 14.5 96 14.5 q51 0 96 -14.5 q45 -14.5 78.5 -42.5 q33.5 -28 52.5 -70 q19 -42 19 -96 ZM461 1444 q0 30 -9.5 51 q-9.5 21 -26 34 q-16.5 13 -38.5 19 q-22 6 -47 6 q-25 0 -47 -6 q-22 -6 -38.5 -19 q-16.5 -13 -26 -34 q-9.5 -21 -9.5 -51 q0 -30 9.5 -51 q9.5 -21 26 -34.5 q16.5 -13.5 38.5 -19.5 q22 -6 47 -6 q25 0 47 6 q22 6 38.5 19.5 q16.5 13.5 26 34.5 q9.5 21 9.5 51 Z" /><glyph glyph-name="tilde" unicode="&#x2dc;" d="M762 1436 q22 0 39.5 9 q17.5 9 30 24 q12.5 15 20 34.5 q7.5 19.5 10.5 40.5 l133 0 q-3 -62 -23 -117 q-20 -55 -53.5 -96.5 q-33.5 -41.5 -79 -65.5 q-45.5 -24 -100.5 -24 q-55 0 -99.5 20 q-44.5 20 -83 44.5 q-38.5 24.5 -72 44.5 q-33.5 20 -66.5 20 q-23 0 -40.5 -9 q-17.5 -9 -30 -24 q-12.5 -15 -20 -34.5 q-7.5 -19.5 -10.5 -40.5 l-133 0 q3 62 23.5 117 q20.5 55 54 96.5 q33.5 41.5 79.5 65.5 q46 24 101 24 q55 0 99.5 -20 q44.5 -20 83 -44.5 q38.5 -24.5 72 -44.5 q33.5 -20 65.5 -20 Z" /><glyph glyph-name="afii10051" unicode="&#x402;" d="M791 838 q25 9 59.5 19.5 q34.5 10.5 76.5 19 q42 8.5 90 14.5 q48 6 99 6 q119 0 210 -21 q91 -21 153.5 -72 q62.5 -51 94.5 -136 q32 -85 32 -213 q0 -132 -30.5 -220 q-30.5 -88 -88.5 -140 q-58 -52 -142 -73.5 q-84 -21.5 -192 -21.5 l-55 0 l0 119 l22 0 q39 0 68.5 10 q29.5 10 50 42.5 q20.5 32.5 31 93 q10.5 60.5 10.5 161.5 q0 101 -18 162 q-18 61 -50 93 q-32 32 -76.5 42 q-44.5 10 -97.5 10 q-38 0 -75 -4.5 q-37 -4.5 -69 -12 q-32 -7.5 -58.5 -16 q-26.5 -8.5 -44.5 -16.5 l0 -442 q0 -44 8 -70 q8 -26 22 -40 q14 -14 33 -18.5 q19 -4.5 41 -4.5 l86 0 l0 -109 l-707 0 l0 109 l86 0 q23 0 42 4.5 q19 4.5 33 18.5 q14 14 22 40 q8 26 8 70 l0 1095 l-123 0 q-46 0 -77 -10 q-31 -10 -50.5 -28.5 q-19.5 -18.5 -29 -45.5 q-9.5 -27 -13.5 -61 l-14 -127 l-138 0 l11 397 l1194 0 l10 -397 l-137 0 l-15 127 q-4 34 -13.5 61 q-9.5 27 -29 45.5 q-19.5 18.5 -50.5 28.5 q-31 10 -77 10 l-122 0 l0 -499 Z" /><glyph glyph-name="afii10053" unicode="&#x404;" d="M870 143 q75 0 133.5 17.5 q58.5 17.5 104.5 45.5 q46 28 80.5 63 q34.5 35 60.5 69 q16 -12 25.5 -37 q9.5 -25 9.5 -51 q0 -43 -23 -90.5 q-23 -47.5 -77 -87.5 q-54 -40 -143 -66 q-89 -26 -220 -26 q-178 0 -311 54 q-133 54 -221 153 q-88 99 -132 238 q-44 139 -44 308 q0 166 45 304 q45 138 133.5 237 q88.5 99 221 154 q132.5 55 306.5 55 q118 0 205.5 -18.5 q87.5 -18.5 145.5 -50.5 q58 -32 87 -75.5 q29 -43.5 29 -93.5 q0 -38 -16.5 -70.5 q-16.5 -32.5 -49 -56.5 q-32.5 -24 -80.5 -37.5 q-48 -13.5 -110 -13.5 q0 51 -11 101.5 q-11 50.5 -37.5 91.5 q-26.5 41 -69.5 66.5 q-43 25.5 -107 25.5 q-92 0 -156.5 -37 q-64.5 -37 -106 -108 q-41.5 -71 -61.5 -174.5 q-20 -103.5 -24 -237.5 l481 0 l0 -123 l-481 0 q5 -133 29.5 -232.5 q24.5 -99.5 74 -165.5 q49.5 -66 126 -98.5 q76.5 -32.5 183.5 -32.5 Z" /><glyph glyph-name="afii10058" unicode="&#x409;" d="M651 1354 q-6 -128 -18 -269 q-12 -141 -30.5 -279.5 q-18.5 -138.5 -42.5 -266 q-24 -127.5 -54 -228.5 q-28 -94 -63.5 -156.5 q-35.5 -62.5 -78 -100 q-42.5 -37.5 -93 -53 q-50.5 -15.5 -107.5 -15.5 q-74 0 -119 39.5 q-45 39.5 -45 113.5 q0 31 8.5 56.5 q8.5 25.5 22.5 43.5 q14 18 32 27.5 q18 9.5 37 9.5 q0 -40 25 -68 q25 -28 65 -28 q34 0 62.5 12.5 q28.5 12.5 53.5 42.5 q25 30 46.5 81.5 q21.5 51.5 42.5 129.5 q18 66 33 147 q15 81 27.5 165 q12.5 84 22 166.5 q9.5 82.5 16 152 q6.5 69.5 9.5 121 q3 51.5 3 74.5 q0 28 -13 44.5 q-13 16.5 -35.5 25 q-22.5 8.5 -52 10.5 q-29.5 2 -63.5 2 l-31 0 l0 108 l1164 0 l0 -108 l-125 0 q-56 0 -82.5 -27.5 q-26.5 -27.5 -26.5 -95.5 l0 -408 l109 0 q147 0 250 -30 q103 -30 168.5 -84 q65.5 -54 95.5 -129.5 q30 -75.5 30 -165.5 q0 -92 -33.5 -168.5 q-33.5 -76.5 -102 -131 q-68.5 -54.5 -173 -84.5 q-104.5 -30 -246.5 -30 l-612 0 l0 109 l86 0 q31 0 51 7.5 q20 7.5 32 23.5 q12 16 17 42 q5 26 5 62 l0 1110 l-267 0 ZM1241 121 l80 0 q62 0 105.5 17.5 q43.5 17.5 70.5 52.5 q27 35 39 88 q12 53 12 124 q0 82 -14 139.5 q-14 57.5 -44 93.5 q-30 36 -77.5 52.5 q-47.5 16.5 -114.5 16.5 l-57 0 l0 -584 Z" /><glyph glyph-name="afii10059" unicode="&#x40a;" d="M1559 1462 l0 -108 l-84 0 q-56 0 -82.5 -27.5 q-26.5 -27.5 -26.5 -95.5 l0 -408 l109 0 q147 0 250 -30 q103 -30 168.5 -84 q65.5 -54 95.5 -129.5 q30 -75.5 30 -165.5 q0 -92 -33.5 -168.5 q-33.5 -76.5 -102 -131 q-68.5 -54.5 -173 -84.5 q-104.5 -30 -246.5 -30 l-592 0 l0 109 l66 0 q31 0 51 7.5 q20 7.5 32 23.5 q12 16 16.5 42 q4.5 26 4.5 62 l0 456 l-471 0 l0 -458 q0 -44 8.5 -70 q8.5 -26 22.5 -40 q14 -14 33 -18.5 q19 -4.5 41 -4.5 l67 0 l0 -109 l-686 0 l0 109 l86 0 q22 0 41 4.5 q19 4.5 33.5 18.5 q14.5 14 22.5 40 q8 26 8 70 l0 987 q0 41 -8.5 65.5 q-8.5 24.5 -23 37.5 q-14.5 13 -33.5 17.5 q-19 4.5 -40 4.5 l-86 0 l0 108 l686 0 l0 -108 l-67 0 q-22 0 -41 -4.5 q-19 -4.5 -33 -18.5 q-14 -14 -22.5 -40 q-8.5 -26 -8.5 -70 l0 -396 l471 0 l0 396 q0 42 -7.5 68 q-7.5 26 -21 40.5 q-13.5 14.5 -32.5 19.5 q-19 5 -43 5 l-66 0 l0 108 l687 0 ZM1366 121 l80 0 q62 0 105.5 17.5 q43.5 17.5 70.5 52.5 q27 35 39 88 q12 53 12 124 q0 82 -14 139.5 q-14 57.5 -44 93.5 q-30 36 -77.5 52.5 q-47.5 16.5 -114.5 16.5 l-57 0 l0 -584 Z" /><glyph glyph-name="afii10060" unicode="&#x40b;" d="M1090 0 l0 109 l86 0 q22 0 41 4.5 q19 4.5 33 18.5 q14 14 22 40 q8 26 8 70 l0 198 q0 79 -13.5 134.5 q-13.5 55.5 -42.5 91 q-29 35.5 -75 51.5 q-46 16 -111 16 q-38 0 -75 -4.5 q-37 -4.5 -69 -12 q-32 -7.5 -58.5 -16 q-26.5 -8.5 -44.5 -16.5 l0 -442 q0 -44 8 -70 q8 -26 22 -40 q14 -14 33 -18.5 q19 -4.5 41 -4.5 l86 0 l0 -109 l-707 0 l0 109 l86 0 q23 0 42 4.5 q19 4.5 33 18.5 q14 14 22 40 q8 26 8 70 l0 1095 l-123 0 q-46 0 -77 -10 q-31 -10 -50.5 -28.5 q-19.5 -18.5 -29 -45.5 q-9.5 -27 -13.5 -61 l-14 -127 l-138 0 l11 397 l1194 0 l10 -397 l-137 0 l-15 127 q-4 34 -13.5 61 q-9.5 27 -29 45.5 q-19.5 18.5 -50.5 28.5 q-31 10 -77 10 l-122 0 l0 -503 q25 9 61.5 20 q36.5 11 82.5 20.5 q46 9.5 100.5 16 q54.5 6.5 115.5 6.5 q105 0 189.5 -21 q84.5 -21 143.5 -72 q59 -51 90.5 -136 q31.5 -85 31.5 -213 l0 -213 q0 -44 8 -70 q8 -26 22 -40 q14 -14 33 -18.5 q19 -4.5 41 -4.5 l66 0 l0 -109 l-686 0 Z" /><glyph glyph-name="afii10145" unicode="&#x40f;" d="M1599 1462 l0 -108 l-86 0 q-21 0 -39.5 -4 q-18.5 -4 -33 -17 q-14.5 -13 -23 -37 q-8.5 -24 -8.5 -65 l0 -989 q0 -44 8 -70 q8 -26 22.5 -40 q14.5 -14 33.5 -18.5 q19 -4.5 40 -4.5 l86 0 l0 -109 l-483 0 q-55 0 -96 -24.5 q-41 -24.5 -68.5 -77 q-27.5 -52.5 -41 -133.5 q-13.5 -81 -13.5 -195 l-135 0 q0 111 -16 192.5 q-16 81.5 -46 134 q-30 52.5 -72.5 78 q-42.5 25.5 -95.5 25.5 l-475 0 l0 109 l86 0 q21 0 40 4 q19 4 33.5 17.5 q14.5 13.5 23 38 q8.5 24.5 8.5 64.5 l0 988 q0 44 -8 70 q-8 26 -22.5 40 q-14.5 14 -33.5 18.5 q-19 4.5 -41 4.5 l-86 0 l0 108 l707 0 l0 -108 l-88 0 q-22 0 -41 -4.5 q-19 -4.5 -33 -18.5 q-14 -14 -22.5 -40 q-8.5 -26 -8.5 -70 l0 -1096 l514 0 l0 1096 q0 44 -8 70 q-8 26 -22.5 40 q-14.5 14 -33.5 18.5 q-19 4.5 -40 4.5 l-88 0 l0 108 l706 0 Z" /><glyph glyph-name="afii10018" unicode="&#x411;" d="M1184 1462 l10 -397 l-137 0 l-15 127 q-4 34 -13.5 61 q-9.5 27 -29 45.5 q-19.5 18.5 -50.5 28.5 q-31 10 -77 10 l-274 0 l0 -514 l129 0 q147 0 250.5 -30 q103.5 -30 169 -84 q65.5 -54 95.5 -129.5 q30 -75.5 30 -165.5 q0 -92 -33.5 -168.5 q-33.5 -76.5 -102 -131 q-68.5 -54.5 -173 -84.5 q-104.5 -30 -246.5 -30 l-633 0 l0 109 l86 0 q31 0 51 7.5 q20 7.5 32 23.5 q12 16 16.5 42 q4.5 26 4.5 62 l0 977 q0 42 -7.5 68 q-7.5 26 -21 40.5 q-13.5 14.5 -32.5 19.5 q-19 5 -43 5 l-86 0 l0 108 l1100 0 ZM598 121 l100 0 q62 0 105.5 17.5 q43.5 17.5 70.5 52.5 q27 35 39.5 88 q12.5 53 12.5 124 q0 82 -14 139.5 q-14 57.5 -44 93.5 q-30 36 -77.5 52.5 q-47.5 16.5 -114.5 16.5 l-78 0 l0 -584 Z" /><glyph glyph-name="afii10021" unicode="&#x414;" d="M672 1337 q0 -101 -16.5 -207 q-16.5 -106 -44.5 -213.5 q-28 -107.5 -64.5 -214 q-36.5 -106.5 -78 -208 q-41.5 -101.5 -84.5 -195 q-43 -93.5 -83 -174.5 l565 0 l0 1212 l-194 0 ZM141 125 q75 147 144 299.5 q69 152.5 122 300.5 q53 148 85 287 q32 139 32 258 q0 28 -15 45 q-15 17 -40 25.5 q-25 8.5 -57 11 q-32 2.5 -66 2.5 l-6 0 l0 108 l1020 0 l0 -108 l-27 0 q-29 0 -54.5 -4.5 q-25.5 -4.5 -45.5 -19 q-20 -14.5 -31.5 -41.5 q-11.5 -27 -11.5 -72 l0 -945 q0 -48 13.5 -77 q13.5 -29 36 -44.5 q22.5 -15.5 53 -20.5 q30.5 -5 65.5 -5 l41 0 l0 -555 l-135 0 q0 114 -14.5 195 q-14.5 81 -46 133.5 q-31.5 52.5 -81.5 77 q-50 24.5 -121 24.5 l-587 0 q-71 0 -120.5 -24.5 q-49.5 -24.5 -81 -77 q-31.5 -52.5 -46 -133.5 q-14.5 -81 -14.5 -195 l-136 0 l0 555 l125 0 Z" /><glyph glyph-name="afii10024" unicode="&#x416;" d="M924 1229 q0 41 -8 65.5 q-8 24.5 -22.5 37.5 q-14.5 13 -33.5 17.5 q-19 4.5 -41 4.5 l-86 0 l0 108 l666 0 l0 -108 l-86 0 q-22 0 -42 -4.5 q-20 -4.5 -34 -18.5 q-14 -14 -22.5 -40 q-8.5 -26 -8.5 -70 l0 -428 q34 0 58.5 3 q24.5 3 44 9.5 q19.5 6.5 35.5 18 q16 11.5 32 28.5 q28 29 73.5 102.5 q45.5 73.5 100.5 186.5 q45 90 84.5 153.5 q39.5 63.5 82 103.5 q42.5 40 91.5 58.5 q49 18.5 111 18.5 q43 0 74 -9.5 q31 -9.5 50.5 -27 q19.5 -17.5 28.5 -41 q9 -23.5 9 -51.5 q0 -63 -27 -103 q-27 -40 -74 -49 q-4 21 -13 40 q-9 19 -22.5 33.5 q-13.5 14.5 -33 23.5 q-19.5 9 -45.5 9 q-31 0 -56.5 -12.5 q-25.5 -12.5 -49.5 -39.5 q-24 -27 -49.5 -70 q-25.5 -43 -57.5 -105 q-34 -64 -60 -111 q-26 -47 -49.5 -80.5 q-23.5 -33.5 -45 -57.5 q-21.5 -24 -46.5 -42 q45 0 86 -14 q41 -14 77 -39 q36 -25 66 -60.5 q30 -35.5 54 -78.5 l166 -297 q27 -49 52.5 -84 q25.5 -35 51 -57 q25.5 -22 53.5 -32.5 q28 -10.5 60 -10.5 l12 0 l0 -109 l-145 0 q-79 0 -134.5 12.5 q-55.5 12.5 -95 37.5 q-39.5 25 -68.5 61 q-29 36 -55 84 l-194 354 q-25 45 -49 70 q-24 25 -51.5 38 q-27.5 13 -59.5 16 q-32 3 -72 3 l0 -434 q0 -44 8.5 -70 q8.5 -26 22.5 -40 q14 -14 34 -18.5 q20 -4.5 42 -4.5 l86 0 l0 -109 l-666 0 l0 109 l86 0 q22 0 41 4 q19 4 33.5 16.5 q14.5 12.5 22.5 37 q8 24.5 8 64.5 l0 445 q-40 0 -72 -3 q-32 -3 -59.5 -16 q-27.5 -13 -51.5 -38 q-24 -25 -49 -70 l-194 -354 q-26 -48 -55 -84 q-29 -36 -68.5 -61 q-39.5 -25 -95 -37.5 q-55.5 -12.5 -134.5 -12.5 l-145 0 l0 109 l12 0 q32 0 60 10.5 q28 10.5 53.5 32.5 q25.5 22 51 57 q25.5 35 52.5 84 l166 297 q24 43 54 78.5 q30 35.5 66 60.5 q36 25 77 39 q41 14 86 14 q-25 18 -46.5 42 q-21.5 24 -45 57.5 q-23.5 33.5 -49.5 80.5 q-26 47 -60 111 q-32 62 -57.5 105 q-25.5 43 -49.5 70 q-24 27 -49 39.5 q-25 12.5 -57 12.5 q-26 0 -45.5 -9 q-19.5 -9 -33 -23.5 q-13.5 -14.5 -22 -33.5 q-8.5 -19 -13.5 -40 q-47 9 -74 49 q-27 40 -27 103 q0 28 9 51.5 q9 23.5 28.5 41 q19.5 17.5 50.5 27 q31 9.5 74 9.5 q62 0 111 -18.5 q49 -18.5 91.5 -58.5 q42.5 -40 82 -103.5 q39.5 -63.5 84.5 -153.5 q55 -113 100.5 -186.5 q45.5 -73.5 73.5 -102.5 q16 -17 32 -28.5 q16 -11.5 35.5 -18 q19.5 -6.5 44 -9.5 q24.5 -3 58.5 -3 l0 436 Z" /><glyph glyph-name="afii10025" unicode="&#x417;" d="M586 -23 q-135 0 -231.5 25.5 q-96.5 25.5 -159 68 q-62.5 42.5 -92 98 q-29.5 55.5 -29.5 114.5 q0 81 54 129.5 q54 48.5 163 48.5 q9 -80 31 -145 q22 -65 58.5 -111 q36.5 -46 89 -71 q52.5 -25 122.5 -25 q132 0 207 71.5 q75 71.5 75 225.5 q0 68 -20 121.5 q-20 53.5 -63.5 90 q-43.5 36.5 -111 55.5 q-67.5 19 -161.5 19 l-188 0 l0 127 l184 0 q155 0 233 74 q78 74 78 225 q0 57 -12 101.5 q-12 44.5 -38.5 75.5 q-26.5 31 -68 47 q-41.5 16 -100.5 16 q-65 0 -108 -26 q-43 -26 -68.5 -70 q-25.5 -44 -36 -101.5 q-10.5 -57.5 -10.5 -120.5 q-56 0 -105 7 q-49 7 -85 26 q-36 19 -57 52 q-21 33 -21 85 q0 55 34 104.5 q34 49.5 98 87 q64 37.5 155.5 59.5 q91.5 22 205.5 22 q117 0 214.5 -20 q97.5 -20 168 -62 q70.5 -42 109.5 -106.5 q39 -64.5 39 -153.5 q0 -80 -26.5 -142.5 q-26.5 -62.5 -71.5 -109 q-45 -46.5 -105.5 -77 q-60.5 -30.5 -128.5 -46.5 q57 -6 123.5 -25.5 q66.5 -19.5 124.5 -59.5 q58 -40 96.5 -104 q38.5 -64 38.5 -159 q0 -119 -48 -202.5 q-48 -83.5 -130.5 -136.5 q-82.5 -53 -192.5 -77.5 q-110 -24.5 -233 -24.5 Z" /><glyph glyph-name="afii10026" unicode="&#x418;" d="M1106 1010 l-535 -686 l0 -82 q0 -44 8.5 -70 q8.5 -26 22.5 -40 q14 -14 33 -18.5 q19 -4.5 41 -4.5 l88 0 l0 -109 l-707 0 l0 109 l86 0 q22 0 41 4.5 q19 4.5 33.5 18.5 q14.5 14 22.5 40 q8 26 8 70 l0 987 q0 41 -8.5 65.5 q-8.5 24.5 -23 37.5 q-14.5 13 -33.5 17.5 q-19 4.5 -40 4.5 l-86 0 l0 108 l707 0 l0 -108 l-88 0 q-22 0 -41 -4.5 q-19 -4.5 -33 -18.5 q-14 -14 -22.5 -40 q-8.5 -26 -8.5 -70 l0 -721 l535 686 l0 35 q0 44 -8 70 q-8 26 -22.5 40 q-14.5 14 -33.5 18.5 q-19 4.5 -41 4.5 l-88 0 l0 108 l707 0 l0 -108 l-86 0 q-21 0 -40 -4.5 q-19 -4.5 -33.5 -18.5 q-14.5 -14 -22.5 -40 q-8 -26 -8 -70 l0 -990 q0 -40 8.5 -64.5 q8.5 -24.5 23 -37 q14.5 -12.5 33 -16.5 q18.5 -4 39.5 -4 l86 0 l0 -109 l-707 0 l0 109 l88 0 q22 0 41 4.5 q19 4.5 33.5 18.5 q14.5 14 22.5 40 q8 26 8 70 l0 768 Z" /><glyph glyph-name="afii10028" unicode="&#x41a;" d="M1329 0 q-79 0 -137.5 12.5 q-58.5 12.5 -102 37.5 q-43.5 25 -75.5 61 q-32 36 -58 84 l-194 354 q-25 45 -46 70 q-21 25 -44.5 38 q-23.5 13 -52 16 q-28.5 3 -68.5 3 l0 -434 q0 -44 8.5 -70 q8.5 -26 22.5 -40 q14 -14 33.5 -18.5 q19.5 -4.5 41.5 -4.5 l86 0 l0 -109 l-686 0 l0 109 l86 0 q22 0 41 4 q19 4 33.5 16.5 q14.5 12.5 22.5 37 q8 24.5 8 64.5 l0 998 q0 41 -8 65.5 q-8 24.5 -22.5 37.5 q-14.5 13 -33.5 17.5 q-19 4.5 -41 4.5 l-86 0 l0 108 l686 0 l0 -108 l-86 0 q-22 0 -41.5 -4.5 q-19.5 -4.5 -33.5 -18.5 q-14 -14 -22.5 -40 q-8.5 -26 -8.5 -70 l0 -428 q34 0 58.5 3 q24.5 3 44 9.5 q19.5 6.5 35.5 18 q16 11.5 32 28.5 q28 29 73 102.5 q45 73.5 101 186.5 q45 90 84.5 153.5 q39.5 63.5 82 103.5 q42.5 40 91.5 58.5 q49 18.5 111 18.5 q86 0 123.5 -36.5 q37.5 -36.5 37.5 -92.5 q0 -63 -27 -103 q-27 -40 -73 -49 q-4 21 -13 40 q-9 19 -23 33.5 q-14 14.5 -33.5 23.5 q-19.5 9 -45.5 9 q-31 0 -56.5 -12.5 q-25.5 -12.5 -49.5 -39.5 q-24 -27 -49.5 -70 q-25.5 -43 -57.5 -105 q-34 -64 -60 -111 q-26 -47 -49 -80.5 q-23 -33.5 -45 -57.5 q-22 -24 -46 -42 q45 0 86 -14 q41 -14 76.5 -39 q35.5 -25 65.5 -60.5 q30 -35.5 54 -78.5 l166 -297 q28 -49 53 -84 q25 -35 51 -57 q26 -22 53.5 -32.5 q27.5 -10.5 59.5 -10.5 l13 0 l0 -109 l-146 0 Z" /><glyph glyph-name="afii10029" unicode="&#x41b;" d="M725 0 l0 109 l88 0 q21 0 40.5 4.5 q19.5 4.5 33.5 18.5 q14 14 22.5 40 q8.5 26 8.5 70 l0 1112 l-267 0 q-6 -128 -18 -269 q-12 -141 -30.5 -280 q-18.5 -139 -42.5 -267 q-24 -128 -54 -229 q-28 -94 -63.5 -156 q-35.5 -62 -78 -99 q-42.5 -37 -93 -52.5 q-50.5 -15.5 -107.5 -15.5 q-74 0 -119 39.5 q-45 39.5 -45 113.5 q0 31 8.5 56.5 q8.5 25.5 22.5 43.5 q14 18 32 27.5 q18 9.5 37 9.5 q0 -40 25 -68 q25 -28 65 -28 q34 0 62.5 12.5 q28.5 12.5 53.5 42.5 q25 30 46.5 81.5 q21.5 51.5 42.5 129.5 q18 66 33 147 q15 81 27.5 165 q12.5 84 22 166.5 q9.5 82.5 16 152 q6.5 69.5 9.5 121 q3 51.5 3 74.5 q0 28 -13 44.5 q-13 16.5 -35.5 25 q-22.5 8.5 -52 10.5 q-29.5 2 -63.5 2 l-31 0 l0 108 l1121 0 l0 -108 l-86 0 q-22 0 -41 -4.5 q-19 -4.5 -33.5 -18.5 q-14.5 -14 -22.5 -40.5 q-8 -26.5 -8 -69.5 l0 -990 q0 -41 8.5 -65 q8.5 -24 23 -36.5 q14.5 -12.5 33.5 -16.5 q19 -4 40 -4 l86 0 l0 -109 l-707 0 Z" /><glyph glyph-name="afii10037" unicode="&#x423;" d="M1421 1354 l-39 0 q-30 0 -50.5 -7 q-20.5 -7 -37.5 -25 q-17 -18 -32.5 -49 q-15.5 -31 -34.5 -79 l-299 -770 q-34 -87 -64.5 -152.5 q-30.5 -65.5 -64.5 -113 q-34 -47.5 -74.5 -78 q-40.5 -30.5 -92.5 -48.5 q-52 -18 -119.5 -25 q-67.5 -7 -156.5 -7 l-127 0 l0 119 l90 0 q52 0 104.5 9.5 q52.5 9.5 98.5 28.5 q46 19 81 47 q35 28 52 66 l-483 975 q-15 30 -28 51 q-13 21 -29.5 33.5 q-16.5 12.5 -37 18.5 q-20.5 6 -50.5 6 l-27 0 l0 108 l702 0 l0 -108 l-73 0 q-53 0 -82 -19 q-29 -19 -29 -65 q0 -29 9.5 -57 q9.5 -28 25.5 -60 l156 -330 q17 -36 35.5 -76 q18.5 -40 35 -80.5 q16.5 -40.5 29.5 -79.5 q13 -39 20 -73 q13 42 28.5 86.5 q15.5 44.5 37.5 101.5 l149 410 q19 50 29 87 q10 37 10 54 q0 53 -33.5 77 q-33.5 24 -101.5 24 l-43 0 l0 108 l516 0 l0 -108 Z" /><glyph glyph-name="afii10040" unicode="&#x426;" d="M1606 -430 l-136 0 q0 114 -14.5 195 q-14.5 81 -46 133.5 q-31.5 52.5 -81 77 q-49.5 24.5 -120.5 24.5 l-1151 0 l0 109 l86 0 q21 0 40 4 q19 4 33.5 17.5 q14.5 13.5 23 38 q8.5 24.5 8.5 64.5 l0 988 q0 44 -8 70 q-8 26 -22.5 40 q-14.5 14 -33.5 18.5 q-19 4.5 -41 4.5 l-86 0 l0 108 l707 0 l0 -108 l-88 0 q-22 0 -41 -4.5 q-19 -4.5 -33 -18.5 q-14 -14 -22.5 -40 q-8.5 -26 -8.5 -70 l0 -1096 l514 0 l0 1096 q0 44 -8 70 q-8 26 -22.5 40 q-14.5 14 -33.5 18.5 q-19 4.5 -40 4.5 l-88 0 l0 108 l706 0 l0 -108 l-86 0 q-21 0 -39.5 -4 q-18.5 -4 -33 -17 q-14.5 -13 -23 -37 q-8.5 -24 -8.5 -65 l0 -1106 l197 0 l0 -555 Z" /><glyph glyph-name="afii10041" unicode="&#x427;" d="M1350 242 q0 -44 8 -70 q8 -26 22 -40 q14 -14 33 -18.5 q19 -4.5 41 -4.5 l86 0 l0 -109 l-706 0 l0 109 l86 0 q22 0 41 4.5 q19 4.5 33 18.5 q14 14 22 40 q8 26 8 70 l0 352 q-26 -11 -61.5 -23.5 q-35.5 -12.5 -81 -23.5 q-45.5 -11 -101 -18 q-55.5 -7 -121.5 -7 q-103 0 -186.5 21.5 q-83.5 21.5 -142 72.5 q-58.5 51 -90 136.5 q-31.5 85.5 -31.5 212.5 l0 256 q0 44 -8 70 q-8 26 -22 40 q-14 14 -33 18.5 q-19 4.5 -42 4.5 l-65 0 l0 108 l686 0 l0 -108 l-86 0 q-22 0 -41 -4.5 q-19 -4.5 -33 -18.5 q-14 -14 -22 -40 q-8 -26 -8 -70 l0 -250 q0 -81 14 -136 q14 -55 43 -88 q29 -33 74.5 -47 q45.5 -14 109.5 -14 q39 0 76 5 q37 5 69 12 q32 7 58.5 16 q26.5 9 44.5 16 l0 486 q0 44 -8 70 q-8 26 -22 40 q-14 14 -33 18.5 q-19 4.5 -41 4.5 l-86 0 l0 108 l706 0 l0 -108 l-86 0 q-22 0 -41 -4.5 q-19 -4.5 -33 -18.5 q-14 -14 -22 -40 q-8 -26 -8 -70 l0 -979 Z" /><glyph glyph-name="afii10042" unicode="&#x428;" d="M57 0 l0 109 l86 0 q21 0 40 4 q19 4 33.5 17.5 q14.5 13.5 23 38 q8.5 24.5 8.5 64.5 l0 988 q0 44 -8 70 q-8 26 -22.5 40 q-14.5 14 -33.5 18.5 q-19 4.5 -41 4.5 l-86 0 l0 108 l674 0 l0 -108 l-67 0 q-22 0 -41 -4.5 q-19 -4.5 -33 -18.5 q-14 -14 -22.5 -40 q-8.5 -26 -8.5 -70 l0 -1096 l451 0 l0 1096 q0 44 -8 70 q-8 26 -22.5 40 q-14.5 14 -33.5 18.5 q-19 4.5 -41 4.5 l-67 0 l0 108 l653 0 l0 -108 l-66 0 q-21 0 -39.5 -4 q-18.5 -4 -33 -17 q-14.5 -13 -23 -37 q-8.5 -24 -8.5 -65 l0 -1106 l451 0 l0 1096 q0 44 -8.5 70 q-8.5 26 -22.5 40 q-14 14 -33.5 18.5 q-19.5 4.5 -40.5 4.5 l-68 0 l0 108 l674 0 l0 -108 l-86 0 q-21 0 -40 -4.5 q-19 -4.5 -33.5 -18.5 q-14.5 -14 -22.5 -40 q-8 -26 -8 -70 l0 -988 q0 -40 8.5 -64.5 q8.5 -24.5 23 -38 q14.5 -13.5 33 -17.5 q18.5 -4 39.5 -4 l86 0 l0 -109 l-2216 0 Z" /><glyph glyph-name="afii10043" unicode="&#x429;" d="M2083 125 l196 0 l0 -555 l-135 0 q0 111 -13.5 192.5 q-13.5 81.5 -43.5 134 q-30 52.5 -77 78 q-47 25.5 -114 25.5 l-1839 0 l0 109 l86 0 q21 0 40 4 q19 4 33.5 17.5 q14.5 13.5 23 38 q8.5 24.5 8.5 64.5 l0 988 q0 44 -8 70 q-8 26 -22.5 40 q-14.5 14 -33.5 18.5 q-19 4.5 -41 4.5 l-86 0 l0 108 l674 0 l0 -108 l-67 0 q-22 0 -41 -4.5 q-19 -4.5 -33 -18.5 q-14 -14 -22.5 -40 q-8.5 -26 -8.5 -70 l0 -1096 l451 0 l0 1096 q0 44 -8 70 q-8 26 -22.5 40 q-14.5 14 -33.5 18.5 q-19 4.5 -41 4.5 l-67 0 l0 108 l653 0 l0 -108 l-66 0 q-21 0 -39.5 -4 q-18.5 -4 -33 -17 q-14.5 -13 -23 -37 q-8.5 -24 -8.5 -65 l0 -1106 l451 0 l0 1096 q0 44 -8.5 70 q-8.5 26 -22.5 40 q-14 14 -33.5 18.5 q-19.5 4.5 -40.5 4.5 l-68 0 l0 108 l674 0 l0 -108 l-86 0 q-21 0 -40 -4.5 q-19 -4.5 -33.5 -18.5 q-14.5 -14 -22.5 -40 q-8 -26 -8 -70 l0 -1096 Z" /><glyph glyph-name="afii10044" unicode="&#x42a;" d="M1022 1462 l0 -108 l-125 0 q-56 0 -82.5 -27.5 q-26.5 -27.5 -26.5 -95.5 l0 -408 l130 0 q147 0 250 -30 q103 -30 168.5 -84 q65.5 -54 95.5 -129.5 q30 -75.5 30 -165.5 q0 -92 -33.5 -168.5 q-33.5 -76.5 -102 -131 q-68.5 -54.5 -173 -84.5 q-104.5 -30 -246.5 -30 l-633 0 l0 109 l86 0 q31 0 51 7.5 q20 7.5 32 23.5 q12 16 17 42 q5 26 5 62 l0 1093 l-123 0 q-46 0 -77 -10 q-31 -10 -50.5 -28.5 q-19.5 -18.5 -29 -45.5 q-9.5 -27 -13.5 -61 l-14 -127 l-138 0 l11 397 l991 0 ZM788 121 l101 0 q62 0 105.5 17.5 q43.5 17.5 70.5 52.5 q27 35 39 88 q12 53 12 124 q0 82 -14 139.5 q-14 57.5 -44 93.5 q-30 36 -77.5 52.5 q-47.5 16.5 -114.5 16.5 l-78 0 l0 -584 Z" /><glyph glyph-name="afii10045" unicode="&#x42b;" d="M805 1462 l0 -108 l-125 0 q-56 0 -82.5 -27.5 q-26.5 -27.5 -26.5 -95.5 l0 -408 l109 0 q147 0 250.5 -30 q103.5 -30 169 -84 q65.5 -54 95.5 -129.5 q30 -75.5 30 -165.5 q0 -92 -33.5 -168.5 q-33.5 -76.5 -102 -131 q-68.5 -54.5 -173 -84.5 q-104.5 -30 -246.5 -30 l-613 0 l0 109 l86 0 q31 0 51 7.5 q20 7.5 32 23.5 q12 16 17 42 q5 26 5 62 l0 977 q0 42 -7.5 68 q-7.5 26 -21 40.5 q-13.5 14.5 -33 19.5 q-19.5 5 -43.5 5 l-86 0 l0 108 l748 0 ZM571 121 l80 0 q62 0 105.5 17.5 q43.5 17.5 70.5 52.5 q27 35 39.5 88 q12.5 53 12.5 124 q0 82 -14 139.5 q-14 57.5 -44 93.5 q-30 36 -77.5 52.5 q-47.5 16.5 -114.5 16.5 l-58 0 l0 -584 ZM1260 0 l0 109 l86 0 q22 0 41 4.5 q19 4.5 33 18.5 q14 14 22 40 q8 26 8 70 l0 979 q0 44 -8 70 q-8 26 -22 40 q-14 14 -33 18.5 q-19 4.5 -41 4.5 l-86 0 l0 108 l706 0 l0 -108 l-86 0 q-22 0 -41 -4.5 q-19 -4.5 -33 -18.5 q-14 -14 -22 -40 q-8 -26 -8 -70 l0 -979 q0 -44 8 -70 q8 -26 22 -40 q14 -14 33 -18.5 q19 -4.5 41 -4.5 l86 0 l0 -109 l-706 0 Z" /><glyph glyph-name="afii10046" unicode="&#x42c;" d="M805 1462 l0 -108 l-125 0 q-56 0 -82.5 -27.5 q-26.5 -27.5 -26.5 -95.5 l0 -408 l129 0 q147 0 250.5 -30 q103.5 -30 169 -84 q65.5 -54 95.5 -129.5 q30 -75.5 30 -165.5 q0 -92 -33.5 -168.5 q-33.5 -76.5 -102 -131 q-68.5 -54.5 -173 -84.5 q-104.5 -30 -246.5 -30 l-633 0 l0 109 l86 0 q31 0 51 7.5 q20 7.5 32 23.5 q12 16 17 42 q5 26 5 62 l0 977 q0 42 -7.5 68 q-7.5 26 -21 40.5 q-13.5 14.5 -33 19.5 q-19.5 5 -43.5 5 l-86 0 l0 108 l748 0 ZM571 121 l101 0 q62 0 105.5 17.5 q43.5 17.5 70.5 52.5 q27 35 39 88 q12 53 12 124 q0 82 -14 139.5 q-14 57.5 -44 93.5 q-30 36 -77.5 52.5 q-47.5 16.5 -114.5 16.5 l-78 0 l0 -584 Z" /><glyph glyph-name="afii10047" unicode="&#x42d;" d="M596 1483 q177 0 306.5 -54.5 q129.5 -54.5 214 -151.5 q84.5 -97 126 -229.5 q41.5 -132.5 41.5 -289.5 q0 -179 -46 -323 q-46 -144 -134 -245 q-88 -101 -215 -155.5 q-127 -54.5 -289 -54.5 q-144 0 -244 26 q-100 26 -162.5 70 q-62.5 44 -90 100.5 q-27.5 56.5 -27.5 118.5 q0 80 56 126 q56 46 153 46 q9 -77 32 -142 q23 -65 62 -112.5 q39 -47.5 94 -74.5 q55 -27 129 -27 q82 0 144 42 q62 42 104 116.5 q42 74.5 64.5 177.5 q22.5 103 25.5 225 l-481 0 l0 123 l481 0 q-3 133 -22 237 q-19 104 -58 175 q-39 71 -101.5 108 q-62.5 37 -152.5 37 q-62 0 -107 -27 q-45 -27 -74 -69.5 q-29 -42.5 -42.5 -95 q-13.5 -52.5 -13.5 -103.5 q-58 0 -105.5 11.5 q-47.5 11.5 -81.5 33.5 q-34 22 -52.5 54.5 q-18.5 32.5 -18.5 74.5 q0 49 29 94.5 q29 45.5 89 80.5 q60 35 151 56 q91 21 216 21 Z" /><glyph glyph-name="afii10048" unicode="&#x42e;" d="M2165 733 q0 -169 -43 -308 q-43 -139 -126 -238 q-83 -99 -204.5 -153 q-121.5 -54 -278.5 -54 q-161 0 -282 51 q-121 51 -202 145.5 q-81 94.5 -123 227.5 q-42 133 -46 296 l-289 0 l0 -458 q0 -44 8.5 -70 q8.5 -26 22.5 -40 q14 -14 33 -18.5 q19 -4.5 41 -4.5 l88 0 l0 -109 l-707 0 l0 109 l86 0 q22 0 41 4.5 q19 4.5 33.5 18.5 q14.5 14 22.5 40 q8 26 8 70 l0 987 q0 41 -8.5 65.5 q-8.5 24.5 -23 37.5 q-14.5 13 -33.5 17.5 q-19 4.5 -40 4.5 l-86 0 l0 108 l707 0 l0 -108 l-88 0 q-22 0 -41 -4.5 q-19 -4.5 -33 -18.5 q-14 -14 -22.5 -40 q-8.5 -26 -8.5 -70 l0 -396 l291 0 q10 151 55.5 273 q45.5 122 126.5 208 q81 86 199 132.5 q118 46.5 273 46.5 q156 0 276.5 -53.5 q120.5 -53.5 203.5 -152 q83 -98.5 126 -237 q43 -138.5 43 -309.5 ZM1204 733 q0 -147 16.5 -262 q16.5 -115 53.5 -194.5 q37 -79.5 96 -121.5 q59 -42 143 -42 q85 0 143.5 42 q58.5 42 95 121.5 q36.5 79.5 53 194.5 q16.5 115 16.5 262 q0 147 -16.5 262 q-16.5 115 -52.5 194.5 q-36 79.5 -94 121 q-58 41.5 -142 41.5 q-85 0 -144.5 -41.5 q-59.5 -41.5 -97 -121 q-37.5 -79.5 -54 -194.5 q-16.5 -115 -16.5 -262 Z" /><glyph glyph-name="afii10049" unicode="&#x42f;" d="M1389 0 l-707 0 l0 109 l88 0 q21 0 39.5 4 q18.5 4 33 16.5 q14.5 12.5 23 37 q8.5 24.5 8.5 64.5 l0 404 l-153 0 l-205 -410 q-37 -73 -78.5 -117.5 q-41.5 -44.5 -95.5 -68.5 q-54 -24 -123.5 -31.5 q-69.5 -7.5 -161.5 -7.5 l-67 0 l0 109 l8 0 q59 0 111.5 38.5 q52.5 38.5 101.5 128.5 l225 416 q-51 21 -99.5 54 q-48.5 33 -86 81 q-37.5 48 -60 111.5 q-22.5 63.5 -22.5 144.5 q0 185 135.5 282 q135.5 97 425.5 97 l660 0 l0 -108 l-86 0 q-21 0 -40 -4.5 q-19 -4.5 -33.5 -17.5 q-14.5 -13 -23 -37.5 q-8.5 -24.5 -8.5 -65.5 l0 -998 q0 -40 8.5 -64.5 q8.5 -24.5 23 -37 q14.5 -12.5 33.5 -16.5 q19 -4 40 -4 l86 0 l0 -109 ZM874 1341 l-110 0 q-68 0 -116 -15.5 q-48 -15.5 -78 -50 q-30 -34.5 -44 -88.5 q-14 -54 -14 -132 q0 -75 12 -131.5 q12 -56.5 41 -94 q29 -37.5 76.5 -56.5 q47.5 -19 118.5 -19 l114 0 l0 587 Z" /><glyph glyph-name="afii10066" unicode="&#x431;" d="M98 653 q0 116 9 221 q9 105 31.5 195.5 q22.5 90.5 62 165 q39.5 74.5 100.5 130 q61 55.5 146 90.5 q85 35 200 46 q76 8 141 13.5 q65 5.5 115.5 13.5 q50.5 8 84 19.5 q33.5 11.5 46.5 31.5 l96 0 q-3 -103 -36 -163.5 q-33 -60.5 -95 -94 q-62 -33.5 -152.5 -50 q-90.5 -16.5 -209.5 -32.5 q-84 -7 -145 -18 q-61 -11 -103.5 -30.5 q-42.5 -19.5 -70 -48.5 q-27.5 -29 -43.5 -71.5 q-16 -42.5 -23.5 -100.5 q-7.5 -58 -11.5 -134 l8 0 q18 47 52 88 q34 41 83 71.5 q49 30.5 112.5 48 q63.5 17.5 141.5 17.5 q261 0 391.5 -135.5 q130.5 -135.5 130.5 -403.5 q0 -131 -32.5 -232 q-32.5 -101 -98.5 -170 q-66 -69 -167 -104.5 q-101 -35.5 -238 -35.5 q-260 0 -392.5 165 q-132.5 165 -132.5 508 ZM842 520 q0 102 -11.5 179.5 q-11.5 77.5 -37 129 q-25.5 51.5 -67.5 77.5 q-42 26 -103 26 q-62 0 -102.5 -26 q-40.5 -26 -64 -77.5 q-23.5 -51.5 -33 -129 q-9.5 -77.5 -9.5 -179.5 q0 -202 49.5 -306.5 q49.5 -104.5 159.5 -104.5 q61 0 103 26.5 q42 26.5 67.5 78.5 q25.5 52 37 129 q11.5 77 11.5 177 Z" /><glyph glyph-name="afii10067" unicode="&#x432;" d="M35 109 l24 0 q23 0 48.5 4.5 q25.5 4.5 47 18.5 q21.5 14 36 40 q14.5 26 14.5 70 l0 622 q0 41 -14.5 65.5 q-14.5 24.5 -36.5 38 q-22 13.5 -47.5 17.5 q-25.5 4 -47.5 4 l-24 0 l0 109 l645 0 q229 0 338.5 -67 q109.5 -67 109.5 -195 q0 -61 -18 -107 q-18 -46 -49.5 -78 q-31.5 -32 -75.5 -50.5 q-44 -18.5 -96 -25.5 l0 -10 q59 -5 112.5 -22 q53.5 -17 94 -48.5 q40.5 -31.5 64.5 -78 q24 -46.5 24 -111.5 q0 -67 -26 -123.5 q-26 -56.5 -80.5 -96.5 q-54.5 -40 -138 -62.5 q-83.5 -22.5 -198.5 -22.5 l-706 0 l0 109 ZM662 117 q52 0 89 9 q37 9 61 31.5 q24 22.5 35 62 q11 39.5 11 99.5 q0 54 -13.5 90 q-13.5 36 -40 57.5 q-26.5 21.5 -65 30.5 q-38.5 9 -88.5 9 l-135 0 l0 -389 l146 0 ZM821 813 q0 40 -8.5 71.5 q-8.5 31.5 -28.5 53 q-20 21.5 -52 32.5 q-32 11 -79 11 l-137 0 l0 -356 l137 0 q92 0 130 50 q38 50 38 138 Z" /><glyph glyph-name="afii10068" unicode="&#x433;" d="M516 242 q0 -44 13.5 -70 q13.5 -26 33.5 -40 q20 -14 43.5 -18.5 q23.5 -4.5 44.5 -4.5 l45 0 l0 -109 l-661 0 l0 109 l24 0 q23 0 48.5 4.5 q25.5 4.5 47 18.5 q21.5 14 36 40 q14.5 26 14.5 70 l0 614 q0 44 -14.5 70 q-14.5 26 -36 40 q-21.5 14 -47 18.5 q-25.5 4.5 -48.5 4.5 l-24 0 l0 109 l964 0 l0 -348 l-141 0 l-10 88 q-5 48 -15 76.5 q-10 28.5 -26.5 43.5 q-16.5 15 -41.5 19 q-25 4 -60 4 l-189 0 l0 -739 Z" /><glyph glyph-name="afii10069" unicode="&#x434;" d="M1204 1098 l0 -109 l-24 0 q-22 0 -48 -4.5 q-26 -4.5 -47.5 -18.5 q-21.5 -14 -36 -40 q-14.5 -26 -14.5 -70 l0 -631 q0 -36 12 -58.5 q12 -22.5 32.5 -35 q20.5 -12.5 47.5 -17 q27 -4.5 56 -5.5 l47 0 l0 -539 l-142 0 l-10 149 q-5 77 -23.5 130.5 q-18.5 53.5 -45 87 q-26.5 33.5 -58.5 48.5 q-32 15 -65 15 l-508 0 q-48 0 -83.5 -15 q-35.5 -15 -59.5 -48.5 q-24 -33.5 -37.5 -87 q-13.5 -53.5 -18.5 -130.5 l-10 -149 l-141 0 l0 547 l141 0 q29 48 61.5 123.5 q32.5 75.5 63.5 183.5 q16 57 31 118 q15 61 26 120.5 q11 59.5 18 113 q7 53.5 7 94.5 q0 38 -13.5 61.5 q-13.5 23.5 -36.5 36 q-23 12.5 -53.5 17 q-30.5 4.5 -64.5 4.5 l-8 0 l0 109 l1005 0 ZM733 981 l-219 0 q-17 -198 -46.5 -352 q-29.5 -154 -61.5 -262 q-14 -46 -26 -82.5 q-12 -36.5 -23 -66 q-11 -29.5 -22.5 -54 q-11.5 -24.5 -23.5 -47.5 l422 0 l0 864 Z" /><glyph glyph-name="afii10072" unicode="&#x436;" d="M649 109 l4 0 q23 0 48.5 4.5 q25.5 4.5 47 18.5 q21.5 14 36 40 q14.5 26 14.5 70 l0 276 q-32 0 -56.5 -4.5 q-24.5 -4.5 -45 -18.5 q-20.5 -14 -39.5 -39 q-19 -25 -42 -67 l-104 -194 q-34 -64 -73.5 -102.5 q-39.5 -38.5 -89.5 -59 q-50 -20.5 -114.5 -27 q-64.5 -6.5 -148.5 -6.5 l-86 0 l0 109 l6 0 q35 0 61.5 5.5 q26.5 5.5 50 20.5 q23.5 15 45 42 q21.5 27 46.5 69 l113 192 q27 46 57 78 q30 32 62 53 q32 21 65.5 32 q33.5 11 66.5 15 q-17 14 -33 30.5 q-16 16.5 -34 38.5 q-18 22 -39 51.5 q-21 29.5 -47 68.5 q-28 41 -50.5 70.5 q-22.5 29.5 -42 48.5 q-19.5 19 -37.5 28 q-18 9 -36 9 q-45 0 -69.5 -29 q-24.5 -29 -32.5 -76 q-25 2 -47 12 q-22 10 -38.5 26.5 q-16.5 16.5 -26 39.5 q-9.5 23 -9.5 51 q0 24 8.5 46.5 q8.5 22.5 29 40 q20.5 17.5 54 28 q33.5 10.5 84.5 10.5 q61 0 104.5 -16.5 q43.5 -16.5 78 -46.5 q34.5 -30 64.5 -73 q30 -43 64 -97 q51 -79 83 -127.5 q32 -48.5 56 -73.5 q23 -23 54 -34 q31 -11 88 -11 l0 225 q0 44 -14.5 70 q-14.5 26 -36 40 q-21.5 14 -47 18.5 q-25.5 4.5 -48.5 4.5 l-4 0 l0 109 l580 0 l0 -109 l-4 0 q-21 0 -44.5 -4.5 q-23.5 -4.5 -44 -18.5 q-20.5 -14 -33.5 -40 q-13 -26 -13 -70 l0 -225 q56 0 87 11 q31 11 54 34 q25 25 56.5 73.5 q31.5 48.5 82.5 127.5 q34 54 64 97 q30 43 65 73 q35 30 78.5 46.5 q43.5 16.5 103.5 16.5 q51 0 85 -10.5 q34 -10.5 54.5 -28 q20.5 -17.5 29 -40 q8.5 -22.5 8.5 -46.5 q0 -28 -10 -51 q-10 -23 -26.5 -39.5 q-16.5 -16.5 -38.5 -26.5 q-22 -10 -46 -12 q-8 47 -33 76 q-25 29 -70 29 q-18 0 -36 -9 q-18 -9 -37.5 -28 q-19.5 -19 -42 -48.5 q-22.5 -29.5 -50.5 -70.5 q-26 -39 -46.5 -68.5 q-20.5 -29.5 -38.5 -51.5 q-18 -22 -34.5 -38.5 q-16.5 -16.5 -33.5 -30.5 q33 -4 66.5 -15 q33.5 -11 65.5 -32 q32 -21 62.5 -53 q30.5 -32 57.5 -78 l112 -192 q25 -42 47 -69 q22 -27 45 -42 q23 -15 50 -20.5 q27 -5.5 61 -5.5 l6 0 l0 -109 l-86 0 q-84 0 -148.5 6.5 q-64.5 6.5 -114.5 27 q-50 20.5 -89 59 q-39 38.5 -74 102.5 l-104 194 q-22 42 -41.5 67 q-19.5 25 -40 39 q-20.5 14 -44.5 18.5 q-24 4.5 -56 4.5 l0 -276 q0 -44 13 -70 q13 -26 33.5 -40 q20.5 -14 44 -18.5 q23.5 -4.5 44.5 -4.5 l4 0 l0 -109 l-580 0 l0 109 Z" /><glyph glyph-name="afii10073" unicode="&#x437;" d="M496 94 q50 0 86 16 q36 16 59 44.5 q23 28.5 34 67 q11 38.5 11 83.5 q0 99 -57 150 q-57 51 -180 51 l-138 0 l0 131 l140 0 q57 0 95.5 15.5 q38.5 15.5 62 42.5 q23.5 27 33 62 q9.5 35 9.5 74 q0 37 -7.5 69 q-7.5 32 -24 55.5 q-16.5 23.5 -43.5 37 q-27 13.5 -66 13.5 q-47 0 -78.5 -20.5 q-31.5 -20.5 -51 -54.5 q-19.5 -34 -28 -77.5 q-8.5 -43.5 -8.5 -89.5 q-63 0 -105 10.5 q-42 10.5 -66.5 29.5 q-24.5 19 -35 46 q-10.5 27 -10.5 61 q0 36 19.5 73.5 q19.5 37.5 65 68 q45.5 30.5 121 50 q75.5 19.5 187.5 19.5 q106 0 189 -17.5 q83 -17.5 140 -52 q57 -34.5 86.5 -85 q29.5 -50.5 29.5 -115.5 q0 -49 -16.5 -92.5 q-16.5 -43.5 -47 -78.5 q-30.5 -35 -74.5 -61 q-44 -26 -98 -40 l0 -11 q131 -24 201.5 -85 q70.5 -61 70.5 -171 q0 -76 -32.5 -137 q-32.5 -61 -96 -104 q-63.5 -43 -158 -66.5 q-94.5 -23.5 -218.5 -23.5 q-120 0 -201.5 18.5 q-81.5 18.5 -131.5 50.5 q-50 32 -71.5 74 q-21.5 42 -21.5 90 q0 75 47.5 116.5 q47.5 41.5 154.5 41.5 q0 -59 15 -110 q15 -51 43.5 -88.5 q28.5 -37.5 70.5 -59 q42 -21.5 95 -21.5 Z" /><glyph glyph-name="afii10074" unicode="&#x438;" d="M1210 242 q0 -44 14.5 -70 q14.5 -26 36 -40 q21.5 -14 47.5 -18.5 q26 -4.5 48 -4.5 l24 0 l0 -109 l-620 0 l0 109 l4 0 q21 0 44.5 4.5 q23.5 4.5 43.5 18.5 q20 14 33.5 40 q13.5 26 13.5 70 l0 440 l-383 -420 l0 -20 q0 -44 13.5 -70 q13.5 -26 33.5 -40 q20 -14 43.5 -18.5 q23.5 -4.5 44.5 -4.5 l4 0 l0 -109 l-620 0 l0 109 l24 0 q23 0 48.5 4.5 q25.5 4.5 47 18.5 q21.5 14 36 40 q14.5 26 14.5 70 l0 614 q0 44 -14.5 70 q-14.5 26 -36 40 q-21.5 14 -47 18.5 q-25.5 4.5 -48.5 4.5 l-24 0 l0 109 l620 0 l0 -109 l-4 0 q-21 0 -44.5 -4.5 q-23.5 -4.5 -43.5 -18.5 q-20 -14 -33.5 -40 q-13.5 -26 -13.5 -70 l0 -436 l383 420 l0 16 q0 44 -13.5 70 q-13.5 26 -33.5 40 q-20 14 -43.5 18.5 q-23.5 4.5 -44.5 4.5 l-4 0 l0 109 l620 0 l0 -109 l-24 0 q-22 0 -48 -4.5 q-26 -4.5 -47.5 -18.5 q-21.5 -14 -36 -40 q-14.5 -26 -14.5 -70 l0 -614 Z" /><glyph glyph-name="afii10076" unicode="&#x43a;" d="M35 109 l24 0 q23 0 48.5 4.5 q25.5 4.5 47 18.5 q21.5 14 36 40 q14.5 26 14.5 70 l0 614 q0 44 -14.5 70 q-14.5 26 -36 40 q-21.5 14 -47 18.5 q-25.5 4.5 -48.5 4.5 l-24 0 l0 109 l620 0 l0 -109 l-4 0 q-21 0 -44.5 -4.5 q-23.5 -4.5 -43.5 -18.5 q-20 -14 -33.5 -40 q-13.5 -26 -13.5 -70 l0 -225 q50 0 81 11 q31 11 54 34 q25 25 57 73.5 q32 48.5 83 127.5 q34 54 65 97 q31 43 66.5 73 q35.5 30 80 46.5 q44.5 16.5 105.5 16.5 q51 0 84.5 -10.5 q33.5 -10.5 54 -28 q20.5 -17.5 29 -40 q8.5 -22.5 8.5 -46.5 q0 -28 -9.5 -51 q-9.5 -23 -26 -39.5 q-16.5 -16.5 -38.5 -26.5 q-22 -10 -47 -12 q-8 47 -32.5 76 q-24.5 29 -69.5 29 q-18 0 -36 -9 q-18 -9 -37.5 -28 q-19.5 -19 -42 -48.5 q-22.5 -29.5 -50.5 -70.5 q-26 -39 -47 -68.5 q-21 -29.5 -39 -51.5 q-18 -22 -34.5 -38.5 q-16.5 -16.5 -33.5 -30.5 q33 -4 66.5 -15 q33.5 -11 66 -32 q32.5 -21 62.5 -53 q30 -32 57 -78 l113 -192 q24 -42 46 -69 q22 -27 45.5 -42 q23.5 -15 50.5 -20.5 q27 -5.5 61 -5.5 l6 0 l0 -109 l-86 0 q-84 0 -151.5 6.5 q-67.5 6.5 -121.5 27 q-54 20.5 -96.5 59 q-42.5 38.5 -77.5 102.5 l-104 194 q-22 42 -40 67 q-18 25 -36 39 q-18 14 -38 18.5 q-20 4.5 -48 4.5 l0 -276 q0 -44 13.5 -70 q13.5 -26 33.5 -40 q20 -14 43.5 -18.5 q23.5 -4.5 44.5 -4.5 l4 0 l0 -109 l-620 0 l0 109 Z" /><glyph glyph-name="afii10077" unicode="&#x43b;" d="M471 862 q0 41 -12.5 66 q-12.5 25 -34 38.5 q-21.5 13.5 -50.5 18 q-29 4.5 -63 4.5 l-26 0 l0 109 l1034 0 l0 -109 l-25 0 q-22 0 -47.5 -4.5 q-25.5 -4.5 -47 -18.5 q-21.5 -14 -36 -40 q-14.5 -26 -14.5 -70 l0 -614 q0 -44 14.5 -70 q14.5 -26 36 -40 q21.5 -14 47 -18.5 q25.5 -4.5 47.5 -4.5 l25 0 l0 -109 l-641 0 l0 109 l24 0 q21 0 45 4.5 q24 4.5 44 18.5 q20 14 33.5 40 q13.5 26 13.5 70 l0 739 l-232 0 q-20 -190 -51 -358 q-31 -168 -70 -306 q-27 -94 -57.5 -157.5 q-30.5 -63.5 -68 -102 q-37.5 -38.5 -83.5 -55 q-46 -16.5 -104 -16.5 q-82 0 -127 37.5 q-45 37.5 -45 105.5 q0 34 10.5 59 q10.5 25 27 41.5 q16.5 16.5 36.5 24.5 q20 8 39 8 q0 -37 22.5 -63.5 q22.5 -26.5 63.5 -26.5 q24 0 47.5 6.5 q23.5 6.5 48 33.5 q24.5 27 49.5 82 q25 55 51 152 q12 42 25 98 q13 56 24.5 114 q11.5 58 19 112 q7.5 54 7.5 92 Z" /><glyph glyph-name="afii10078" unicode="&#x43c;" d="M35 0 l0 109 l24 0 q23 0 48.5 4.5 q25.5 4.5 47 18.5 q21.5 14 36 40 q14.5 26 14.5 70 l0 614 q0 44 -14.5 70 q-14.5 26 -36 40 q-21.5 14 -47 18.5 q-25.5 4.5 -48.5 4.5 l-24 0 l0 109 l536 0 l303 -686 l310 686 l549 0 l0 -109 l-27 0 q-34 0 -64.5 -4.5 q-30.5 -4.5 -53.5 -18.5 q-23 -14 -36.5 -41.5 q-13.5 -27.5 -13.5 -72.5 l0 -606 q0 -45 13.5 -72.5 q13.5 -27.5 36.5 -41.5 q23 -14 53.5 -18.5 q30.5 -4.5 64.5 -4.5 l27 0 l0 -109 l-664 0 l0 109 l6 0 q34 0 64.5 4.5 q30.5 4.5 53.5 18.5 q23 14 36.5 41.5 q13.5 27.5 13.5 72.5 l0 631 l-14 0 l-398 -877 l-94 0 l-387 877 l-14 0 l0 -631 q0 -45 13.5 -72.5 q13.5 -27.5 36.5 -41.5 q23 -14 53.5 -18.5 q30.5 -4.5 64.5 -4.5 l6 0 l0 -109 l-475 0 Z" /><glyph glyph-name="afii10079" unicode="&#x43d;" d="M1210 242 q0 -44 14.5 -70 q14.5 -26 36 -40 q21.5 -14 47.5 -18.5 q26 -4.5 48 -4.5 l24 0 l0 -109 l-620 0 l0 109 l4 0 q21 0 44.5 4.5 q23.5 4.5 43.5 18.5 q20 14 33.5 40 q13.5 26 13.5 70 l0 264 l-383 0 l0 -264 q0 -44 13.5 -70 q13.5 -26 33.5 -40 q20 -14 43.5 -18.5 q23.5 -4.5 44.5 -4.5 l4 0 l0 -109 l-620 0 l0 109 l24 0 q23 0 48.5 4.5 q25.5 4.5 47 18.5 q21.5 14 36 40 q14.5 26 14.5 70 l0 614 q0 44 -14.5 70 q-14.5 26 -36 40 q-21.5 14 -47 18.5 q-25.5 4.5 -48.5 4.5 l-24 0 l0 109 l620 0 l0 -109 l-4 0 q-21 0 -44.5 -4.5 q-23.5 -4.5 -43.5 -18.5 q-20 -14 -33.5 -40 q-13.5 -26 -13.5 -70 l0 -233 l383 0 l0 233 q0 44 -13.5 70 q-13.5 26 -33.5 40 q-20 14 -43.5 18.5 q-23.5 4.5 -44.5 4.5 l-4 0 l0 109 l620 0 l0 -109 l-24 0 q-22 0 -48 -4.5 q-26 -4.5 -47.5 -18.5 q-21.5 -14 -36 -40 q-14.5 -26 -14.5 -70 l0 -614 Z" /><glyph glyph-name="afii10081" unicode="&#x43f;" d="M1339 109 l0 -109 l-620 0 l0 109 l4 0 q21 0 44.5 4.5 q23.5 4.5 43.5 18.5 q20 14 33.5 40 q13.5 26 13.5 70 l0 739 l-342 0 l0 -739 q0 -44 13.5 -70 q13.5 -26 33.5 -40 q20 -14 43.5 -18.5 q23.5 -4.5 44.5 -4.5 l4 0 l0 -109 l-620 0 l0 109 l24 0 q23 0 48.5 4.5 q25.5 4.5 47 18.5 q21.5 14 36 40 q14.5 26 14.5 70 l0 622 q0 41 -14.5 65.5 q-14.5 24.5 -36.5 38 q-22 13.5 -47.5 17.5 q-25.5 4 -47.5 4 l-24 0 l0 109 l1304 0 l0 -109 l-24 0 q-22 0 -47.5 -4 q-25.5 -4 -47.5 -17.5 q-22 -13.5 -36.5 -38 q-14.5 -24.5 -14.5 -65.5 l0 -622 q0 -44 14.5 -70 q14.5 -26 36 -40 q21.5 -14 47.5 -18.5 q26 -4.5 48 -4.5 l24 0 Z" /><glyph glyph-name="afii10084" unicode="&#x442;" d="M1108 1098 l12 -350 l-141 0 l-8 67 q-6 48 -14.5 80 q-8.5 32 -22 51 q-13.5 19 -32.5 27 q-19 8 -48 8 l-117 0 l0 -735 q0 -41 11 -67.5 q11 -26.5 30 -42 q19 -15.5 44 -21.5 q25 -6 52 -6 l23 0 l0 -109 l-641 0 l0 109 l23 0 q30 0 56.5 6 q26.5 6 46.5 21.5 q20 15.5 32 42 q12 26.5 12 67.5 l0 735 l-119 0 q-28 0 -47.5 -8 q-19.5 -8 -33 -27 q-13.5 -19 -22 -51 q-8.5 -32 -14.5 -80 l-8 -67 l-141 0 l12 350 l1055 0 Z" /><glyph glyph-name="afii10086" unicode="&#x444;" d="M551 -383 q22 0 47.5 4 q25.5 4 47 17.5 q21.5 13.5 36 39.5 q14.5 26 14.5 70 l0 242 q-137 7 -248 48.5 q-111 41.5 -189 113.5 q-78 72 -120.5 172.5 q-42.5 100.5 -42.5 226.5 q0 125 40 225 q40 100 116.5 171 q76.5 71 188 112 q111.5 41 255.5 49 l0 215 q0 41 -14.5 65.5 q-14.5 24.5 -36.5 38 q-22 13.5 -47.5 17.5 q-25.5 4 -46.5 4 l-25 0 l0 108 l465 0 l0 -450 q136 -9 246 -50 q110 -41 187 -112 q77 -71 119 -170 q42 -99 42 -223 q0 -126 -40 -226.5 q-40 -100.5 -116 -172.5 q-76 -72 -186.5 -113.5 q-110.5 -41.5 -251.5 -48.5 l0 -242 q0 -44 14.5 -70 q14.5 -26 36 -39.5 q21.5 -13.5 47.5 -17.5 q26 -4 48 -4 l24 0 l0 -109 l-635 0 l0 109 l25 0 ZM403 551 q0 -189 71.5 -300.5 q71.5 -111.5 221.5 -131.5 l0 856 q-151 -19 -222 -126.5 q-71 -107.5 -71 -297.5 ZM1278 551 q0 186 -71 295 q-71 109 -216 129 l0 -854 q147 20 217 130.5 q70 110.5 70 299.5 Z" /><glyph glyph-name="afii10088" unicode="&#x446;" d="M1339 1098 l0 -109 l-24 0 q-22 0 -48 -4.5 q-26 -4.5 -47.5 -18.5 q-21.5 -14 -36 -40 q-14.5 -26 -14.5 -70 l0 -631 q0 -36 12 -58.5 q12 -22.5 32.5 -35 q20.5 -12.5 47.5 -17 q27 -4.5 56 -5.5 l47 0 l0 -539 l-141 0 l-11 149 q-5 77 -23.5 130.5 q-18.5 53.5 -45 87 q-26.5 33.5 -58.5 48.5 q-32 15 -65 15 l-985 0 l0 109 l24 0 q22 0 47.5 4 q25.5 4 47.5 17.5 q22 13.5 36.5 38 q14.5 24.5 14.5 64.5 l0 623 q0 44 -14.5 70 q-14.5 26 -36 40 q-21.5 14 -47 18.5 q-25.5 4.5 -48.5 4.5 l-24 0 l0 109 l610 0 l0 -109 l-4 0 q-21 0 -44.5 -4.5 q-23.5 -4.5 -43.5 -18.5 q-20 -14 -33.5 -40 q-13.5 -26 -13.5 -70 l0 -739 l362 0 l0 747 q0 41 -13.5 65.5 q-13.5 24.5 -34 38 q-20.5 13.5 -44 17.5 q-23.5 4 -43.5 4 l-4 0 l0 109 l610 0 Z" /><glyph glyph-name="afii10089" unicode="&#x447;" d="M684 0 l0 109 l35 0 q34 0 63 4.5 q29 4.5 50.5 18.5 q21.5 14 34 41.5 q12.5 27.5 12.5 72.5 l0 260 q-51 -31 -97.5 -56 q-46.5 -25 -93.5 -43 q-47 -18 -98 -28 q-51 -10 -111 -10 q-70 0 -125 19.5 q-55 19.5 -93 55.5 q-38 36 -57.5 85.5 q-19.5 49.5 -19.5 109.5 l0 211 q0 75 -39.5 107 q-39.5 32 -105.5 32 l-6 0 l0 109 l602 0 l0 -109 l-4 0 q-23 0 -47 -5 q-24 -5 -43.5 -20 q-19.5 -15 -32 -42 q-12.5 -27 -12.5 -70 l0 -182 q0 -72 33 -103.5 q33 -31.5 98 -31.5 q32 0 60 4.5 q28 4.5 57.5 15 q29.5 10.5 62 27 q32.5 16.5 72.5 39.5 l0 229 q0 42 -11 68.5 q-11 26.5 -29.5 42.5 q-18.5 16 -43 22 q-24.5 6 -52.5 6 l-4 0 l0 109 l621 0 l0 -109 l-23 0 q-30 0 -56.5 -6 q-26.5 -6 -47 -21 q-20.5 -15 -32 -41.5 q-11.5 -26.5 -11.5 -68.5 l0 -606 q0 -42 11.5 -68.5 q11.5 -26.5 32 -41.5 q20.5 -15 47 -21 q26.5 -6 56.5 -6 l23 0 l0 -109 l-676 0 Z" /><glyph glyph-name="afii10090" unicode="&#x448;" d="M729 1098 l580 0 l0 -109 l-4 0 q-21 0 -45 -4.5 q-24 -4.5 -44 -18.5 q-20 -14 -33.5 -40 q-13.5 -26 -13.5 -70 l0 -739 l363 0 l0 739 q0 44 -13.5 70 q-13.5 26 -33.5 40 q-20 14 -43.5 18.5 q-23.5 4.5 -44.5 4.5 l-4 0 l0 109 l610 0 l0 -109 l-25 0 q-22 0 -47.5 -4.5 q-25.5 -4.5 -47 -18.5 q-21.5 -14 -36 -40 q-14.5 -26 -14.5 -70 l0 -623 q0 -40 14.5 -64.5 q14.5 -24.5 36.5 -38 q22 -13.5 47.5 -17.5 q25.5 -4 46.5 -4 l25 0 l0 -109 l-1968 0 l0 109 l24 0 q22 0 47.5 4 q25.5 4 47.5 17.5 q22 13.5 36.5 38 q14.5 24.5 14.5 64.5 l0 623 q0 44 -14.5 70 q-14.5 26 -36 40 q-21.5 14 -47 18.5 q-25.5 4.5 -48.5 4.5 l-24 0 l0 109 l610 0 l0 -109 l-4 0 q-21 0 -44.5 -4.5 q-23.5 -4.5 -43.5 -18.5 q-20 -14 -33.5 -40 q-13.5 -26 -13.5 -70 l0 -739 l362 0 l0 747 q0 41 -13.5 65.5 q-13.5 24.5 -34 38 q-20.5 13.5 -44 17.5 q-23.5 4 -43.5 4 l-4 0 l0 109 Z" /><glyph glyph-name="afii10091" unicode="&#x449;" d="M729 1098 l580 0 l0 -109 l-4 0 q-21 0 -45 -4.5 q-24 -4.5 -44 -18.5 q-20 -14 -33.5 -40 q-13.5 -26 -13.5 -70 l0 -739 l363 0 l0 739 q0 44 -13.5 70 q-13.5 26 -33.5 40 q-20 14 -43.5 18.5 q-23.5 4.5 -44.5 4.5 l-4 0 l0 109 l610 0 l0 -109 l-25 0 q-22 0 -47.5 -4.5 q-25.5 -4.5 -47 -18.5 q-21.5 -14 -36 -40 q-14.5 -26 -14.5 -70 l0 -631 q0 -36 12 -58.5 q12 -22.5 32.5 -35 q20.5 -12.5 47 -17 q26.5 -4.5 55.5 -5.5 l48 0 l0 -539 l-142 0 l-10 149 q-5 77 -23.5 130.5 q-18.5 53.5 -45 87 q-26.5 33.5 -59 48.5 q-32.5 15 -65.5 15 l-1648 0 l0 109 l24 0 q22 0 47.5 4 q25.5 4 47.5 17.5 q22 13.5 36.5 38 q14.5 24.5 14.5 64.5 l0 623 q0 44 -14.5 70 q-14.5 26 -36 40 q-21.5 14 -47 18.5 q-25.5 4.5 -48.5 4.5 l-24 0 l0 109 l610 0 l0 -109 l-4 0 q-21 0 -44.5 -4.5 q-23.5 -4.5 -43.5 -18.5 q-20 -14 -33.5 -40 q-13.5 -26 -13.5 -70 l0 -739 l362 0 l0 747 q0 41 -13.5 65.5 q-13.5 24.5 -34 38 q-20.5 13.5 -44 17.5 q-23.5 4 -43.5 4 l-4 0 l0 109 Z" /><glyph glyph-name="afii10092" unicode="&#x44a;" d="M932 1098 l0 -117 l-27 0 q-34 0 -64.5 -6 q-30.5 -6 -53.5 -20.5 q-23 -14.5 -36.5 -38.5 q-13.5 -24 -13.5 -60 l0 -231 l197 0 q95 0 180 -11.5 q85 -11.5 150 -44 q65 -32.5 103 -92 q38 -59.5 38 -155.5 q0 -69 -28.5 -128 q-28.5 -59 -85.5 -102 q-57 -43 -143.5 -67.5 q-86.5 -24.5 -203.5 -24.5 l-688 0 l0 109 l23 0 q75 0 111 33 q36 33 36 98 l0 741 l-119 0 q-28 0 -47.5 -8 q-19.5 -8 -33 -27 q-13.5 -19 -22 -51 q-8.5 -32 -14.5 -80 l-8 -67 l-141 0 l12 350 l879 0 ZM891 119 q51 0 86.5 11.5 q35.5 11.5 58 36 q22.5 24.5 33 64.5 q10.5 40 10.5 97 q0 97 -51 137.5 q-51 40.5 -145 40.5 l-146 0 l0 -387 l154 0 Z" /><glyph glyph-name="afii10093" unicode="&#x44b;" d="M711 1098 l0 -117 l-27 0 q-34 0 -64.5 -6 q-30.5 -6 -53.5 -20.5 q-23 -14.5 -36.5 -38.5 q-13.5 -24 -13.5 -60 l0 -231 l156 0 q95 0 180 -11.5 q85 -11.5 150 -44 q65 -32.5 103 -92 q38 -59.5 38 -155.5 q0 -69 -28.5 -128 q-28.5 -59 -85.5 -102 q-57 -43 -143.5 -67.5 q-86.5 -24.5 -203.5 -24.5 l-647 0 l0 109 l22 0 q76 0 112 33 q36 33 36 98 l0 616 q0 71 -37.5 102 q-37.5 31 -110.5 31 l-22 0 l0 109 l676 0 ZM629 119 q51 0 86.5 11.5 q35.5 11.5 58 36 q22.5 24.5 33 64.5 q10.5 40 10.5 97 q0 97 -51.5 137.5 q-51.5 40.5 -144.5 40.5 l-105 0 l0 -387 l113 0 ZM1167 0 l0 109 l25 0 q22 0 47.5 4.5 q25.5 4.5 47 18.5 q21.5 14 36 40 q14.5 26 14.5 70 l0 614 q0 44 -14.5 70 q-14.5 26 -36 40 q-21.5 14 -47 18.5 q-25.5 4.5 -47.5 4.5 l-25 0 l0 109 l641 0 l0 -109 l-24 0 q-21 0 -44.5 -4.5 q-23.5 -4.5 -43.5 -18.5 q-20 -14 -33.5 -40 q-13.5 -26 -13.5 -70 l0 -614 q0 -44 13.5 -70 q13.5 -26 33.5 -40 q20 -14 43.5 -18.5 q23.5 -4.5 44.5 -4.5 l24 0 l0 -109 l-641 0 Z" /><glyph glyph-name="afii10094" unicode="&#x44c;" d="M711 1098 l0 -117 l-27 0 q-34 0 -64.5 -6 q-30.5 -6 -53.5 -20.5 q-23 -14.5 -36.5 -38.5 q-13.5 -24 -13.5 -60 l0 -231 l197 0 q95 0 180 -11.5 q85 -11.5 150 -44 q65 -32.5 103 -92 q38 -59.5 38 -155.5 q0 -69 -28.5 -128 q-28.5 -59 -85.5 -102 q-57 -43 -143.5 -67.5 q-86.5 -24.5 -203.5 -24.5 l-688 0 l0 109 l22 0 q76 0 112 33 q36 33 36 98 l0 616 q0 71 -37.5 102 q-37.5 31 -110.5 31 l-22 0 l0 109 l676 0 ZM670 119 q51 0 86.5 11.5 q35.5 11.5 58 36 q22.5 24.5 33 64.5 q10.5 40 10.5 97 q0 97 -51.5 137.5 q-51.5 40.5 -144.5 40.5 l-146 0 l0 -387 l154 0 Z" /><glyph glyph-name="afii10095" unicode="&#x44d;" d="M463 94 q44 0 77.5 21 q33.5 21 57 69.5 q23.5 48.5 37 127.5 q13.5 79 16.5 194 l-356 0 l0 131 l356 0 q-3 85 -12.5 153.5 q-9.5 68.5 -29.5 116.5 q-20 48 -53 73.5 q-33 25.5 -83 25.5 q-42 0 -73.5 -22.5 q-31.5 -22.5 -52.5 -58.5 q-21 -36 -31.5 -80 q-10.5 -44 -10.5 -87 q-104 0 -152.5 39 q-48.5 39 -48.5 104 q0 41 21 80.5 q21 39.5 67.5 71 q46.5 31.5 120.5 50.5 q74 19 179 19 q113 0 201.5 -30.5 q88.5 -30.5 149 -96 q60.5 -65.5 92.5 -169.5 q32 -104 32 -251 q0 -167 -35.5 -280 q-35.5 -113 -100.5 -183 q-65 -70 -156 -100 q-91 -30 -202 -30 q-117 0 -194.5 18.5 q-77.5 18.5 -124 50.5 q-46.5 32 -65.5 74 q-19 42 -19 90 q0 75 51 116.5 q51 41.5 151 41.5 q0 -59 12.5 -110 q12.5 -51 36.5 -88.5 q24 -37.5 59.5 -59 q35.5 -21.5 82.5 -21.5 Z" /><glyph glyph-name="afii10096" unicode="&#x44e;" d="M1794 553 q0 -289 -131 -431 q-131 -142 -383 -142 q-114 0 -205 32.5 q-91 32.5 -156.5 98 q-65.5 65.5 -103 164 q-37.5 98.5 -43.5 231.5 l-256 0 l0 -264 q0 -44 13.5 -70 q13.5 -26 33.5 -40 q20 -14 43.5 -18.5 q23.5 -4.5 44.5 -4.5 l15 0 l0 -109 l-631 0 l0 109 l24 0 q23 0 48.5 4.5 q25.5 4.5 47 18.5 q21.5 14 36 40 q14.5 26 14.5 70 l0 614 q0 44 -14.5 70 q-14.5 26 -36 40 q-21.5 14 -47 18.5 q-25.5 4.5 -48.5 4.5 l-24 0 l0 109 l631 0 l0 -109 l-15 0 q-21 0 -44.5 -4.5 q-23.5 -4.5 -43.5 -18.5 q-20 -14 -33.5 -40 q-13.5 -26 -13.5 -70 l0 -233 l258 0 q16 254 145 377.5 q129 123.5 367 123.5 q119 0 213 -35 q94 -35 159.5 -106 q65.5 -71 100.5 -178.5 q35 -107.5 35 -251.5 ZM1090 553 q0 -109 10 -192 q10 -83 33 -139 q23 -56 60 -84.5 q37 -28.5 91 -28.5 q54 0 90.5 28.5 q36.5 28.5 59.5 84.5 q23 56 33 139 q10 83 10 192 q0 220 -44 330 q-44 110 -151 110 q-54 0 -90.5 -27.5 q-36.5 -27.5 -59 -82.5 q-22.5 -55 -32.5 -137.5 q-10 -82.5 -10 -192.5 Z" /><glyph glyph-name="afii10097" unicode="&#x44f;" d="M604 981 q-45 0 -76 -13.5 q-31 -13.5 -50 -37.5 q-19 -24 -27.5 -57.5 q-8.5 -33.5 -8.5 -73.5 q0 -44 8.5 -80 q8.5 -36 28 -61.5 q19.5 -25.5 50 -39.5 q30.5 -14 75.5 -14 l135 0 l0 377 l-135 0 ZM471 188 q-31 -57 -73 -93.5 q-42 -36.5 -99.5 -57.5 q-57.5 -21 -131 -29 q-73.5 -8 -167.5 -8 l0 109 l6 0 q28 0 50 7 q22 7 41.5 22 q19.5 15 38 38 q18.5 23 38.5 55 l180 289 q-41 10 -82.5 32 q-41.5 22 -75 57 q-33.5 35 -54.5 84.5 q-21 49.5 -21 113.5 q0 68 24.5 122 q24.5 54 78.5 91.5 q54 37.5 139 57.5 q85 20 206 20 l652 0 l0 -109 l-7 0 q-89 0 -126 -31 q-37 -31 -37 -94 l0 -618 q0 -28 6.5 -52.5 q6.5 -24.5 22.5 -43.5 q16 -19 44 -30 q28 -11 70 -11 l27 0 l0 -109 l-658 0 l0 109 l8 0 q34 0 64.5 4.5 q30.5 4.5 53.5 18.5 q23 14 36.5 41.5 q13.5 27.5 13.5 72.5 l0 237 l-108 0 l-160 -295 Z" /><glyph glyph-name="afii10099" unicode="&#x452;" d="M694 889 q-51 0 -85 -26 q-34 -26 -54.5 -70 q-20.5 -44 -29.5 -101.5 q-9 -57.5 -9 -120.5 l0 -329 q0 -43 10.5 -69 q10.5 -26 29.5 -40.5 q19 -14.5 46.5 -19 q27.5 -4.5 61.5 -4.5 l6 0 l0 -109 l-629 0 l0 109 l4 0 q34 0 63.5 4.5 q29.5 4.5 51 19.5 q21.5 15 33.5 43 q12 28 12 74 l0 934 l-178 0 l0 108 l178 0 l0 31 q0 41 -14.5 65.5 q-14.5 24.5 -36.5 38 q-22 13.5 -47.5 17.5 q-25.5 4 -47.5 4 l-24 0 l0 108 l481 0 l0 -264 l318 0 l0 -108 l-318 0 l0 -27 q0 -40 -2.5 -85.5 q-2.5 -45.5 -5.5 -84.5 q-4 -46 -8 -90 l18 0 q31 58 65.5 91 q34.5 33 73.5 49.5 q39 16.5 82.5 21 q43.5 4.5 91.5 4.5 q79 0 142 -23 q63 -23 106.5 -71 q43.5 -48 66.5 -123 q23 -75 23 -178 l0 -684 q0 -138 -36 -229.5 q-36 -91.5 -100.5 -146 q-64.5 -54.5 -153.5 -77.5 q-89 -23 -195 -23 l-39 0 l0 127 l12 0 q48 0 85.5 18 q37.5 18 63 60 q25.5 42 39 112 q13.5 70 13.5 175 l0 612 q0 66 -8.5 117.5 q-8.5 51.5 -28 87 q-19.5 35.5 -51 54 q-31.5 18.5 -76.5 18.5 Z" /><glyph glyph-name="afii10101" unicode="&#x454;" d="M604 -20 q-113 0 -206.5 29 q-93.5 29 -160.5 96 q-67 67 -104 175 q-37 108 -37 265 q0 166 38.5 277 q38.5 111 106 178 q67.5 67 159.5 95.5 q92 28.5 198 28.5 q99 0 175 -16.5 q76 -16.5 127 -45.5 q51 -29 77.5 -68.5 q26.5 -39.5 26.5 -84.5 q0 -33 -11.5 -64.5 q-11.5 -31.5 -41 -55.5 q-29.5 -24 -81 -39 q-51.5 -15 -131.5 -15 q0 53 -6.5 101 q-6.5 48 -21.5 84 q-15 36 -40.5 57.5 q-25.5 21.5 -64.5 21.5 q-42 0 -76.5 -19 q-34.5 -19 -59.5 -65 q-25 -46 -40 -123 q-15 -77 -18 -192 l356 0 l0 -131 l-354 0 q9 -170 66.5 -253 q57.5 -83 174.5 -83 q53 0 99.5 12.5 q46.5 12.5 84.5 35 q38 22.5 66.5 53 q28.5 30.5 46.5 65.5 q25 -15 37 -40.5 q12 -25.5 12 -53.5 q0 -39 -23 -79 q-23 -40 -71.5 -72.5 q-48.5 -32.5 -123.5 -53 q-75 -20.5 -179 -20.5 Z" /><glyph glyph-name="afii10106" unicode="&#x459;" d="M471 862 q0 41 -12.5 66 q-12.5 25 -34 38.5 q-21.5 13.5 -50.5 18 q-29 4.5 -63 4.5 l-26 0 l0 109 l1058 0 l0 -117 l-26 0 q-33 0 -63.5 -6 q-30.5 -6 -53.5 -20 q-23 -14 -37 -36.5 q-14 -22.5 -14 -56.5 l0 -237 l156 0 q94 0 179.5 -11.5 q85.5 -11.5 150 -44 q64.5 -32.5 103 -92 q38.5 -59.5 38.5 -155.5 q0 -69 -28.5 -128 q-28.5 -59 -85.5 -102 q-57 -43 -143.5 -67.5 q-86.5 -24.5 -203.5 -24.5 l-647 0 l0 109 l22 0 q142 0 148 118 l0 754 l-232 0 q-20 -190 -51 -358 q-31 -168 -70 -306 q-27 -94 -57.5 -157.5 q-30.5 -63.5 -68 -102 q-37.5 -38.5 -83.5 -55 q-46 -16.5 -104 -16.5 q-82 0 -127 37.5 q-45 37.5 -45 105.5 q0 34 10.5 59 q10.5 25 27 41.5 q16.5 16.5 36.5 24.5 q20 8 39 8 q0 -37 22.5 -63.5 q22.5 -26.5 63.5 -26.5 q24 0 47.5 6.5 q23.5 6.5 48 33.5 q24.5 27 49.5 82 q25 55 51 152 q12 42 25 98 q13 56 24.5 114 q11.5 58 19 112 q7.5 54 7.5 92 ZM1262 119 q51 0 86.5 11.5 q35.5 11.5 58 36 q22.5 24.5 33 64.5 q10.5 40 10.5 97 q0 97 -51.5 137.5 q-51.5 40.5 -145.5 40.5 l-104 0 l0 -387 l113 0 Z" /><glyph glyph-name="afii10107" unicode="&#x45a;" d="M1405 1098 l0 -117 l-27 0 q-34 0 -64.5 -6 q-30.5 -6 -53.5 -20.5 q-23 -14.5 -36.5 -38.5 q-13.5 -24 -13.5 -60 l0 -231 l156 0 q95 0 180 -11.5 q85 -11.5 150 -44 q65 -32.5 103 -92 q38 -59.5 38 -155.5 q0 -69 -28 -128 q-28 -59 -85.5 -102 q-57.5 -43 -144 -67.5 q-86.5 -24.5 -203.5 -24.5 l-616 0 l0 109 l4 0 q145 0 145 124 l0 273 l-403 0 l0 -264 q0 -44 13.5 -70 q13.5 -26 33.5 -40 q20 -14 43.5 -18.5 q23.5 -4.5 44.5 -4.5 l4 0 l0 -109 l-610 0 l0 109 l24 0 q23 0 48.5 4.5 q25.5 4.5 47 18.5 q21.5 14 36 40 q14.5 26 14.5 70 l0 614 q0 44 -14.5 70 q-14.5 26 -36 40 q-21.5 14 -47 18.5 q-25.5 4.5 -48.5 4.5 l-24 0 l0 109 l610 0 l0 -109 l-4 0 q-21 0 -44.5 -4.5 q-23.5 -4.5 -43.5 -18.5 q-20 -14 -33.5 -40 q-13.5 -26 -13.5 -70 l0 -233 l403 0 l0 241 q0 66 -39 95.5 q-39 29.5 -108 29.5 l-2 0 l0 109 l645 0 ZM1323 119 q51 0 86.5 11.5 q35.5 11.5 58 36 q22.5 24.5 33 64.5 q10.5 40 10.5 97 q0 97 -51 137.5 q-51 40.5 -145 40.5 l-105 0 l0 -387 l113 0 Z" /><glyph glyph-name="afii10193" unicode="&#x45f;" d="M1315 989 q-22 0 -48 -4.5 q-26 -4.5 -47.5 -18.5 q-21.5 -14 -36 -40 q-14.5 -26 -14.5 -70 l0 -623 q0 -40 14.5 -64.5 q14.5 -24.5 36.5 -38 q22 -13.5 47.5 -17.5 q25.5 -4 47.5 -4 l24 0 l0 -109 l-366 0 q-103 0 -160 -103.5 q-57 -103.5 -57 -326.5 l-135 0 q0 114 -18.5 195 q-18.5 81 -51.5 133.5 q-33 52.5 -79 77 q-46 24.5 -101 24.5 l-336 0 l0 109 l24 0 q22 0 47.5 4 q25.5 4 47.5 17.5 q22 13.5 36.5 38 q14.5 24.5 14.5 64.5 l0 623 q0 44 -14.5 70 q-14.5 26 -36 40 q-21.5 14 -47 18.5 q-25.5 4.5 -48.5 4.5 l-24 0 l0 109 l620 0 l0 -109 l-4 0 q-21 0 -44.5 -4.5 q-23.5 -4.5 -43.5 -18.5 q-20 -14 -33.5 -40 q-13.5 -26 -13.5 -70 l0 -739 l342 0 l0 739 q0 44 -13.5 70 q-13.5 26 -33.5 40 q-20 14 -43.5 18.5 q-23.5 4.5 -44.5 4.5 l-4 0 l0 109 l620 0 l0 -109 l-24 0 Z" /><glyph glyph-name="afii10050" unicode="&#x490;" d="M1069 1337 l-496 0 l0 -1104 q0 -40 8.5 -64.5 q8.5 -24.5 22.5 -38 q14 -13.5 33.5 -17.5 q19.5 -4 40.5 -4 l127 0 l0 -109 l-748 0 l0 109 l86 0 q23 0 42 4.5 q19 4.5 33 18.5 q14 14 22 40 q8 26 8 70 l0 979 q0 44 -8 70 q-8 26 -22 40 q-14 14 -33 18.5 q-19 4.5 -42 4.5 l-86 0 l0 108 l686 0 q56 0 92 13 q36 13 58 37 q22 24 31.5 58.5 q9.5 34.5 13.5 76.5 l8 92 l135 0 l-12 -402 Z" /><glyph glyph-name="afii10098" unicode="&#x491;" d="M516 961 l0 -719 q0 -44 13.5 -70 q13.5 -26 33.5 -40 q20 -14 43.5 -18.5 q23.5 -4.5 44.5 -4.5 l45 0 l0 -109 l-661 0 l0 109 l24 0 q23 0 48.5 4.5 q25.5 4.5 47 18.5 q21.5 14 36 40 q14.5 26 14.5 70 l0 614 q0 44 -14.5 70 q-14.5 26 -36 40 q-21.5 14 -47 18.5 q-25.5 4.5 -48.5 4.5 l-24 0 l0 109 l577 0 q36 0 60.5 8 q24.5 8 41.5 27 q17 19 26.5 51 q9.5 32 15.5 80 l10 108 l131 0 l0 -411 l-381 0 Z" /><glyph glyph-name="uni04B0" unicode="&#x4b0;" d="M336 0 l0 109 l96 0 q63 0 91 24.5 q28 24.5 28 99.5 l0 162 l-291 0 l0 109 l291 0 l0 14 l-379 727 q-34 65 -61 87 q-27 22 -84 22 l-27 0 l0 108 l686 0 l0 -108 l-35 0 q-123 0 -123 -92 q0 -46 31 -113 l152 -301 q49 -97 90 -213 q51 129 110 250 l119 245 q35 72 35 123 q0 101 -135 101 l-47 0 l0 108 l536 0 l0 -108 l-39 0 q-43 0 -69.5 -20.5 q-26.5 -20.5 -85.5 -139.5 l-348 -678 l0 -12 l290 0 l0 -109 l-290 0 l0 -159 q0 -76 26.5 -101.5 q26.5 -25.5 87.5 -25.5 l101 0 l0 -109 l-756 0 Z" /><glyph glyph-name="uni04B1" unicode="&#x4b1;" d="M334 -381 q145 0 145 133 l0 139 l-264 0 l0 109 l264 0 l0 4 l-315 887 q-35 98 -164 98 l0 109 l635 0 l0 -109 l-86 0 q-68 0 -68 -65 q0 -36 19 -90 l137 -426 q53 -166 72 -265 q13 67 59 219 l139 455 q23 75 23 113 q0 59 -80 59 l-59 0 l0 109 l450 0 l0 -109 l-41 0 q-44 0 -71 -27 q-27 -27 -62 -122 l-276 -832 l0 -8 l264 0 l0 -109 l-264 0 l0 -139 q0 -133 145 -133 l25 0 l0 -108 l-652 0 l0 108 l25 0 Z" /><glyph glyph-name="endash" unicode="&#x2013;" d="M1034 477 l-1044 0 l0 146 l1044 0 l0 -146 Z" /><glyph glyph-name="emdash" unicode="&#x2014;" d="M2058 477 l-2068 0 l0 146 l2068 0 l0 -146 Z" /><glyph glyph-name="quoteleft" unicode="&#x2018;" d="M115 1061 q0 65 20 126 q20 61 63.5 113 q43.5 52 113 93.5 q69.5 41.5 169.5 68.5 l0 -106 q-45 -16 -78.5 -32 q-33.5 -16 -56 -34.5 q-22.5 -18.5 -34 -41 q-11.5 -22.5 -11.5 -52.5 q0 -20 11 -32 q11 -12 28 -23 q17 -11 36 -22.5 q19 -11.5 36 -29 q17 -17.5 28 -44.5 q11 -27 11 -68 q0 -69 -42.5 -105 q-42.5 -36 -105.5 -36 q-87 0 -137.5 60 q-50.5 60 -50.5 165 Z" /><glyph glyph-name="quoteright" unicode="&#x2019;" d="M459 1237 q0 -65 -20 -126 q-20 -61 -64 -113 q-44 -52 -113.5 -93.5 q-69.5 -41.5 -169.5 -68.5 l0 106 q45 16 78.5 32 q33.5 16 56 34.5 q22.5 18.5 34 41 q11.5 22.5 11.5 52.5 q0 20 -11 32 q-11 12 -27.5 23 q-16.5 11 -36 22.5 q-19.5 11.5 -36 29.5 q-16.5 18 -27.5 44.5 q-11 26.5 -11 67.5 q0 69 42 105 q42 36 105 36 q87 0 138 -60 q51 -60 51 -165 Z" /><glyph glyph-name="quotesinglbase" unicode="&#x201a;" d="M459 86 q0 -65 -20 -126 q-20 -61 -64 -113 q-44 -52 -113.5 -93.5 q-69.5 -41.5 -169.5 -68.5 l0 106 q45 16 78.5 32 q33.5 16 56 34.5 q22.5 18.5 34 41 q11.5 22.5 11.5 52.5 q0 19 -11 31.5 q-11 12.5 -27.5 23.5 q-16.5 11 -36 22.5 q-19.5 11.5 -36 29.5 q-16.5 18 -27.5 44.5 q-11 26.5 -11 67.5 q0 69 42 105 q42 36 105 36 q87 0 138 -60 q51 -60 51 -165 Z" /><glyph glyph-name="quotedblleft" unicode="&#x201c;" d="M543 1061 q0 65 20 126 q20 61 63.5 113 q43.5 52 113 93.5 q69.5 41.5 169.5 68.5 l0 -106 q-44 -16 -78 -32 q-34 -16 -56.5 -34.5 q-22.5 -18.5 -34 -41 q-11.5 -22.5 -11.5 -52.5 q0 -20 11 -32 q11 -12 28 -23 q17 -11 36 -22.5 q19 -11.5 36 -29 q17 -17.5 28 -44.5 q11 -27 11 -68 q0 -69 -42.5 -105 q-42.5 -36 -105.5 -36 q-87 0 -137.5 60 q-50.5 60 -50.5 165 ZM115 1061 q0 65 20 126 q20 61 63.5 113 q43.5 52 113 93.5 q69.5 41.5 169.5 68.5 l0 -106 q-45 -16 -78.5 -32 q-33.5 -16 -56 -34.5 q-22.5 -18.5 -34 -41 q-11.5 -22.5 -11.5 -52.5 q0 -20 11 -32 q11 -12 28 -23 q17 -11 36 -22.5 q19 -11.5 36 -29 q17 -17.5 28 -44.5 q11 -27 11 -68 q0 -69 -42.5 -105 q-42.5 -36 -105.5 -36 q-87 0 -137.5 60 q-50.5 60 -50.5 165 Z" /><glyph glyph-name="quotedblright" unicode="&#x201d;" d="M459 1237 q0 -65 -20 -126 q-20 -61 -64 -113 q-44 -52 -113.5 -93.5 q-69.5 -41.5 -169.5 -68.5 l0 106 q45 16 78.5 32 q33.5 16 56 34.5 q22.5 18.5 34 41 q11.5 22.5 11.5 52.5 q0 20 -11 32 q-11 12 -27.5 23 q-16.5 11 -36 22.5 q-19.5 11.5 -36 29.5 q-16.5 18 -27.5 44.5 q-11 26.5 -11 67.5 q0 69 42 105 q42 36 105 36 q87 0 138 -60 q51 -60 51 -165 ZM887 1237 q0 -65 -20 -126 q-20 -61 -64 -113 q-44 -52 -113.5 -93.5 q-69.5 -41.5 -169.5 -68.5 l0 106 q45 16 78.5 32 q33.5 16 56 34.5 q22.5 18.5 34 41 q11.5 22.5 11.5 52.5 q0 20 -11 32 q-11 12 -27.5 23 q-16.5 11 -36 22.5 q-19.5 11.5 -36 29.5 q-16.5 18 -27.5 44.5 q-11 26.5 -11 67.5 q0 69 42 105 q42 36 105 36 q87 0 138 -60 q51 -60 51 -165 Z" /><glyph glyph-name="quotedblbase" unicode="&#x201e;" d="M459 86 q0 -65 -20 -126 q-20 -61 -64 -113 q-44 -52 -113.5 -93.5 q-69.5 -41.5 -169.5 -68.5 l0 106 q45 16 78.5 32 q33.5 16 56 34.5 q22.5 18.5 34 41 q11.5 22.5 11.5 52.5 q0 19 -11 31.5 q-11 12.5 -27.5 23.5 q-16.5 11 -36 22.5 q-19.5 11.5 -36 29.5 q-16.5 18 -27.5 44.5 q-11 26.5 -11 67.5 q0 69 42 105 q42 36 105 36 q87 0 138 -60 q51 -60 51 -165 ZM887 86 q0 -65 -20 -126 q-20 -61 -64 -113 q-44 -52 -113.5 -93.5 q-69.5 -41.5 -169.5 -68.5 l0 106 q45 16 78.5 32 q33.5 16 56 34.5 q22.5 18.5 34 41 q11.5 22.5 11.5 52.5 q0 19 -11 31.5 q-11 12.5 -27.5 23.5 q-16.5 11 -36 22.5 q-19.5 11.5 -36 29.5 q-16.5 18 -27.5 44.5 q-11 26.5 -11 67.5 q0 69 42 105 q42 36 105 36 q87 0 138 -60 q51 -60 51 -165 Z" /><glyph glyph-name="bullet" unicode="&#x2022;" d="M115 729 q0 92 22 154.5 q22 62.5 61.5 100 q39.5 37.5 93.5 53.5 q54 16 118 16 q60 0 114 -16 q54 -16 94 -53.5 q40 -37.5 63.5 -100 q23.5 -62.5 23.5 -154.5 q0 -91 -23.5 -153 q-23.5 -62 -63.5 -100 q-40 -38 -94 -54 q-54 -16 -114 -16 q-64 0 -118 16 q-54 16 -93.5 54 q-39.5 38 -61.5 100 q-22 62 -22 153 Z" /><glyph glyph-name="guilsinglleft" unicode="&#x2039;" d="M133 606 l313 357 l144 0 l-207 -410 l207 -410 l-144 0 l-313 357 l0 106 Z" /><glyph glyph-name="guilsinglright" unicode="&#x203a;" d="M590 500 l-314 -357 l-143 0 l207 410 l-207 410 l143 0 l314 -357 l0 -106 Z" /><glyph glyph-name="fraction" unicode="&#x2044;" d="M-221 0 l-160 0 l731 1462 l158 0 l-729 -1462 Z" /><glyph glyph-name="uni2074" unicode="&#x2074;" d="M625 827 l0 -71 q0 -26 7 -41.5 q7 -15.5 19 -23.5 q12 -8 27.5 -10.5 q15.5 -2.5 32.5 -2.5 l41 0 l0 -90 l-471 0 l0 90 l57 0 q17 0 32 2.5 q15 2.5 26.5 10.5 q11.5 8 18.5 23.5 q7 15.5 7 41.5 l0 71 l-389 0 l0 82 l407 564 l185 0 l0 -537 l159 0 l0 -109 l-159 0 ZM422 1182 q0 32 2.5 63.5 q2.5 31.5 7.5 69.5 q-8 -17 -17 -33.5 q-9 -16.5 -14 -24.5 l-233 -321 l254 0 l0 246 Z" /><glyph glyph-name="Euro" unicode="&#x20ac;" d="M737 -20 q-105 0 -198 30.5 q-93 30.5 -167 97.5 q-74 67 -124.5 174 q-50.5 107 -71.5 261 l-121 0 l0 127 l109 0 l0 63 l0 64 l-109 0 l0 127 l119 0 q18 159 68 265.5 q50 106.5 123 171 q73 64.5 164.5 91.5 q91.5 27 193.5 27 q91 0 162.5 -18 q71.5 -18 121.5 -50 q50 -32 76.5 -75 q26.5 -43 26.5 -93 q0 -35 -16.5 -66.5 q-16.5 -31.5 -49 -55.5 q-32.5 -24 -79.5 -38 q-47 -14 -109 -14 q0 48 -7.5 98 q-7.5 50 -25.5 90.5 q-18 40.5 -47.5 66.5 q-29.5 26 -73.5 26 q-43 0 -81.5 -18 q-38.5 -18 -69 -65.5 q-30.5 -47.5 -51 -130 q-20.5 -82.5 -29.5 -212.5 l377 0 l0 -127 l-383 0 l0 -68 l0 -59 l301 0 l0 -127 l-291 0 q17 -206 90.5 -308 q73.5 -102 212.5 -102 q49 0 91.5 12.5 q42.5 12.5 77.5 35 q35 22.5 61.5 53 q26.5 30.5 44.5 65.5 q21 -17 32 -41.5 q11 -24.5 11 -52.5 q0 -39 -19 -79 q-19 -40 -61.5 -72.5 q-42.5 -32.5 -111 -53 q-68.5 -20.5 -167.5 -20.5 Z" /><glyph glyph-name="afii61352" unicode="&#x2116;" d="M1362 0 l0 174 l670 0 l0 -174 l-670 0 ZM995 0 l-604 1247 l0 -1005 q0 -44 8.5 -70 q8.5 -26 22.5 -40 q14 -14 33 -18.5 q19 -4.5 41 -4.5 l86 0 l0 -109 l-525 0 l0 109 l86 0 q22 0 41 4.5 q19 4.5 33.5 18.5 q14.5 14 22.5 40 q8 26 8 70 l0 987 q0 41 -8.5 65.5 q-8.5 24.5 -23 37.5 q-14.5 13 -33.5 17.5 q-19 4.5 -40 4.5 l-86 0 l0 108 l537 0 l446 -983 l0 750 q0 41 -8.5 65.5 q-8.5 24.5 -23 37.5 q-14.5 13 -33 17.5 q-18.5 4.5 -39.5 4.5 l-86 0 l0 108 l524 0 l0 -108 l-86 0 q-21 0 -40 -4.5 q-19 -4.5 -33.5 -18.5 q-14.5 -14 -22.5 -40 q-8 -26 -8 -70 l0 -1221 l-189 0 ZM1563 621 q0 -121 30 -183.5 q30 -62.5 107 -62.5 q75 0 106 62 q31 62 31 184 q0 120 -32 179.5 q-32 59.5 -107 59.5 q-76 0 -105.5 -59.5 q-29.5 -59.5 -29.5 -179.5 ZM2075 621 q0 -175 -96 -262 q-96 -87 -281 -87 q-89 0 -159 21.5 q-70 21.5 -118 65 q-48 43.5 -73 109 q-25 65.5 -25 153.5 q0 176 95 261 q95 85 284 85 q86 0 155 -21.5 q69 -21.5 117.5 -64.5 q48.5 -43 74.5 -108 q26 -65 26 -152 Z" /><glyph glyph-name="minus" unicode="&#x2212;" d="M1012 659 l-879 0 l0 146 l879 0 l0 -146 Z" /></font>
</defs>
</svg>
